<mxfile host="app.diagrams.net" modified="2024-02-03T01:53:11.694Z" agent="Mozilla/5.0 (Windows NT 10.0; Win64; x64) AppleWebKit/537.36 (KHTML, like Gecko) Chrome/120.0.0.0 Safari/537.36" etag="WZJOKYyWICCVEgDYREh_" version="23.1.0" type="github">
  <diagram id="C5RBs43oDa-KdzZeNtuy" name="Page-1">
    <mxGraphModel dx="1877" dy="580" grid="1" gridSize="10" guides="1" tooltips="1" connect="1" arrows="1" fold="1" page="1" pageScale="1" pageWidth="827" pageHeight="1169" math="0" shadow="0">
      <root>
        <mxCell id="WIyWlLk6GJQsqaUBKTNV-0" />
        <mxCell id="WIyWlLk6GJQsqaUBKTNV-1" parent="WIyWlLk6GJQsqaUBKTNV-0" />
        <mxCell id="fTH-W33H2Ky56Lf1E-zr-5" value="" style="rounded=0;whiteSpace=wrap;html=1;fillColor=none;strokeColor=none;" parent="WIyWlLk6GJQsqaUBKTNV-1" vertex="1">
          <mxGeometry x="-20" y="190" width="1060" height="770" as="geometry" />
        </mxCell>
        <mxCell id="O93e6oZrVW3IIz9VdpjF-99" value="Configuração" style="rounded=0;whiteSpace=wrap;html=1;fontFamily=Helvetica;fontSize=26;fillColor=#f5f5f5;strokeColor=none;align=left;verticalAlign=top;fontColor=#333333;spacingLeft=47;" parent="WIyWlLk6GJQsqaUBKTNV-1" vertex="1">
          <mxGeometry x="-20" y="190" width="470" height="250" as="geometry" />
        </mxCell>
        <mxCell id="O93e6oZrVW3IIz9VdpjF-70" value="Dados" style="rounded=0;whiteSpace=wrap;html=1;fontFamily=Helvetica;fontSize=26;fillColor=#dae8fc;strokeColor=none;align=left;verticalAlign=top;spacingLeft=47;" parent="WIyWlLk6GJQsqaUBKTNV-1" vertex="1">
          <mxGeometry x="460" y="190" width="580" height="250" as="geometry" />
        </mxCell>
        <mxCell id="O93e6oZrVW3IIz9VdpjF-61" value="&lt;div style=&quot;font-size: 26px;&quot;&gt;&lt;span style=&quot;background-color: initial; font-size: 26px;&quot;&gt;Pipeline&lt;/span&gt;&lt;/div&gt;" style="rounded=0;whiteSpace=wrap;html=1;fontFamily=Helvetica;fontSize=26;fillColor=#fff2cc;strokeColor=none;align=left;verticalAlign=top;spacing=0;spacingLeft=47;" parent="WIyWlLk6GJQsqaUBKTNV-1" vertex="1">
          <mxGeometry x="-20" y="450" width="1060" height="250" as="geometry" />
        </mxCell>
        <mxCell id="O93e6oZrVW3IIz9VdpjF-82" style="edgeStyle=orthogonalEdgeStyle;shape=connector;rounded=0;orthogonalLoop=1;jettySize=auto;html=1;exitX=1;exitY=0.5;exitDx=0;exitDy=0;labelBackgroundColor=default;strokeColor=default;align=center;verticalAlign=middle;fontFamily=Helvetica;fontSize=11;fontColor=default;endArrow=classic;" parent="WIyWlLk6GJQsqaUBKTNV-1" source="O93e6oZrVW3IIz9VdpjF-7" target="O93e6oZrVW3IIz9VdpjF-29" edge="1">
          <mxGeometry relative="1" as="geometry" />
        </mxCell>
        <mxCell id="O93e6oZrVW3IIz9VdpjF-109" value="Intenção" style="edgeLabel;html=1;align=center;verticalAlign=middle;resizable=0;points=[];fontSize=17;fontFamily=Helvetica;fontColor=default;labelPosition=center;verticalLabelPosition=middle;" parent="O93e6oZrVW3IIz9VdpjF-82" vertex="1" connectable="0">
          <mxGeometry x="-0.36" y="-2" relative="1" as="geometry">
            <mxPoint x="12" y="16" as="offset" />
          </mxGeometry>
        </mxCell>
        <mxCell id="O93e6oZrVW3IIz9VdpjF-144" value="" style="rounded=0;whiteSpace=wrap;html=1;fontFamily=Helvetica;fontSize=11;fontColor=default;fillColor=none;dashed=1;dashPattern=8 8;" parent="WIyWlLk6GJQsqaUBKTNV-1" vertex="1">
          <mxGeometry x="393" y="460" width="637" height="230" as="geometry" />
        </mxCell>
        <mxCell id="O93e6oZrVW3IIz9VdpjF-7" value="Reconhecimento de Intenção" style="whiteSpace=wrap;html=1;aspect=fixed;strokeColor=default;fontSize=16;" parent="WIyWlLk6GJQsqaUBKTNV-1" vertex="1">
          <mxGeometry x="20" y="510" width="130" height="130" as="geometry" />
        </mxCell>
        <mxCell id="O93e6oZrVW3IIz9VdpjF-94" style="edgeStyle=orthogonalEdgeStyle;shape=connector;rounded=0;orthogonalLoop=1;jettySize=auto;html=1;exitX=1;exitY=0.5;exitDx=0;exitDy=0;exitPerimeter=0;labelBackgroundColor=default;strokeColor=default;align=center;verticalAlign=middle;fontFamily=Helvetica;fontSize=11;fontColor=default;endArrow=classic;" parent="WIyWlLk6GJQsqaUBKTNV-1" source="O93e6oZrVW3IIz9VdpjF-9" target="O93e6oZrVW3IIz9VdpjF-93" edge="1">
          <mxGeometry relative="1" as="geometry" />
        </mxCell>
        <mxCell id="O93e6oZrVW3IIz9VdpjF-131" value="Envio do&amp;nbsp;&lt;br&gt;Resultado" style="edgeLabel;html=1;align=center;verticalAlign=middle;resizable=0;points=[];fontSize=17;fontFamily=Helvetica;fontColor=default;" parent="O93e6oZrVW3IIz9VdpjF-94" vertex="1" connectable="0">
          <mxGeometry x="0.3197" y="-2" relative="1" as="geometry">
            <mxPoint as="offset" />
          </mxGeometry>
        </mxCell>
        <mxCell id="O93e6oZrVW3IIz9VdpjF-98" style="edgeStyle=orthogonalEdgeStyle;shape=link;rounded=0;orthogonalLoop=1;jettySize=auto;html=1;labelBackgroundColor=default;strokeColor=default;align=center;verticalAlign=middle;fontFamily=Helvetica;fontSize=11;fontColor=default;endArrow=classic;dashed=1;" parent="WIyWlLk6GJQsqaUBKTNV-1" source="O93e6oZrVW3IIz9VdpjF-9" target="O93e6oZrVW3IIz9VdpjF-16" edge="1">
          <mxGeometry relative="1" as="geometry" />
        </mxCell>
        <mxCell id="O93e6oZrVW3IIz9VdpjF-9" value="AdventureWorksDW" style="strokeWidth=2;html=1;shape=mxgraph.flowchart.database;whiteSpace=wrap;labelPosition=center;verticalLabelPosition=top;align=center;verticalAlign=bottom;fillColor=default;fontSize=18;" parent="WIyWlLk6GJQsqaUBKTNV-1" vertex="1">
          <mxGeometry x="690" y="242.84" width="70" height="110" as="geometry" />
        </mxCell>
        <mxCell id="O93e6oZrVW3IIz9VdpjF-77" style="edgeStyle=orthogonalEdgeStyle;shape=connector;rounded=0;orthogonalLoop=1;jettySize=auto;html=1;labelBackgroundColor=default;strokeColor=default;align=center;verticalAlign=middle;fontFamily=Helvetica;fontSize=11;fontColor=default;endArrow=classic;" parent="WIyWlLk6GJQsqaUBKTNV-1" source="O93e6oZrVW3IIz9VdpjF-16" target="O93e6oZrVW3IIz9VdpjF-23" edge="1">
          <mxGeometry relative="1" as="geometry" />
        </mxCell>
        <mxCell id="O93e6oZrVW3IIz9VdpjF-16" value="Dicionário de dados" style="sketch=0;outlineConnect=0;fontColor=#232F3E;gradientColor=none;fillColor=#232F3D;strokeColor=none;dashed=0;verticalLabelPosition=top;verticalAlign=bottom;align=center;html=1;fontSize=18;fontStyle=0;aspect=fixed;pointerEvents=1;shape=mxgraph.aws4.json_script;labelPosition=center;" parent="WIyWlLk6GJQsqaUBKTNV-1" vertex="1">
          <mxGeometry x="320" y="262.84000000000003" width="51.16" height="70" as="geometry" />
        </mxCell>
        <mxCell id="O93e6oZrVW3IIz9VdpjF-80" style="edgeStyle=orthogonalEdgeStyle;shape=connector;rounded=0;orthogonalLoop=1;jettySize=auto;html=1;labelBackgroundColor=default;strokeColor=default;align=center;verticalAlign=middle;fontFamily=Helvetica;fontSize=11;fontColor=default;endArrow=classic;" parent="WIyWlLk6GJQsqaUBKTNV-1" source="O93e6oZrVW3IIz9VdpjF-23" target="O93e6oZrVW3IIz9VdpjF-29" edge="1">
          <mxGeometry relative="1" as="geometry" />
        </mxCell>
        <mxCell id="O93e6oZrVW3IIz9VdpjF-110" value="Relação &lt;br&gt;Intenção-Estrutura" style="edgeLabel;html=1;align=center;verticalAlign=middle;resizable=0;points=[];fontSize=17;fontFamily=Helvetica;fontColor=default;" parent="O93e6oZrVW3IIz9VdpjF-80" vertex="1" connectable="0">
          <mxGeometry x="0.682" y="5" relative="1" as="geometry">
            <mxPoint as="offset" />
          </mxGeometry>
        </mxCell>
        <mxCell id="O93e6oZrVW3IIz9VdpjF-23" value="Relação&lt;br&gt;Intenção - Estrutura" style="sketch=0;outlineConnect=0;fontColor=#232F3E;gradientColor=none;fillColor=#232F3D;strokeColor=none;dashed=0;verticalLabelPosition=middle;verticalAlign=middle;align=right;html=1;fontSize=17;fontStyle=0;aspect=fixed;pointerEvents=1;shape=mxgraph.aws4.json_script;labelPosition=left;" parent="WIyWlLk6GJQsqaUBKTNV-1" vertex="1">
          <mxGeometry x="170" y="344.68" width="47" height="64.32" as="geometry" />
        </mxCell>
        <mxCell id="O93e6oZrVW3IIz9VdpjF-85" style="edgeStyle=orthogonalEdgeStyle;shape=connector;rounded=0;orthogonalLoop=1;jettySize=auto;html=1;labelBackgroundColor=default;strokeColor=default;align=center;verticalAlign=middle;fontFamily=Helvetica;fontSize=11;fontColor=default;endArrow=classic;entryX=0.019;entryY=0.479;entryDx=0;entryDy=0;entryPerimeter=0;" parent="WIyWlLk6GJQsqaUBKTNV-1" source="O93e6oZrVW3IIz9VdpjF-29" target="O93e6oZrVW3IIz9VdpjF-87" edge="1">
          <mxGeometry relative="1" as="geometry">
            <mxPoint x="446" y="575" as="targetPoint" />
          </mxGeometry>
        </mxCell>
        <mxCell id="O93e6oZrVW3IIz9VdpjF-111" value="Estrutura" style="edgeLabel;html=1;align=center;verticalAlign=middle;resizable=0;points=[];fontSize=17;fontFamily=Helvetica;fontColor=default;" parent="O93e6oZrVW3IIz9VdpjF-85" vertex="1" connectable="0">
          <mxGeometry x="-0.3096" y="1" relative="1" as="geometry">
            <mxPoint x="-1" y="-24" as="offset" />
          </mxGeometry>
        </mxCell>
        <mxCell id="O93e6oZrVW3IIz9VdpjF-29" value="Mapeamento&lt;br style=&quot;font-size: 14px;&quot;&gt;Intenção -&lt;br style=&quot;font-size: 14px;&quot;&gt;Estrutura" style="html=1;whiteSpace=wrap;aspect=fixed;shape=isoRectangle;fontSize=14;" parent="WIyWlLk6GJQsqaUBKTNV-1" vertex="1">
          <mxGeometry x="210" y="586.75" width="160" height="96" as="geometry" />
        </mxCell>
        <mxCell id="O93e6oZrVW3IIz9VdpjF-78" style="edgeStyle=orthogonalEdgeStyle;shape=connector;rounded=0;orthogonalLoop=1;jettySize=auto;html=1;labelBackgroundColor=default;strokeColor=default;align=center;verticalAlign=middle;fontFamily=Helvetica;fontSize=11;fontColor=default;endArrow=classic;exitX=0.33;exitY=0.043;exitDx=0;exitDy=0;exitPerimeter=0;" parent="WIyWlLk6GJQsqaUBKTNV-1" source="O93e6oZrVW3IIz9VdpjF-138" target="O93e6oZrVW3IIz9VdpjF-7" edge="1">
          <mxGeometry relative="1" as="geometry" />
        </mxCell>
        <mxCell id="O93e6oZrVW3IIz9VdpjF-106" value="Expressão" style="edgeLabel;html=1;align=center;verticalAlign=middle;resizable=0;points=[];fontSize=17;fontFamily=Helvetica;fontColor=default;labelPosition=center;verticalLabelPosition=middle;" parent="O93e6oZrVW3IIz9VdpjF-78" vertex="1" connectable="0">
          <mxGeometry relative="1" as="geometry">
            <mxPoint x="-9" y="40" as="offset" />
          </mxGeometry>
        </mxCell>
        <mxCell id="O93e6oZrVW3IIz9VdpjF-86" style="edgeStyle=orthogonalEdgeStyle;shape=connector;rounded=0;orthogonalLoop=1;jettySize=auto;html=1;labelBackgroundColor=default;strokeColor=default;align=center;verticalAlign=middle;fontFamily=Helvetica;fontSize=11;fontColor=default;endArrow=classic;entryX=0.5;entryY=0.979;entryDx=0;entryDy=0;entryPerimeter=0;labelPosition=center;verticalLabelPosition=middle;exitX=0.83;exitY=0.2;exitDx=0;exitDy=0;exitPerimeter=0;" parent="WIyWlLk6GJQsqaUBKTNV-1" source="O93e6oZrVW3IIz9VdpjF-138" target="O93e6oZrVW3IIz9VdpjF-87" edge="1">
          <mxGeometry relative="1" as="geometry">
            <mxPoint x="511" y="640" as="targetPoint" />
            <Array as="points">
              <mxPoint x="440" y="794" />
              <mxPoint x="440" y="700" />
              <mxPoint x="510" y="700" />
            </Array>
          </mxGeometry>
        </mxCell>
        <mxCell id="O93e6oZrVW3IIz9VdpjF-108" value="Expressão" style="edgeLabel;html=1;align=center;verticalAlign=middle;resizable=0;points=[];fontSize=17;fontFamily=Helvetica;fontColor=default;labelPosition=center;verticalLabelPosition=middle;" parent="O93e6oZrVW3IIz9VdpjF-86" vertex="1" connectable="0">
          <mxGeometry relative="1" as="geometry">
            <mxPoint as="offset" />
          </mxGeometry>
        </mxCell>
        <mxCell id="O93e6oZrVW3IIz9VdpjF-89" style="edgeStyle=orthogonalEdgeStyle;shape=connector;rounded=0;orthogonalLoop=1;jettySize=auto;html=1;labelBackgroundColor=default;strokeColor=default;align=center;verticalAlign=middle;fontFamily=Helvetica;fontSize=11;fontColor=default;endArrow=classic;" parent="WIyWlLk6GJQsqaUBKTNV-1" source="O93e6oZrVW3IIz9VdpjF-87" target="O93e6oZrVW3IIz9VdpjF-88" edge="1">
          <mxGeometry relative="1" as="geometry" />
        </mxCell>
        <mxCell id="O93e6oZrVW3IIz9VdpjF-127" value="Instrução&lt;br style=&quot;font-size: 17px;&quot;&gt;Criação de&lt;br style=&quot;font-size: 17px;&quot;&gt;SQL" style="edgeLabel;html=1;align=center;verticalAlign=middle;resizable=0;points=[];fontSize=17;fontFamily=Helvetica;fontColor=default;labelBackgroundColor=default;" parent="O93e6oZrVW3IIz9VdpjF-89" vertex="1" connectable="0">
          <mxGeometry x="-0.3594" y="1" relative="1" as="geometry">
            <mxPoint x="-20" y="-42" as="offset" />
          </mxGeometry>
        </mxCell>
        <mxCell id="O93e6oZrVW3IIz9VdpjF-87" value="Criação do&lt;br&gt;Prompt" style="html=1;whiteSpace=wrap;aspect=fixed;shape=isoRectangle;fontSize=18;" parent="WIyWlLk6GJQsqaUBKTNV-1" vertex="1">
          <mxGeometry x="430" y="585" width="160" height="96" as="geometry" />
        </mxCell>
        <mxCell id="O93e6oZrVW3IIz9VdpjF-91" style="edgeStyle=orthogonalEdgeStyle;shape=connector;rounded=0;orthogonalLoop=1;jettySize=auto;html=1;exitX=0.5;exitY=0;exitDx=0;exitDy=0;labelBackgroundColor=default;strokeColor=default;align=center;verticalAlign=middle;fontFamily=Helvetica;fontSize=11;fontColor=default;endArrow=classic;" parent="WIyWlLk6GJQsqaUBKTNV-1" source="O93e6oZrVW3IIz9VdpjF-88" target="O93e6oZrVW3IIz9VdpjF-9" edge="1">
          <mxGeometry relative="1" as="geometry" />
        </mxCell>
        <mxCell id="O93e6oZrVW3IIz9VdpjF-132" value="Geração do&amp;nbsp;&lt;br&gt;SQL" style="edgeLabel;html=1;align=center;verticalAlign=middle;resizable=0;points=[];fontSize=17;fontFamily=Helvetica;fontColor=default;" parent="O93e6oZrVW3IIz9VdpjF-91" vertex="1" connectable="0">
          <mxGeometry x="-0.3764" y="-1" relative="1" as="geometry">
            <mxPoint x="-1" y="19" as="offset" />
          </mxGeometry>
        </mxCell>
        <mxCell id="O93e6oZrVW3IIz9VdpjF-148" value="Aplicação do&lt;br&gt;SQL" style="edgeLabel;html=1;align=center;verticalAlign=middle;resizable=0;points=[];fontSize=17;fontFamily=Helvetica;fontColor=default;" parent="O93e6oZrVW3IIz9VdpjF-91" vertex="1" connectable="0">
          <mxGeometry x="0.4762" y="1" relative="1" as="geometry">
            <mxPoint as="offset" />
          </mxGeometry>
        </mxCell>
        <mxCell id="O93e6oZrVW3IIz9VdpjF-97" style="edgeStyle=orthogonalEdgeStyle;shape=connector;rounded=0;orthogonalLoop=1;jettySize=auto;html=1;exitX=0.5;exitY=1;exitDx=0;exitDy=0;entryX=1;entryY=0.54;entryDx=0;entryDy=0;labelBackgroundColor=default;strokeColor=default;align=center;verticalAlign=middle;fontFamily=Helvetica;fontSize=11;fontColor=default;endArrow=classic;entryPerimeter=0;" parent="WIyWlLk6GJQsqaUBKTNV-1" source="O93e6oZrVW3IIz9VdpjF-88" target="O93e6oZrVW3IIz9VdpjF-137" edge="1">
          <mxGeometry relative="1" as="geometry" />
        </mxCell>
        <mxCell id="O93e6oZrVW3IIz9VdpjF-134" value="Geração da Resposta" style="edgeLabel;html=1;align=center;verticalAlign=middle;resizable=0;points=[];fontSize=17;fontFamily=Helvetica;fontColor=default;" parent="O93e6oZrVW3IIz9VdpjF-97" vertex="1" connectable="0">
          <mxGeometry x="-0.6621" y="-2" relative="1" as="geometry">
            <mxPoint x="2" y="-104" as="offset" />
          </mxGeometry>
        </mxCell>
        <mxCell id="O93e6oZrVW3IIz9VdpjF-88" value="Geração de&lt;br&gt;Texto" style="whiteSpace=wrap;html=1;aspect=fixed;fontSize=18;" parent="WIyWlLk6GJQsqaUBKTNV-1" vertex="1">
          <mxGeometry x="660" y="510" width="130" height="130" as="geometry" />
        </mxCell>
        <mxCell id="O93e6oZrVW3IIz9VdpjF-96" style="edgeStyle=orthogonalEdgeStyle;shape=connector;rounded=0;orthogonalLoop=1;jettySize=auto;html=1;labelBackgroundColor=default;strokeColor=default;align=center;verticalAlign=middle;fontFamily=Helvetica;fontSize=11;fontColor=default;endArrow=classic;" parent="WIyWlLk6GJQsqaUBKTNV-1" source="O93e6oZrVW3IIz9VdpjF-93" target="O93e6oZrVW3IIz9VdpjF-88" edge="1">
          <mxGeometry relative="1" as="geometry" />
        </mxCell>
        <mxCell id="O93e6oZrVW3IIz9VdpjF-129" value="Instrução&lt;br style=&quot;font-size: 17px;&quot;&gt;Geração de&lt;br style=&quot;font-size: 17px;&quot;&gt;Resposta" style="edgeLabel;align=center;verticalAlign=middle;resizable=0;points=[];fontSize=17;fontFamily=Helvetica;fontColor=default;spacing=2;html=1;" parent="O93e6oZrVW3IIz9VdpjF-96" vertex="1" connectable="0">
          <mxGeometry relative="1" as="geometry">
            <mxPoint x="34" y="24" as="offset" />
          </mxGeometry>
        </mxCell>
        <mxCell id="O93e6oZrVW3IIz9VdpjF-93" value="Criação do&lt;br&gt;&amp;nbsp;Prompt" style="html=1;whiteSpace=wrap;aspect=fixed;shape=isoRectangle;fontSize=18;" parent="WIyWlLk6GJQsqaUBKTNV-1" vertex="1">
          <mxGeometry x="840" y="470" width="160" height="96" as="geometry" />
        </mxCell>
        <mxCell id="O93e6oZrVW3IIz9VdpjF-95" style="edgeStyle=orthogonalEdgeStyle;shape=connector;rounded=0;orthogonalLoop=1;jettySize=auto;html=1;entryX=1.006;entryY=0.521;entryDx=0;entryDy=0;entryPerimeter=0;labelBackgroundColor=default;strokeColor=default;align=center;verticalAlign=middle;fontFamily=Helvetica;fontSize=11;fontColor=default;endArrow=classic;exitX=1;exitY=0.514;exitDx=0;exitDy=0;exitPerimeter=0;" parent="WIyWlLk6GJQsqaUBKTNV-1" source="O93e6oZrVW3IIz9VdpjF-138" target="O93e6oZrVW3IIz9VdpjF-93" edge="1">
          <mxGeometry relative="1" as="geometry" />
        </mxCell>
        <mxCell id="O93e6oZrVW3IIz9VdpjF-107" value="Expressão" style="edgeLabel;html=1;align=center;verticalAlign=middle;resizable=0;points=[];fontSize=17;fontFamily=Helvetica;fontColor=default;" parent="O93e6oZrVW3IIz9VdpjF-95" vertex="1" connectable="0">
          <mxGeometry relative="1" as="geometry">
            <mxPoint x="-75" y="-1" as="offset" />
          </mxGeometry>
        </mxCell>
        <mxCell id="O93e6oZrVW3IIz9VdpjF-100" value="" style="dashed=0;outlineConnect=0;html=1;align=center;labelPosition=center;verticalLabelPosition=bottom;verticalAlign=top;shape=mxgraph.weblogos.json_2;fontFamily=Helvetica;fontSize=11;fontColor=default;" parent="WIyWlLk6GJQsqaUBKTNV-1" vertex="1">
          <mxGeometry x="-14" y="409" width="80.4" height="25.200000000000003" as="geometry" />
        </mxCell>
        <mxCell id="O93e6oZrVW3IIz9VdpjF-103" value="" style="shape=image;verticalLabelPosition=bottom;labelBackgroundColor=default;verticalAlign=top;aspect=fixed;imageAspect=0;image=https://static-00.iconduck.com/assets.00/sqlite-icon-2048x909-7nkrc3bm.png;" parent="WIyWlLk6GJQsqaUBKTNV-1" vertex="1">
          <mxGeometry x="466" y="400" width="79.25" height="35.2" as="geometry" />
        </mxCell>
        <mxCell id="O93e6oZrVW3IIz9VdpjF-104" value="" style="shape=image;verticalLabelPosition=bottom;labelBackgroundColor=default;verticalAlign=top;aspect=fixed;imageAspect=0;image=https://upload.wikimedia.org/wikipedia/commons/thumb/c/c3/Python-logo-notext.svg/1869px-Python-logo-notext.svg.png;" parent="WIyWlLk6GJQsqaUBKTNV-1" vertex="1">
          <mxGeometry x="-6" y="650" width="41" height="44.93" as="geometry" />
        </mxCell>
        <mxCell id="O93e6oZrVW3IIz9VdpjF-124" style="edgeStyle=orthogonalEdgeStyle;shape=connector;rounded=0;orthogonalLoop=1;jettySize=auto;html=1;exitX=0.5;exitY=1;exitDx=0;exitDy=0;exitPerimeter=0;labelBackgroundColor=default;strokeColor=default;align=center;verticalAlign=middle;fontFamily=Helvetica;fontSize=11;fontColor=default;endArrow=classic;" parent="WIyWlLk6GJQsqaUBKTNV-1" source="O93e6oZrVW3IIz9VdpjF-123" target="O93e6oZrVW3IIz9VdpjF-87" edge="1">
          <mxGeometry relative="1" as="geometry" />
        </mxCell>
        <mxCell id="O93e6oZrVW3IIz9VdpjF-123" value="Template Criação SQL" style="shape=note;whiteSpace=wrap;html=1;backgroundOutline=1;darkOpacity=0.05;fontFamily=Helvetica;fontSize=14;fontColor=default;size=14;" parent="WIyWlLk6GJQsqaUBKTNV-1" vertex="1">
          <mxGeometry x="470" y="500" width="80" height="55" as="geometry" />
        </mxCell>
        <mxCell id="O93e6oZrVW3IIz9VdpjF-126" style="shape=connector;rounded=0;orthogonalLoop=1;jettySize=auto;html=1;labelBackgroundColor=default;strokeColor=default;align=center;verticalAlign=middle;fontFamily=Helvetica;fontSize=11;fontColor=default;endArrow=classic;" parent="WIyWlLk6GJQsqaUBKTNV-1" source="O93e6oZrVW3IIz9VdpjF-125" target="O93e6oZrVW3IIz9VdpjF-93" edge="1">
          <mxGeometry relative="1" as="geometry" />
        </mxCell>
        <mxCell id="O93e6oZrVW3IIz9VdpjF-125" value="Template Geração&amp;nbsp; Resposta" style="shape=note;whiteSpace=wrap;html=1;backgroundOutline=1;darkOpacity=0.05;fontFamily=Helvetica;fontSize=14;fontColor=default;size=14;" parent="WIyWlLk6GJQsqaUBKTNV-1" vertex="1">
          <mxGeometry x="882.5" y="608" width="75" height="53.5" as="geometry" />
        </mxCell>
        <mxCell id="O93e6oZrVW3IIz9VdpjF-136" value="" style="verticalLabelPosition=bottom;shadow=0;dashed=0;align=center;html=1;verticalAlign=top;strokeWidth=1;shape=mxgraph.mockup.containers.userMale;strokeColor=none;strokeColor2=#008cff;fontFamily=Helvetica;fontSize=11;fontColor=default;" parent="WIyWlLk6GJQsqaUBKTNV-1" vertex="1">
          <mxGeometry y="836.25" width="100" height="100" as="geometry" />
        </mxCell>
        <mxCell id="O93e6oZrVW3IIz9VdpjF-137" value="" style="verticalLabelPosition=bottom;shadow=0;dashed=0;align=center;html=1;verticalAlign=top;strokeWidth=1;shape=mxgraph.mockup.containers.userFemale;strokeColor=none;strokeColor2=#008cff;fontFamily=Helvetica;fontSize=11;fontColor=default;fillColor=default;" parent="WIyWlLk6GJQsqaUBKTNV-1" vertex="1">
          <mxGeometry x="80" y="850" width="100" height="100" as="geometry" />
        </mxCell>
        <mxCell id="O93e6oZrVW3IIz9VdpjF-138" value="" style="html=1;verticalLabelPosition=bottom;align=center;labelBackgroundColor=#ffffff;verticalAlign=top;strokeWidth=2;strokeColor=#0080F0;shadow=0;dashed=0;shape=mxgraph.ios7.icons.chat;fontFamily=Helvetica;fontSize=11;fontColor=default;" parent="WIyWlLk6GJQsqaUBKTNV-1" vertex="1">
          <mxGeometry x="35" y="780" width="100" height="70" as="geometry" />
        </mxCell>
        <mxCell id="O93e6oZrVW3IIz9VdpjF-142" value="" style="shape=image;verticalLabelPosition=bottom;labelBackgroundColor=default;verticalAlign=top;imageAspect=0;image=data:image/png,iVBORw0KGgoAAAANSUhEUgAABSgAAAHQCAYAAACiH4TvAAAAAXNSR0IArs4c6QAAIABJREFUeF7s3Ql85WV9L/7P81vPnn3PZJJJMisMO4xgb2d6iwsVFS3Ulv4t1oWL/u91aa22VyFUrbetFa3aVm69YLFQpa1SrYhLwVp7qSIMM8y+JDOTyb6c5Oy/7bl9fidBVJDJTDIny+fwOp7J5Py29+85ET75Ps9XgA8KUIACFKAABShAAQpQgAIUoAAFKEABClCAAhUSEBU6Lg9LAQpQgAIUoAAFKEABClCAAhSgAAUoQAEKUAAMKDkIKEABClCAAhSgAAUoQAEKUIACFKAABShAgYoJMKCsGD0PTAEKUIACFKAABShAAQpQgAIUoAAFKEABCjCg5BigAAUoQAEKUIACFKAABShAAQpQgAIUoAAFKibAgLJi9DwwBShAAQpQgAIUoAAFKEABClCAAhSgAAUowICSY4ACFKAABShAAQpQgAIUoAAFKEABClCAAhSomAADyorR88AUoAAFKEABClCAAhSgAAUoQAEKUIACFKAAA0qOAQpQgAIUoAAFKEABClCAAhSgAAUoQAEKUKBiAgwoK0bPA1OAAhSgAAUoQAEKUIACFKAABShAAQpQgAIMKDkGKEABClCAAhSgAAUoQAEKUIACFKAABShAgYoJMKCsGD0PTAEKUIACFKAABShAAQpQgAIUoAAFKEABCjCg5BigAAUoQAEKUIACFKAABShAAQpQgAIUoAAFKibAgLJi9DwwBShAAQpQgAIUoAAFKEABClCAAhSgAAUowICSY4ACFKAABShAAQpQgAIUoAAFKEABClCAAhSomAADyorR88AUoAAFKEABClCAAhSgAAUoQAEKUIACFKAAA0qOAQpQgAIUoAAFKEABClCAAhSgAAUoQAEKUKBiAgwoK0bPA1OAAhSgAAUoQAEKUIACFKAABShAAQpQgAIMKDkGKEABClCAAhSgAAUoQAEKUIACFKAABShAgYoJMKCsGD0PTAEKUIACFKAABShAAQpQgAIUoAAFKEABCjCg5BigAAUoQAEKUIACFKAABShAAQpQgAIUoAAFKibAgLJi9DwwBShAAQpQgAIUoAAFKEABClCAAhSgAAUowICSY4ACFKAABShAAQpQgAIUoAAFKEABClCAAhSomAADyorR88AUoAAFKEABClCAAhSgAAUoQAEKUIACFKAAA0qOAQpQgAIUoAAFKEABClCAAhSgAAUoQAEKUKBiAgwoK0bPA1OAAhSgAAUoQAEKUIACFKAABShAAQpQgAIMKDkGKEABClCAAhSgAAUoQAEKUIACFKAABShAgYoJMKCsGD0PTAEKUIACFKAABShAAQpQgAIUoAAFKEABCjCg5BigAAUoQAEKUIACFKAABShAAQpQgAIUoAAFKibAgLJi9DwwBShAAQpQgAIUoAAFKEABClCAAhSgAAUowICSY4ACFKAABShAAQpQgAIUoAAFKEABClCAAhSomAADyorR88AUoAAFKEABClCAAhSgAAUoQAEKUIACFKAAA0qOAQpQgAIUoAAFKEABClCAAhSgAAUoQAEKUKBiAgwoK0bPA1OAAhSgAAUoQAEKUIACFKAABShAAQpQgAIMKDkGKEABClCAAhSgAAUoQAEKUIACFKAABShAgYoJMKCsGD0PTAEKUIACFKAABShAAQpQgAIUoAAFKEABCjCg5BigAAUoQAEKUIACFKAABShAAQpQgAIUoAAFKibAgLJi9DwwBShAAQpQgAIUoAAFKEABClCAAhSgAAUowICSY4ACFKAABShAAQpQgAIUoAAFKEABClCAAhSomAADyorR88AUoAAFKEABClCAAhSgAAUoQAEKUIACFKAAA0qOAQpQgAIUoAAFKEABClCAAhSgAAUoQAEKUKBiAgwoK0bPA1OAAhSgAAUoQAEKUIACFKAABShAAQpQgAIMKDkGKEABClCAAhSgAAUoQAEKUIACFKAABShAgYoJMKCsGD0PTAEKUIACFKAABShAAQpQgAIUoAAFKEABCjCg5BigAAUoQAEKUIACFKAABShAAQpQgAIUoAAFKibAgLJi9DwwBShAAQpQgAIUoAAFKEABClCAAhSgAAUowICSY4ACFKAABShAAQpQgAIUoAAFKEABClCAAhSomAADyorR88AUoAAFKEABClCAAhSgAAUoQAEKUIACFKAAA0qOAQpQgAIUoAAFKEABClCAAhSgAAUoQAEKUKBiAgwoK0bPA1OAAhSgAAUoQAEKUIACFKAABShAAQpQgAIMKDkGKEABClCAAhSgAAUoQAEKUIACFKAABShAgYoJMKCsGD0PTAEKUIACFKAABShAAQpQgAIUoAAFKEABCjCg5BigAAUoQAEKUIACFKAABShAAQpQgAIUoAAFKibAgLJi9DwwBShAAQpQgAIUoAAFKEABClCAAhSgAAUowICSY4ACFKAABShAAQpQgAIUoAAFKEABClCAAhSomAADyorR88AUoAAFKEABClCAAhSgAAUoQAEKUIACFKAAA0qOAQpQgAIUoAAFKEABClCAAhSgAAUoQAEKUKBiAgwoK0bPA1OAAhSgAAUoQAEKUIACFKAABShAAQpQgAIMKDkGKEABClCAAhSgAAUoQAEKUIACFKAABShAgYoJMKCsGD0PTAEKUIACFKAABShAAQpQgAIUoAAFKEABCjCg5BigAAUoQAEKUIACFKAABShAAQpQgAIUoAAFKibAgLJi9DwwBShAAQpQgAIUoAAFKEABClCAAhSgAAUowICSY4ACFKAABShAAQpQgAIUoAAFKEABClCAAhSomAADyorR88AUoAAFKEABClCAAhSgAAUoQAEKUIACFKAAA0qOAQpQgAIUoAAFKEABClCAAhSgAAUoQAEKUKBiAgwoK0bPA1OAAhSgAAUoQAEKUIACFKAABShAAQpQgAIMKDkGKEABClCAAhSgAAUoQAEKUIACFKAABShAgYoJMKCsGD0PTAEKUIACFKAABShAAQpQgAIUoAAFKEABCjCg5BigAAUoQAEKUIACFKAABShAAQpQgAIUoAAFKibAgLJi9DwwBShAAQpQgAIUoAAFKEABClCAAhSgAAUowICSY4ACFKAABShAAQpQgAIUoAAFKEABClCAAhSomAADyorR88AUoAAFKEABClCAAhSgAAUoQAEKUIACFKAAA0qOAQpQgAIUoAAFKEABClCAAhSgAAUoQAEKUKBiAgwoK0bPA1OAAhSgAAUoQAEKUIACFKAABShAAQpQgAIMKDkGKEABClCAAhSgAAUoQAEKUIACFKAABShAgYoJMKCsGD0PTAEKUIACFKAABShAAQpQgAIUoAAFKEABCjCg5BigAAUoQAEKUIACFKAABShAAQpQgAIUoAAFKibAgLJi9DwwBShAAQpQgAIUoAAFKEABClCAAhSgAAUowICSY4ACFKAABShAAQpQgAIUoAAFKEABClCAAhSomAADyorR88AUoAAFKEABClCAAhSgAAUoQAEKUIACFKAAA0qOAQpQgAIUoAAFKEABClCAAhSgAAUoQAEKUKBiAgwoK0bPA1OAAhSgAAUoQAEKUIACFKAABShAAQpQgAIMKDkGKEABClCAAhSgAAUoQAEKUIACFKAABShAgYoJMKCsGD0PTAEKUIACFKAABShAAQpQgAIUoAAFKEABCjCg5BigAAUoQAEKUIACFKAABShAAQpQgAIUoAAFKibAgLJi9DwwBShAAQpQgAIUoAAFKEABClCAAhSgAAUowICSY4ACFKAABShAAQpQgAIUoAAFKEABClCAAhSomAADyorR88AUoAAFKEABClCAAhSgAAUoQAEKUIACFKAAA0qOAQpQgAIUoAAFKEABClCAAhSgAAUoQAEKUKBiAgwoK0bPA1OAAhSgAAUoQAEKUIACFKAABShAAQpQgAIMKDkGKEABClCAAhSgAAUoQAEKUIACFKAABShAgYoJMKCsGD0PTAEKUIACFKAABShAAQpQgAIUoAAFKEABCjCg5BigAAUoQAEKUIACFKAABShAAQpQgAIUoAAFKibAgLJi9DwwBShAAQpQgAIUoAAFKEABClCAAhSgAAUowICSY4ACFKAABShAAQpQgAIUoAAFKEABClCAAhSomAADyorR88AUoAAFKEABClCAAhSgAAUoQAEKUIACFKAAA0qOAQpQgAIUoAAFKEABClCAAudJYGefrM4Bnb6PiwFUaxrWS6AaQKeU6HzOaTz3z889uzSAtADSEJj/80AgMSMC7BYG0glg92N9Qn1vTTzkf3tFJ9zgYgjRCQ3rIUPPakjZCSnUnwEhf+z5C1ngFzLPsRED5S9k+VVgAIE4oZyhabtD767d6pUPClCAAhRYIgEGlEsEy91SgAIUoAAFKEABClCAAmtbYEef7HR87NQ0XCSBi6Ush5LnSSUtBHYLYHcQ4ISmY/cTfeKx83TsJTmMfNdrq5HJ7wyDSIFfRICLfyJ4PNOj/kxAeaYbit2QKsQU350LLneLrt1rJgg+UyW+jwIUoMDZCDCgPBs1bkMBClCAAhSgAAUoQAEKUOCnBC7vkzsDHxcLDa85z2HkGd8LIfCYlPiupuGx5R5YhpWRDnZClyqM3HlWYeTzyZx1QPl8OwtDy92Q+kPQoQLLuWrMM74lfCMFKEABCoTF63xQgAIUoAAFKEABClCAAhSgwIIF1HTtWR+vFRp+UUq89jxWRy74XF9ogzCwDPB5S8djj/fNT3VetN0veEfyLa/YCU2+Bj5eu2iB5E+fxaIGlD+9c7EbQj4G6A+Jrt0rumJ1wTePG1CAAhQ4BwEGlOeAx00pQAEKUIACFKAABShAgbUlMBdK3jJXJblzNV19pcLKZ0PJQN5yXkLeJQ0of2JEDEDiMWj65xlWrqZPCq+FAhRYCgEGlEuhyn1SgAIUoAAFKEABClCAAqtKQE3flhLvlBIqlDxf60hWzHA+rHzyQ+LepTgJ+dZrL4YUr/nPBjTvOu+e5y+gfC7dAKT4JDTtK5wGvhQjivukAAVWugADypV+B3n+FKAABShAAQpQgAIUoMCSCITVkgHeWZEQbUmu6Kx2OqDCSlPgzsWYAh5WS0LeAcjKVZ9WJqD8Mb7EV6Dpn2RV5VmNR25EAQqsUgEGlKv0xvKyKEABClCAAhSgAAUoQIGzE1Ddtz2JdwYS52fK8dmd5nnfSgjcKwQ+v9DmOmH37Wx++QS9lQ4of3znBhDgTtGzd0mqVM/7AOEBKUABCpyDAAPKc8DjphSgAAUoQAEKUIACFKDA6hGYm8Z9x9w07tVzYYt8JaqiUgjc+WJB5bILJucdlk9AOX9GDCoXeYxydxSgwMoTYEC58u4Zz5gCFKAABShAAQpQgAIUWEQBVTHpStzDYHJhqC8UVC7bYHL5BpQMKhc29PhuClBgFQowoFyFN5WXRAEKUIACFKAABShAAQq8uEC4xqTEHZBhoxY+zlJATf2eX6NSvvXl74SUfee98c1Czn35VVD+9NmzonIh95PvpQAFVoUAA8pVcRt5ERSgAAUoQAEKUIACFKDAQgQuvV01aqlAB+mFnOQKeu9lzh782dSd6WSQXf4dzpd/QDl/5wcg9F3s+r2CPgg8VQpQ4KwFGFCeNR03pAAFKEABClCAAhSgAAVWmoBaZzIIcA+AzpV27svxfFv9UfzOzF9iZ/H/LsfTe/5zWjkBZfn8Je6Fpt/JoHLlDDGeKQUosHABBpQLN+MWFKAABShAAQpQgAIUoMAKE+B07sW/Yb+R+zLelrkPySC3+Dtfyj2utICybMFp30s5JrhvClCg4gIMKCt+C3gCFKAABShAAQpQgAIUoMBSCrBqcnF1VdVkX/pjuKy0Z3F3fL72tjIDyrIOqynP1yjhcShAgfMswIDyPIPzcBSgAAUoQAEKUIACFKDA+RFg1eTiO6/YqsnnUqzkgLJ8Haqa8t2iZ+9XFv8Oc48UoAAFKiPAgLIy7jwqBShAAQpQgAIUoAAFKLCEAlf0yYv9AF/mWpOLg5yUOdw6ex9+PadIV/hj5QeU5RsgRJ/o2nPnCr8bPH0KUIAC5R9pdKAABShAAQpQgAIUoAAFKLCaBC67Xb5TAn0Aln9H6RUAr6Z0f3bivVCvq+KxWgLK8n/S74bQbmADnVUxMnkRFFjTAgwo1/Tt58VTgAIUoAAFKEABClBgdQlceoe8CxLvWl1XVbmruT7/LfzO7F+uvEY4P49sVQWU4YUOQAQ3iK59uys3UnhkClCAAucmwIDy3Py4NQUoQAEKUIACSyQgpQz/PeXOO+8MX++4447/LIhSM9pE+LocHxIwBeAux3PjOVFgtQvs6JOdboAvS+Di1X6t5+v6bs18IezSveoeqy+gLN8iKd4tuvd8YtXdL14QBSiwJgQYUK6J28yLpAAFKEABCixPgb6+Pu1Vr3qV/q//etxwqzJGY22tPnx6Vs/M+pqlS7MoTaMkc5o6+7hl+7IYcUp2xu9uafNHJ9O+sKu8G1+6wdu6dasnhAgqfZUS6AAwzJCy0neCx19rAiqcdAI8yvUmF+/Oqy7dqnpyVT5Wa0CpbhbXpVyVQ5YXRYG1IMCAci3cZV4jBShAAQpQYJkIqKrIhx9+2No7PGz5hRorX5hM1dRVt6TT2Q5HorUmHmuZzhQaM/lilSZEvFTyIr6Umlo12zJ1T4fIazqyDTVVU8WSM1zySiMdLbUnc/lgwMkUJ6SdLl7V01P6wQ9+4Pb19VU8sFwm7DwNCqxqgblmOCqc5HqTi3CnVTOcuyfei43usUXY2zLdxWoOKBW5xL2ie++blqk+T4sCFKDA8wowoOTAoAAFVryACjzUFNA77ihfyp13lqeCLudpoCsenRdAgQUIqM/ovffea6dRHRmZGUs1Jmp7p7OF7a4nL5yYmd2YKXjrXdetczwZ8XwphKZD0zRomoAQ6lUVUEoEUqoXSCnheR40IWAZIjB1LRux9MHqZPRI1BDP1KSST5X84l67xhi/qKYm/8pXvtLhz4MF3DC+lQIrSOCy2+VvSUBNaWU4uQj3bdU1w3khk9UeUIbXHTbP2SW6dqcXYWhwFxSgAAWWXIAB5ZIT8wAUoMBiCvT17TTWr4fR2mrpVb6uu9OabiaKVknqFrSi4bqBiix8LRKU7JztaAnNM/wxb0xv9LPZhHfTTQ/6i3k+3BcFKPDCAn19fca6dZdET+bGqjQjcZHvypcMTUy9ZCZXuiBfcusDaJphmLAsC5ZpQP3Z0A1ougooy+Fk+J9Y4ass/yMlZCARBBJ+EMDzfbiuC8/z4XoupO8hYujZVFQ71FAVfzwZ1b4H4T5+Re+6iZe97GWF5TANnGOGAhRYHIG5cPLexdkb97Jmwkl1q9dEQMmQkp9qClBgZQkwoFxZ94tnS4E1KfDEZy8zMzVJOxlFJF/yWw2pdwRAm2HqTcIQDRKiWgZ+TAMsQEA3NFcCJamJjPD88WLBOw2BU1ogThU8fdgJrAJqUXrlK69yheAU0DU5qHjRSyrwhJTmt+6/PzE+UuiMCGPndCZ/7eh07qqCE1TrpqVF7Qii0QhsyyqHkoYJXYWSug49DCjnqiaFmtld/lcV1RVHBgGCsIIyQBAE8H0fflB+Bp4KKz14roeS46BUcuA6RVjCz9ZXRZ5c15R62BDawxDawPvedmOGQeWSDgHunAJLLsBwcnGJ11Q4uaYCSoaUi/tJ4d4oQIGlFGBAuZS63DcFKHDWAmpK6P998OpIybPjtuFvgGFdYWq4MoDYpvuy3YBWHamxLbPKEiq6cIsO1CxQ0zZhmDo0o/zjzSl4yE4XHafkzXg+TvuudzSQ4kAAuccruQciRmK4CqnstpsedM76ZLkhBSgQCnz2s0+YfuJQwvGT2yanp64/Ojj1ypm8t1nTTTMRjyEWi8G2bVimDctSTwumeprloLJcOalCSl116gaEFgaT6n/U9G5VPamCycAPwlBSVU+qkFIFk77nwfNcuOrVdeH7bhhWFool5HM5BF4R1VHtmcaE9U/JROLv29bHjv72q1+d5dRvDl4KrDwBhpOLe8/WXDi55gJKhpSL+4nh3ihAgaUSYEC5VLLcLwUocNYCT/RdFjOarJp83LpaN8XLDQ0vNUy92zB1QysKaB5gJ01YLVHoMQG/4Ko5oLCrLBi2DoSzQsMyK3hugPxsCaWiB8/x4ToBPCeA63gZtySPeX7wuC/lN4LAebw6401dfuuP3LM+cW5IgTUqIKXUPvWphxPjpZEtZizyukMnxm6YzrtdkWjMSMUTiEZjiEQiiERjiEajiESjsFVAqcJKVUWppnfrBkS47mT5Gahp3eWPcblicu7VU9O7w1AyKFdNhsFkEE7vVsGko6Z7uw5ctwTXceb+3kGx5CCbzcAtZlEbxTOdjYkHkgnj7zY115y+7rrrSmv01vGyKbDiBBhOLu4tW5Ph5JoMKBlSLu4nh3ujAAWWQoAB5VKocp8UoMBZCTzat9NAJlNt1+jXapbxa0bc2GkaImUKTRhxHYahw4josBttaAkdshRAFnwgAKxqE1azHVZOlgMNtU5dABkgXKsuCADP9eGWfJTyHgoFF07RR6nowyl548Wi/y3X874wnTMev/nt/zZ9VhfAjSiwBgW+9O//Hh08Ntg2NpZ7ff/p6ZszJX9LNJYwqquqEIsnEI9FEVev8TjiiThiYUhph9XOlqk+10b4udV0teakKFdMzq846QNhIKmqJtWak3557Unpy/Lfq1df/b0KKgO4rh9WTaqQUk3zdpwSnPC1CNcpB5bFYhGZ2Vl4hRnZmBL/2lVf/dktHclvvepVr5pkNeUaHMC85BUlMNet+6kVddLL+GRVt+77x26DCinX3GPNrEH5M3f2MbFh7641d795wRSgwIoQYEC5Im4TT5ICq1/gibddZnopY0vg+rfpJXGT7qNG04Wwa0wYCR16RIOZMmG32bAaTAhPQHoSRkqHUWdCi2jlcFL9VAue46Wmic7/VQD4gQxDykK2hGLOQ7HgopDzkM97yBW8E4Vi8Lmc591z81seP82wYvWPO17h2QuoBjip9vZUyU/811Oj6bcMTub+i2XHIlVVVUgmkkgkUkilUqiuUq8JxJNRxGImohHVFEeDqatQcq7gGRKqe5X6fKrKyDBoVBXPqjrSceF7fjiFW70GMpj7JYRKMdUU8LlqS+gIpEAADZ4v4Kj9OMHcepQllEqqkrqIUkmFlUUU8nmk01Mw/ZmJ7ubkF5ri2l+asth/6623sor67IcFt6TAkgns6JOdTgAVTrJb9yIpPzD+dmx0jy3S3lbYbtZuQKlmJ9wruve+aYXdMZ4uBSiwBgQYUK6Bm8xLpMByF/jSjTfqtQ1HLo0WtQ+ZM/IXRS6IIBNAj2qwWi3oKQNGUodRbSLSZiPSEYFmaxC2BrvJAhIaRKCWopSqR07YUiNsqKG6/85dvKqkLP/dXPdfNc1bBZV5D/mci2zWRSZ8Ok6u4D9Q9PQ/euNbf/kom+gs99HD86uEwKP9/ZEnvvdUz8xU9pZ9/aNvlHq0rrq6RlNhZDJZhZqaatTWqmcS1VUxpOI6ohEdlg6YagmGcOXY8mfR9QIUHR/5ootCoYBivoBiLo+SehbycItFeE4RvuMh8L2wOjr8XGtC9QCHZhjQLRuaaUGzotDNCDTDBgwbgbDgSwOOL+G4AYqlEopF9SyiVCyEz5mZNAoz41hXLb5dmzQ+1tuU+P5NN92UrYQrj0kBCjy/wFw4+SiAThotjsDvzvwVfj335cXZ2Urcy1oOKNX9EqJPdO25cyXeOp4zBSiwegUYUK7ee8sro8CKEfiPG7d3+dA/qeWDa7VsEBGFAMIS0JMG9LgeBpWamuJdYyKxLY5IbwxaRECL6YDq3a2yCr2cTKqKLLUepfpCiLkgY15ClqePqmBEZZlq2qgKKVX1ZDbnYjbjYmbWweysi0zR/ftCTn54ZCq2r6/vMW/FYPJEKbCEAqp51R/f/WAqaui/9MyJkf8+nHauTlVV27XVtUhVVaG2pgaNjXVoaEihviaK2riOuC1ga4CulpRUSy4gQFGtDev4yOZLyMzmMJueQWY6jezUJArpaTiZGZSyGTh5FVAW4DslBJ4KKH2oT3W5f44GoatwUq09a8OIRmHG47BiCViJJKx4CkY0GT6FEUdg2PClhVIYVKqp3iUUioXwmctmkJ4Yge1NH9nUXvO/Lulp+sorXvGKqSWk5K4pQIEzFNjZJ6tny5WTDCfP0OzF3nZr5gt4W+a+F3vb6v7+Wg8o1d3VxS1i/Z7Pr+4bzaujAAVWkgADypV0t3iuFFiFAvfs3BnpMcbvMIX2di0QKeEBmqGe5QYZelKDHjegJ3QYjSZiW+LQOy2UIJEveAg8GU4XjcQNmBENuqXDtNV0b60cVqoqqzDBLIeW8wvchetUIgjXrnNcHzkVUmZdzM46mJl1Ma1Cypz79XxR9kWjwe5b2TxnFY4+XtJCBB599FHjB8dHGtMzzi2HT038t0CPttXV1mnVNTWoq61DU1M9Wppr0FofRX3CQMIELO3HPas8KVFwfMzmS5jK5DA1MY3psTHMjI4gNzYahpPF6SmUVDiZy8EplteNVE1wwqnd6hNb/uCGFZQqpFRdv1XHb9Vgx1DdwFVIqTqFJ5Owq6phV1UhUlWLSKoWkWQtjHgKMJPwhYWSL1AoOsjni2HlZi6fw/TECPTc+MTmjuRdmza2fe41v/zLa3BhtoWMCr6XAksvcOkd8i5IvGvpj7Q2jrCz+O/4sykWzoEBpRrwaYhgl+jat3ttjH5eJQUosNwFGFAu9zvE86PAKhZQOcP3dl34XwwpP6dbWpduaJpmqUBRQLoyXHdST+oQqnmGLmCus+F1mTgyk8fuA2kMnMrB83y0NUVx2fY69PYmEa9SIYUOO2rAsDUY5nxQqUFoqoJShP+ElZRzzXT8QDXV8NUalOE0b1VFOR0+w5Dy21lHfmAgiifvZki5ikejzhVkAAAgAElEQVQjL+3nCdxzzz2RE2m5Ne+J/3F0aOZX7XhVvL6uHiqcbGpswLq2eqxrSaG5SkeVKWDPL7UgAV9K5FwfMzkH41NpjA2NYHLoNNKDpzA7MoTcxBjy6TTymVkUCwWUPA+O78OVEqp02Ve/VxBauLRs+LkV5U+wUD9A1C8xIGFICVVEbQkNlqbBtixYqnN4IoFIbS0iNTWI1TUgXteASFU9zHgtRLQKUovA8RFWcuZyKqTMY3JiFG76dPbCztpPtbfEP/3rr3nNEEcHBShQGYFLb5d3/OeR+ypz9NV3VNUM5/7x25AMcqvv4hZ6RQwo58UGIPRLRNfu9EIJ+X4KUIACiy3AgHKxRbk/ClDgjAX23bjNmhnX/lhYeLNm6UkVKOqWiicBEUBqUU0IQyBwAmhVOoqdJr49MIV//M4QjpzMwpMWhK5DuAX0rk/gDb/SjpfuqEcsacCOmYjEDFhRHbop5ioqVcmVgFCddMJiynJVpZQBPN9FyfORK3qYyXlIq4ByZq6SMu99K1PS/qeejT/F6d5nfHv5xlUi8KUvfSlxMiN+Yffh0+/PONqO2toGq66+HnV1dWhta8KG9hp0NERQHxGIqI/YXFMqtb5k0Q+QzpUwOpHGyOAgRgcGMDXQHwaT2dFRZGbSYShY8FwUgwCOEPB1Hb6m5oTrkGoat/rMCm2ubLKcUqplGtQjXFs2UPPGA4gggBYE0IMAZhDAgkRU0xC1I4jEE4hUVSPWWI9EQyNi9c2I1zQhUtUAEakK16rMl1R1ZwG5XA4TY6MoTJ0qXtBV88mtbdWf+JVf+ZWRVXI7eRkUWDEC7Ni9uLdqTXfsfj5KBpTPVWFn78X9uHFvFKDAWQowoDxLOG5GAQqcu8D3XnrhBt32HxS2vl03dUM1vgkDSg1SVUzC0ATcADKuQfTa+JcTU/jMgwM4OZxDNGrj2l++Fps3b8HDD38de/YdxKZ1UfyP/68bl2yrgRERsKIm7LgOK6KmfevQdA2aCjvCrKMcTmqaWo9SwlUhpQzCkCRb8DCTdTGVcZ8NKWdz/tdKRfk+23nqYF/fT/QJP3cI7oECy1BArTd55733VllF88YDJ6ffU/Tt3tqGel1N525uakJnZyO6W1Noq9KRnJvKHVY4BoATSMwWSxifzuD0qUEMHTmKieNHkT51IpzSPTszi2yxiELgw1Efc92ANHXAMMJfOqhp27rq8i3Kz3LN5NwKsmr9WFleR1YGaqGG8tRvlVOqXzaoYBReAOF7MHwflu8jBiBqmIjF44jX1iDa1IR4YxNSTa2I1bSEVZXCSqLkiXAKeiabx8T4KPKTA8WtbVV/srWz/tPXXXfd+DK8TTwlCqxKATbFWfzbuuab4vw0KQPKnxSR4t2ie88nFn/kcY8UoAAFzlyAAeWZW/GdFKDAIgt8/JoLLr8wKr4oTdEZMaDZtoAW0SAMXUoDQggBaQOy3cSUHeBTf9+P7/5oMmyUUVWVwttuewde9rJX4K/+4tN46J++CqdYwk2vaMMtr+tALKqaZ2iwogbscMq3DiNiwDC0MPgo99FR08lluDylCicdWZ5WmvMDZPIe0rlySJmecTE16yGb9+/2Yd7xp7/3Q1ZTLfJY4O6Wl4CUUrv7ga/V9o9O3Xbk1OT/b0SrGxobmkR9fT3a2prR21WPnqYo6m0Bc246t5qCrcLBvBtgYiaL04PDOH3kCEaOHMLUiX5MDQ9jJj2NTKGAfCDhGDoC0wAsE4ZhwjR1mHOfT11o5UY4KoSc+zcVte/yM4AfqICyHEaW/zxfUynC3x6EgaX6uyCA9AJoroeI7yEmgaRpIpaII1ZXh1hLC5JNLUg1tCLR0AYrUQsXJjIFVUWdxfjIEAqTA7OXdDfd0dvRcM+11147s7zuFM+GAqtT4LI75D1S4pbVeXXn/6quz38Tfek/O/8HXs5HZED5s3dHyF2i65nHlvNt47lRgAKrW4AB5eq+v7w6CixbgZ07d0YiXumVm2L6J4QI2muFr3WaDtqiPmKmBl8XkJaAV6NDazVwZCyPT31xAIMTbjiBVIWXF1y4HZs2bcaep5/GgQP7USh6eOmldXjPb3WjttoKp4aapgYrVq6itOMmInETmlmeRh7OGS3P+oaQAUpqLcogCKu6smrNvIKPdNYL16JUz5mMm81kvf+ZMd17/s/7DmWWLS5PjALnIKCa4QxN+R0HT42888Dg9C3RRG2qoaEBDY0N6OxowabOWnTVGUipCse546iiRdeXmCmUMDw2iRNHj2LowAGMHT2CqVOnMD05iUwhh5yUKBo6pGVBs1QoacK2dFiGHv7ywJirntRUh6tyq+7wsy5leSkGPwwnA/heANdz4TgePM+F67oIAtXhu/xQ24Sl2BDlsNJXZZc+dBVUeh4SAJKWjXhNNaKNDUi0tKG6tQ1VjesQr25CYEQwm3fDkHJkeAjO9Knhra3V737V1q6HunbtKp4DLzelAAVeRODSD8pbIHAPoRZHQK07+dmJ90K98vEcAQaUzzccuB4lPyQUoEBFBRhQVpSfB6fA2hTYvn17PJ6K77KisfeakehVEUO3bV0gKV2sD9K4OJpFdQxwkzq8ag1WtYG9x2bxV18+hbxnwzSNsJmG7/thEKFeVaffQsHHL1xRj/ff2ouGaisMH8MqyogeVlJaak1KFVAaqr13+aGCFRWEGJoM16HMO27YaTjn+Zh1PMyoSsqMj+mMF073nsm5hwvF4NZf2rTlezfd9KC/Nu8gr3q1Cnz2iSdM//DpLccGJ99/dCjzmtq6plhDYxOam5vQ3d2Mreuq0J7QYM8tCTk/pbvg+2HV5KmTp3Fi/36MHNiH8YEBTI6OYDqdRtbzUTJ0+LYFzbZg2yYilgHbNGDbFkzVgduyoWuq5Q1UCCk9z/E91wuklIFU4aNU1ZKBkBKaphJMoallJ4X6EHquj2LJQankwCkVw7BS/WxQyzqU169UAaeq8AwAz4fpuYh7Pqp0HfF4AtGGesRbmlHV2oG6tg6kGlogzDhm8j6mZjIYHDiOmJzZc1FX+6033/y6HwghVKEmHxSgwCILcGr3IoP+5+760h/D9flvLf6OV/oeGVA+/x2U+ITo3vvulX57ef4UoMDKFGBAuTLvG8+aAitW4Jprrkl6gXdjxI6+N56I9xqWqYWdeA1dxGtqIAIPm7UBXFg/CyOuIbA0xOMGjp3O4xP3H0e6YKGqKgnXcVAoFOC4blgNqUKN2dkibrqhHb//js1IxHSVYsCI6DAsHXpEh2apjt7l9ezKa9aJ8pRRKaBrav06F1nXQb7gIeu4yBY9zBb88BkGlLMeZmZd5PL+g/mc/J17PvLMqRV7I3jiFPgpga9//ev2t5/sv6wQaLePZ/GLNXUNkYb6JrS2tWDThiZsbo+hOaLBmPs3h3KQKMPPyejUFPoPH8WpZ/Zi+OAhTJw6ienJCcwUi8gLAccyIcJg0kI0YiIasRCLRGFHozBMG770pee6TiGfK3lO0RFCZC3TnAp8Oen53mzUNl1IH5lcwdYMIyUg6wv5Yp3ruXFAtw3LsnQzYkjNgOP5yOeL4S8xPNeBqpdWPwNUUKlCS/VLicAPoHkeop6LKjXtOxJFrLYWsdZmVLevQ/26TtQ0tkGzE2HTrLHJGQwNHEZHnf33mzrq3vPa176Wn31+giiwBAKc2r24qJza/XM8GVC+MA6nei/uB5F7owAFzliAAeUZU/GNFKDAuQqocDIQwRt1w3hfxI622balqaBwemoahXwemzZvwvruXujFU7i0/igaayXMqIF40gzXhvz4547g29+bRl19HWzLhB/4YfWkChmzmQI0UcDtf3ABfu1166Gryik1BVVN51bp4/xPu7mSr/mmGmrqp9peC/tqBMh7DvLeXECpgspiOaCcyflIZ1RA6WE26xXzefkRH/qn7+3bnT5XF25PgUoL9Pf3R779w8NXf+c/nvmQp8evaGhoNhuamtC+rgVbe5qwsclGnaEa1pR/GaCebiAxkyth8PQIBvbvD8PJ0aNHMH76NNIzaWQCH0XV/CZiw4ioYFKFkhaSiRhiiRR000apWHCymZmCFnjTuqYdaGhs3hOxY/uamur6r7zmF4dc101///vfL+VyubBa+dixY/rNN99sR6Na3Y/+Y3dr0Sv0DJ8+fcHYyNBl6XR6YyC1lBVLRnQjItwAyBcKyGVzCHwvXN/SMAxAdQifWy8Tngfb9VAVBEiZFmK1NYg3NyK1rgON67pQ19IO3YpjOudgeHQCoycPeRd1N9++fevGz+zYsWO20veNx6fAahLg1O7FvZuc2v0ingwofx4Qp3ov7seRe6MABc5QgAHlGULxbRSgwLkJqGndiVTiZmFot1um1aLrumboBhzXweT4JLKZLDZv3Yztl14BwxvHlesOYcMGgVjKDEPKZNLA4z+awof/eC8OHXGQqkohGrUAaCgVHWRnZ3D9qxrx/vdtQ1trPFx7Tq1BOb/WZKB6/aouv+VWv2HCEk7vnlvPLvACeIFEwXOR931kfS9ch1IFlGFImfcxm/Uxk/Uxm/GRybojpaK8NTYWefjuu3+kFsbkgwIrUuCrX30iNpIbvfYHB0/dnnGM7fUNzYaa1r2+sxUXdNejp95Ecm69yXBes1RdugNMzOZxon8A/Xv2Ymj/PowdO4bx0VHM5HPICYGSZUFELEQiJuIRG6lkAsnqKpimjXwuV8xnZrKGjr0tLW3f3bZp2796hrHnjW984/RCp0+rbuNfe/DB1hPDg5fv37PnZf0njl/ruF6bHonHTDsBJxDIZ7Mo5HLQNAlLrX+p6+Up36qRjur0rUJK1XxLNdCprgq7fNesW4fmrg2ob1kHqUcwlS3i1MlBuLOjA9s3d/12a2Pt93bt2uWtyJvOk6bAMhPg1O7FvyGc2s2A8pxGlRR3iu49fee0D25MAQpQYIECDCgXCMa3U4ACCxd45Stfaacz6dfpuv5h3TQ7LcPQyo0vVIdeGQaM6uuurk7UNbQggjG84sph9GwyYEZNaJqAYYqwAupf/20Uf33vMezZk0GxVO7GnYgL/NKuBrzj7ZvRs7FK9dAJ16ub75ihKiTVP2paZ9jtVyWTqumG+nv19CV8N4DjeShJH0UEyAdeuAZlpuQjo0LKgo9sPsBsPkBGBZQZH4W8908wjbf/zQeePr1wFW5BgcoL/M0jj8Snh2av/+HBkQ+6WmxTU3Or3tTcjA0bWnFBVy26agzE5gqQVTipPlYFL8DYZBr9R47g5J49YTOcEbXe5NgYZtQSCboOP2LBiNhh1WQqEUNNTS3iyRRKpWJpdnoyY1nG9zvX93xlQ3v7d/REYuimm25alPVc+/r6DCndy4dOnbpxoP/Y60uu32LHqi3NjoXrU+ay2bCa0jJ1aLoR/vxQ/XOk58PyPKQ8F9WGhVh1Kgwpa9d3oHVDD+qbW+HBxFg6h2NHDqKzMflAW0P177z+9a8frvxd5BlQYOULXHqHvAsS71r5V7I8rmCjewwPjL99eZzMcj0LVlC+2J1JQ+iXiK7dAy/2Rn6fAhSgwGIJMKBcLEnuhwIUeF6Bvr4+7Rvf+cZLNM34c8s0thuGYahGGKrHherCq4JJ1ck3Fo8jmUxBChOtVVO44dosOjbY0A0tXEtSzcrUdSBi6xgaKuCHT05h4EQ2DC83bUrh6h2NSNVHwrQhUFFHuMZkOaQMQ8nwa1VBWe7oGwaTnh+Gk2ElleoKHPgIdIGSFiDne5gpuZgqlDBb9FEoBsgWZBhSZnM+srkA+ZzMF5zgXTnN+tuv9v0ozyFAgZUkoMLJ8dOZG350ePiDMFPdTU0tenNLC7o3tOKiriqsS+qwnhNOqo9T3vEwPDaBo/sO4OSe3Rg5dBhjp05icmoaGd9HwTQQRCxYEQuJWAQ11VWobWiEgBZMT47NanCf6N2w5f6GtravnTx5crKvr29Jms1IKbW//fzndj3yyMO3HT8+sEuzY7XRZC0kdOSyGbilglr3NpzyHRZSPxtSukh5PqrVdO/qFGLNTWjo6kJbdw9q6xtQ8ARODo1hcmggu2Vjx20dLS1/v4tdvVfSsOe5LkOBuerJ/mV4aiv2lL46+kZ27X6xu8eA8sWE1PcfExv27jqTN/I9FKAABRZDgAHlYihyHxSgwAsKXPlfr6wzPOMTumG8zjasmG4aYWddQzPg+2patQtTN2FHIohEoxDCwEWdk3j5L7mob4nCMDRYpoZw1Tit3MxGhZSq4U04fztMLjW1gCQCR1VIClVAGSYOQTinu7yd+svyupPlgNJ3JfyCi8Dx50LMAJ4MEJgCjgbkpYcZ18NUsYR03kO+FCBflMgXAuTyEvm8asQhVcOcH+QD8ZZL9L37+vrKh+aDAstd4G/+5pH4YHbyV/f0j99uxGo6m5tbtZaWVvT0tGD7+hTa4hrM56w3qT472aKLwaERHNv7DE7u2Yvhw4cwNjiIqdkZZCHDKd2I2LAjFqqScTQ0NCBVU4d8draYm50+WZ1K3d/Z0/mF5ubOgcWqmHwx52984xst3/3Ow2/+weOP35p3ZVusukEYVgyFXAbFQh6GrkFX071Vw58wpPQQCad7B6iyTERqqpBoaUFT9was7+lGoqoGU9kSjh49jqqI+E5rY91b3vCGN5wQQrX64oMCFDgbATbGORu1F96GjXHO0JMB5ZlBsWHOmTnxXRSgwKIIMKBcFEbuhAIUeD4BVT35zW9+8zeEKf7MMM0G07SEZZrQTB2Grp4WICR0ocG0VbARg/RcXLp+EC+5wkV1UxyxmBF24DXUepLqKcp5o6qcVE1wVIWl0DS1m3Aadzize24a93wF5XxnD5VXBp4M15pUwaSnAsqSF65NqdaoDDQJV5Mo6hK5wEfG8zDjuEgXygFlsQgUHIlCUaJQUF+roDJAqRD8meN7H/3yRw9OciRQYLkLqMrJgaPDr99/YuYOK1bb2dTSprW0tmJTbwu2dyTQEtGgz/3bgUrcVTiZzpVw8tQgjj+9B6f27sXI0aMYHRrCdC4brjfp2CY02w7Xha2tqUJLSxtMKyJV1aSQpcc2b9r0maq61u+96U1vKp5vH1VN+dE//MDNj/3Lo38wlStuTNY0aZF4MuzyXchloWsyXJMyUL/cCAIIz0fUK69JmVS/OKmrQaqtFR2berG+qxPCsjE4msbpE/3O1k0b3tHZ0fG3V199deF8XxePR4HVIHB5n9wZBHh0NVzLcrkGVk+e4Z1gQHmGUKyiPFMovo8CFDh3AQaU527IPVCAAi8gsHPnzupSULpb14xXGaYRNQ0Tlm3BtCwYhg7LtGCaFjRDRzjtWzXNKZWwreEEXrK9hNrmOGJVqrpSTcXUyh25NRGGk2FAOffUVUAZ/nkuoAyC8tTtQMJXBZJ+UK6cVE9XwnMDSMcP16RUVZjqB6GqtvTVephagCwCzPhOeQ1Kx0fW8VFyJIrhEyiWJJySDAPLYiFAoeCPOK58W11H5Bt338qGOfxALF+Brz7xROzoM/03/Me+oTuteF1Xc0u71tLegq29rbhwXQyN9k+Gk34gMZ0roP/4CfQ//TQGn9mL4aPHMDYyjLTqkK3r8GwLesRCPGqjqakBTS3r4PueNzl8aiQVi97b3rP57ve85z2nF9r8ZrEV7777U6/+6j/844eGJqYvSNS0aIlUDUqFHPK5zNwvPTR4armHIIDueYi7LqqlQCIehd1Qh/rODvRs3ojGlmbkHIlDh48jGbO+2bGu7S2vfe1rTy32+XJ/FFgLApfeLtXU7s61cK3n4xpZPbkAZQaUZ47FKsozt+I7KUCBcxJgQHlOfNyYAhT4eQJXXn3lL+mG8Tld1zsMw9DUWpPzAaVtlcNJtQacql5SP4xUSFlwAqyLnsSuC7Kob4kgVm3BjuowVHCipnqr6eGGCig1IHwV0NTWWnm2tyqxlF65GY56qCnfqgGOV/TgFj14pSD8vgoh1LxOTe3DEJAa4CIIqydnAxdpz8FMyUO25KPg+ii5QEmFk46E4wKuCzglhFWUjhPAKQX/rLn+O+7/yIETHBUUWI4Cjz7aHzkxeehXvv3Dox/RYjU9TS1tent761w4GUWDpYVBnXqoykk3CDA5m0f/0ePo3/0UTu/bj+HjKpwcxYxTQsHQ4Vk2jKiFZCKK1pZWNDS3IDuTLubSU3s3buz9ZKNhf+WN731vbrl43Pe5u1993333/MnkTGFjqqFdpKprUMhmkM/Nhuvhqh8invrFReDD9HykXA8pTUM0mUCsuRHtG7vRs7kbsWQKQ6PTOH16MHvhtm1vtm37oeuuu660XK6T50GBlSBw6QflLRC4ZyWc60o5R1ZPLuBOMaBcABarKBeCxfdSgAJnL8CA8uztuCUFKPAiAlddc9X7dV1/n6bp1YZphM1wnjegVBWQQjXBMeB4ArozjF/ePIGudToiSRN23AwDSsPSYJhaOK1bN9QGApp6QlVPlish1f/KoFwxqR4q0FRZpe8EKOVcuHk3rKgU6h81L1wDpCYQGIBvAq4BTHsOpkolpIsu8o6PotrWAxxPhZEqnBRhSOmpoFIFliq4LPol3xHvtwr43/d9bM+yCWQ4SCmgBJ544gnz+Gh258OPH/hTV0tsa21tN9o62rFtYwsubI+iXoX/z1lz0vUDTMzM4uihoxh46imc3r8fw/0DmJgYD5c9CJvh2KpTt4mqVBzr1nWguq4R6YnhjCwWHm1pb/uTns0X/vCmm25yltsd+OQf3flbX/na1z6SLsm2+uZ1SCSrkJ2ZCqspFYL60RFO9fYDRNRUb9dD0rZhVSdRs64d3ds2oqNrXfgz4dDhY2hoqP98Q0PT715//fUTy+1aeT4UWM4CrJ5c3LvD6skFejKgXBgYqygX5sV3U4ACZyXAgPKs2LgRBShwJgJXXnPlFwzdfJ2ua1EVPhqWAcuyYVkqqLTDad6GXq6gVNO0DbU+pW5gcnICF9UN4pqtASIJE2bUgBHRYM4HlKYO3SyvQanp5fUo5yu/yi15VcAg4Xt+uY+OoYfrTKqp3aoxjgooVZOdcP1KHeWp3Qjg6BIlA8j6LtJFB1MFF9mSG07vdjzAUwGlK+B5gOuVX1VI6bkqpJRqLcpnfB+3bNP3PsWGOWcyQvie8yHQ19dn1Hdtv+KJI4Mfc7WqK1rbOsz2jnW4YGMLLlDhpKVC/nI/KfV0PB9j0zM4dugwBp7a/eNwcnICs76PovHjTt01NSl0rO9CPFUtxwdPzNTXpe7fuKXrLttu6D9fjXAWaiil1P/og+/74EP//PV3+naquqW9GxHbwszkKEqlYvibjnIzrQC67yOhmuZIIBqLINJQh9beLmy9oBfJqmqcHB7DTHpmYF3n+l8DzB8t12teqBHfT4GlFuDak4svzOrJBZoyoFwgGKsoFwrG91OAAgsXYEC5cDNuQQEKnKHAVddc9V1dN67Wdc1QnXJVAKmmdVsR9WpC08oBZVgRqevh91Ql5MkTI4j7p/GGX9DRXG+GYeJ8BWX4XlMPp2WrKsowpFTTu8OfZqoustwsR4WU4dqTngwrJVVIWZ7+7UNICV01ArENwBJhQJn3fMz6DrKBh5zvI+d6yJUCZEseio4P11cBZfnphq8Cvnqq4FM13nFQnupd9D+ticidD/T9iNVUZzhO+LalE1ANYu79h69t/MH+U3fNuJGdre1dkbb2Nmzb3IqLwnBS+4lwsuQFGJ2cwrEDBzHw9B4M7T+A4YF+jE9OIhMEKJoGpKomjJior69F54Ze9VkOxgaPTyRjkb/obO749Dt+//enlntX63379jX/yR++/+49B/tfEa9tNds6uuGW8khPjMILvHLVtaq0ljKsokyqKkpdg5lKoLq9FZsv3Ij1Xe3hLzCOHR8M1q3v/N3a+qa7X/7yl7N6eumGM/e8igQuu0M+KiV2rqJLquilsHryLPgZUC4cjVWUCzfjFhSgwIIEGFAuiItvpgAFFiKw4+ode4WubVXrT6oAUjd0mKp6UjXJ0Y2w+7ZaS1LXVTWjEVZUZmczGOg/Ba9UxOtfauOazXrYHKf8FOVmOWrdSLWNPl9FORdSzq1FqWZuq5hShQvha1Ce6q32EX6t5pOrqrGoBlgaPA0o+B4mS0WkSyVkHA8FL4ATSJTcIHyqYFI13CmHlAKeX/7a94Vari782i03zxnzPbw11WI+zIY5CxktfO9SCHzzm//W+q2nD3309Ezwq80tXbFwWvfmNlykGuL81JqTqnJyZHIaR/cfxMBTT+L0gYMYHjiBiempuXDSBCIW7IiFpsYGrO/uVZ8nb2r4xMmO9va7Gts6P//mN785sxTXsRT7/NpXvvjyT378rr8azzrrW9ZvFPUNzZgeHwqne6s1ONUvH9SHW/cDxNValH4QVlFG66rRvqlcRRmNJ3Bs4BSsWPIf43rk7b/x1reOLsW5cp8UWE0CO/pkpxNANcfhY5EEWD15FpAMKM8CjVWUZ4PGbShAgTMXYEB55lZ8JwUosECBHdfsOCo0bYNu6CKsoJyrolTrURpaOaAMM8Ww8Y0Bp1jCyOlhFAoFRBPV2NgMXLe9iLqUBIxy1WS45qR6zjfIeXaatwo7AdVuR1Vhljt9lxvnqEBSfa2mhavGOlIXCLQAnprebQm4kMj7HqadEmYcBznHQ9Gbq5r0ZRg+evNBpAoo54JJFVAG6u+DcpgRrklZknBLwT/LkseGOQscL3z74gp87qGHkqNDuT/Ye3L2tsbm9VVt69djy6Z2XLw+jhZVQfycNSdVODk0NoljBw/i5NN7wmndp9Wak9NTyEqJolkOJyMx1am7CV3dvXCLRXd6YvDgpo1bP1rXKP7pjW9cPs1wzkRSSml+4Hf++8cf/pfHfttONcS6Nl4IHRIjg/0oOcVwvrtai1ILAliej6TnIaGVqyjr1rVg60Wb0LauGaMTaaRn8/3t3b03ui52c5r3mejzPWtZ4KoJJy8AACAASURBVLI75D1S4pa1bLCY136Zswd3T7x3MXe5NvbFgPLs7rPQLxFdu3ef3cbcigIUoMDPF2BAyRFCAQosmcBV1+zo1zSts1ztWA4oVaVkWE2pOnerSkYhwvUnPc/H1MQECrkC6hrq0NDcHIaXF9YN4uKWXPgeOR9Kzr+qENIod+JW39dVQBlWYwqYYaXlXFCpQkxTgxHRw32oKd0OfBQDH0X1Kn0UZFCe5u2qxjguVJOQcjCpnmo9uvJ07vlqSd/Tyl+rqeTB3Pfm16l0gpLriPe1RvDXH3svG+Ys2QDjjl9Q4J57Ho1k9elbvv/M6Ttrmzob2zs7sam3HZd2p9Ae1VROHz5UAKcqhYcnJnHkmf04tWcPhg4ewmB/PyamppGV5WndiNhh9WBrWys6unqRy8w4+anhJ6/acfUfdmzofXTXrl3FlXg7/uHv/m7HX9/9qftG0vnutg3bREtbB8aHTyA9OYZAynAtSk0GMMIqSh9xP4AdtRCrr0HPBT3YtGVDuPzDwOCwt75n89suubzlga6ulWmxEu8fz3nlCbB6cvHvWV/6Y7g+/63F3/Fq3yMDyrO7w1LcKbr39J3dxtyKAhSgAANKjgEKUKBCAs8GlGoq91xIqYLJ8M+qtDHspK06YXuYnZmB57qora1FY0sTqmuq4WsmjOIILq8/gaakpyZnh4tNhlWR4fTwckCpAkkVTBqmgGnqMGwBW3X9tsvHVZtJ1UwnqoeVmJ4I4MgAObXmpOsi57soBAFKfoCirzp2+2GjkLBSUspwKnfgqTCnXC3pqYpJT/25HEyqBjzz3/NVSBmuR+nvAbRbNpSefpoNcyo0ANfoYb/0pS/pWT2263u7Bz5lJlt629dv0Ht7O3BJdzW6Eppa1SCcwqwGsxsE4bTuI/v248Tup8NwckhN656awuzcmpPlyskI2tvasH5DLwq52dL4qeM/aG5t/cBF0eTjN/X1LbtO3Wd661V383984P/8+Tf/5Xu/FalpjfZuvQTSK2LoxNGwYY4KKcM1a1UwqSooXR9RtVRFMoHW7nZceMlGxKuq0H9iEI0tXXdZyZo/vOGGG9Jneny+jwJrTeDSD8pbIHDPWrvupbreVn8Uano3H2chwIDyLNDCTdIQepfo2s3/rztbQW5HAQq8oAArKDk4KECBJRO48podRzVNbNA1TcyvN1lec1KH0ARkIFHMFZDP58O1KKtra1DXUItEIgHLjsCK2CgUHLRox7C9fgJRAwhURqmyzTCo/PFalGr6thU209Fh2gJmVIcdM6BbOqQm4fgBfF0Clg4VdRZlgFLgIes4mPUc5D03DChV+BhAhZJqardEEDbL+MlKSRVKqiDSDwPLcmhZfqrGOXNrVarO3l7waVEQH7qvb8/YkiFzxxT4KYGvf/873Q89sv8zJaN6Z0fXJrurez0u21yH3iodtlbu1K0GrBcEGJtO4+C+gzi152kMHziEwePHMT6pwkm/XDlp2+G07vZ167Bu/QZkZ6eKfiHzb1V1dR9sbe340a233uqu9BvwtX944NUfv+uuu2dcraln66VoaGjEYP9hpKfGnw0oNQmYno+Y4yIWSBixCGraGrDt4o3hNO/h8SkIM/ZIMlp7y01vetPISjfh+VNgqQQuu10+JYGLl2r/a22/bI5zDnecAeXZ4wW4QfTs/crZ74BbUoACFHh+AQaUHBkUoMCSCVx59VXPCIgtuqFpKqBUPbbD6knDgOd5yGfzcEsObNtCsroKiVQckUgkbKJjmaoZhw0pdLiFNLYkB9BTk4OmSi7VepJhOKkqKNVUbrVPwDBVZ+4fd/w2Y/qz07odVQ3mu+H6k6opTklNXQ08FHwfWbeEgu+G1WS+BGQ4tRNhOKmmb6vXnwgh5wLJnxdShs10XDnluHivNim/eN/HONV7yQYad/yswCOPPBL/4ZHxDx8eLf52a2dPqqu7G9s3NeGCBgNxXf1SIEwn4QcBJmZmcfjg4XK37gMHMHTsOEbGx5Hxy+GktMuVk61h5eRGZNPjRbjZRzs29HwwEknuWQ3hpNLo37ev+cMfvf2LT+4/dnVL51Zj49YLMDUyhNMnj8P1nPDnllqb0vQCWI6DmOfDNA3E66rQc0E3Nm7uxGw+h2xRHurY0HXjda+5eZ8QqjUXHxSgwHMFruiTF/sBnqLK4gmwOc45WDKgPAc8Nss5FzxuSwEKvLAAA0qODgpQYMkELn/JFf+ma/pVmhBGGFCq9SZ1HYFa7zGTg+d6sGwLsUQckVg0/I9+1SxHBZSq27dqpmOaJhxXVS+NYnvjCFpSXriWpakL6PMdvefXm1RrU6pu36o7serSbYkwoBSGQAnlgFJN7fY0CR+yHFKqp6+qJz345fQmDHFUlZkKJtVc2ADPrZJ8TrWkqqSca5RTrqacW49yrsO350l4TrA/8HFbV7Hu3/v6HvOWDJs7XvMCUkrjni/98xu+82T/nzau621a390jLtjShktabVSrBlFqgIbjWmJqNoPDhw5jYM8z5XDyyFEMj40h47ooGAb8iI1I1A7DyY7uXmSnx0uGn//Ohs1bP7B584V7d+3atarG8p98+I4/fvArD70jVtsa33bxDkivhP4j+1HM58IlInQpw3UoTddDtOSG0+StZAzrejuw9aKecMmJiXR2pq17y2/0brn429u2bVux097X/AeJAEsmwOY4i0u70T2OB8ZvW9ydrqW9MaA8t7st9BpO8z43Qm5NAQr8rAADSo4KClBgyQSu2HHFF6GL12jQ7HIn7bClNkqFYlg5qQJIVSVpWlZYVammbIfh43MCSt3QoQsDJTW10hxBT0saDXGBmK3DMjSYVrkpjgohhVpncq7Dd9gFxAKEWqPS1ODrKFdJIoA7twalhyCc7u1JVTmpIstw8iukqpwM/zD/5x8HlOH3wmnfc92756Z/P3e6t/qeCi59FVCGa1LKr7u68c4vvOfJY+W98kGBxRWQUopHHv3+1i9/98m/FrHmy7s2bjU2b+7ApZ1xtNgaRHled9gUZyaXw7FjAzi2+2kMHzyE04ePYGhkGLOOg4Kuw7MtmFELrS1t6OzdiNzsdElzM4/1bN76+6sxnFQy999/36//77/6zJ8XEanffNFVqKmqRv+RZ5CenAg/sAYkjCCA7nqIFB3YKrCM2mjoaMbWi3uQrEpgbHLab2jbeFuspvFvr7/++vzi3mHujQIrX+DS22U/gM6VfyXL4wrYHOcc7wMDynMDlOLdonvPJ85tJ9yaAhSgwE8KMKDkiKAABZZM4PIdl38Y0N6paUioMiQVUAZ+4DilkqaqvXTTCKdyq1BRCLU2pWqeo0P9vaqcVNWU5YY6aoKlhqJTQKxqFM2NedTGDCRtHVFbg2Wpasry9PH5rt4qmFRPqdarNCSgAY4IoOmALwBHenDCuFLFkjKsklIPNYNcBZA/HVSG1ZRqqrecq5Scm/ZdXp9yLqwMKyrFsx2/VTj5bNMctR6ljHzk3t/7IdenW7IRt3Z3/MjTT8f/47tP/a/jE/5vrd+4NblxSw8u663F+rgGq9wSJwwnc4Ui+k+exNGnn8HwwQM4fegIBgcHkS7kUdANeJYJPWKhsbkR3b1bUcjNuF5h+vubezf/nhFN7l4t07p/eqT8yyOPXPbpv/jEF0+Pz3Zt2HKJtq6jC4MDhzE6dAp+4Jd/36Ea5pQ8WMUSIp4H3TJQ1VKHzRf1oqm1HqPjU6ht7/mQ1OMf+83f/M3ZtTsaeeUU+FmBy/vkziDAo7RZPAFO7z5HSwaU5wjIad7nCsjtKUCBnxVgQMlRQQEKLJnAFVdd8ZsB5F2aEPWqglKqJfD84PtuyTU1HVuFpiU1FUhqehhehgHlXJdvTdfDr+enhquvhdThaDMwaseQSklURwwkIhpiUR1W2MG73MlbNe5Wa1KGqUIYTko1RxNSDyC0cpWlVN3D4SEQvlrSshxQimdzynJAOS+j8h01Q3a+ojJ8nauqVNWUz+nwHVZOqgrKuYY5YSdwF3A95AMPf2hFg7v/8u17p5cMnTtecwJSSu0fHv7Oqx/67t5PNa7f0tazZYu4dEsLtjaYiIYRPCB9H4VSCSeHhnBs30EM79uPocNHcOrECUxnMsiK/8fem8BJWtXn/s9519qXrup9X6ZnH2ZlUUDG5F5ujHo1hok6SBg0QSWgiGg0io3XuESNUf4xylUkuAZIiOIS8BpQZFAYYJiFmenp6X2t6urat3f955y3aqbHuCBTwEzXqfkUXV3Lr97znLdK5zvP7/cQaKoCQZXREI2gf3A9iKUbicnjTzS2tryvb3D9L1cqnKQnzMLCQvMH33/T3YePjbA5lAOr12NxYQbTkyMwdA0iAdzUBa4bIIUSVE2HJBB4okEMbOxDZ3crllIphFr77gipofe+evdu/hmvu08iX/BvU2DrLTZ1Wr2Lq1QbBXh7dw105IDyzEXkbd5nriGvwBXgCpymAAeU/ITgCnAFXjAFdrx8x3rTMO8mIGtYjDdB2bLxdqJbBwzTuMaG/TpBFBpFUVREUXLCbhisdByVTku4Awfp/ZIowyQ6ysF5SL4y3IoAr0uEzy2y266Km1KigTnMQUlDdGzmqgSDkw6opPdTuMDAJTFB+18r2TuOFlVQWf2GXBZ3Ub3J5lRWHJU01ZuF6FRmT7J2b4PAMOm1kvhtALpGFv/LxHazrOj3fvG6w7kXTHheuK4U+NnP9rX++8+f+EqeBF65at0m14YNvdjS4UEDhfO2DduyUNY0zC4ssFCc+WePYn5kBFOjY4glEijQVHtZBlwKAsEA+gfXUjeyZWUXn127bt17uvoGf/aqV72qvJJFfeihh1z3/eu/fO3Jp595Xbit3zW49jzkM0uYGD0KrVyCSAgDlKJpws4VWVgO9XWrQS961/Sga6Ad+UIeSiD6/ZDXe82ua26Ir2S9+Nq4Ar+vAjy9+/dV7Lc//035+/De9JdqW7TeqnFAeeY7bmEPGTh455kX4hW4AlwBrsDJv4ZzKbgCXAGuwAujwEUXXeQuGeU7BEJebwMqgRAjRLiyt6vrp8eOHZMNYv2xQMgbJVG6QJJEvyBJCgFkURQFB1BW+65pcDf9XYSt6NCCcRBVhywTqCoFk06rNwWULpVApuE4FUjJQKVMHZU2BNFyWsAFGyIN2REdcMlYJYWSzojMKqM8ebva/r1cJZY3wgBlBU7Sn5W5lBRK0tsmg5RgcyiduZQEuo4RU8PN8IgP3n7tk3xO3Qtz6tVN1Yceekgank29fe/h6aHuwU2RtZvWYeuqBnS5qXmYptGb0DQNi8kUjh8/jpmjxxA7PoKpkREsLMRZKA6Fk5ZLgdvvRU//IPxePzKx8Ykd23a8v6Wr5/56mKc4NDQk6Frhtr2PPna1J9LhGVi3BXoph4kTR1EqFUC/KjwigWSaMLNFiKUSm0spe1zoHOxAz6pOlvhtiq7/lBX3VW+/8W9mCXEmf/ILV6DeFbhwyO7RLND5k/xSIwVuT9yMbeUDNapWp2U4oDzzjSe4k/Qe3HPmhXgFrgBXgCvAASU/B7gCXIEXQYHN2za/TRCET9iwo4IgHBFt8U3d3d2H7rnnHpO+/Zrz10QUQ9khi/L5gihsJoLQSwhpFUSawU0bw5md0SKEWEQmCnx5v+HNEAoWKWSkSFORK+5JlwBVdmZSMkipUCel7cBKmV4pmHR+p7MoKaCkv1OjZiW/xwGVzLVpn+SSVWh5mlwUSFZQ5klYSWdQVudQWrStm0LKyhxK1vJNHFhpkGdNm3zAmzd/8pmbD+RfhG3gb7FCFfjhTx7t//4jT35d8rXsWHPeFmnLhi6siUrwERuWaaJUKiGTyWB8chKTwyNYHBnB9LHjmJmZRbpYQlES2dxJBtp6+9HU0ork7GhqoLf7I+5A5M4bbrihbmYpfuhDH/y7xx7b+w53sMnXs3ozbFPD5OhRlIp5OsIWHlGAzABlAUKxCNGyILkUNPe3oXewk0YQQbOln4PIV970Nx+b5IByhX7o+LJ+bwW2fti+GgRf+71fyF/waxXwWzk8PP8Grs6ZKsAB5ZkqSF+fIn0Hw7UoxGtwBbgCXAGqAG/x5ucBV4Ar8IIqsOn8Tb2CJXwDNi4AER7zKK4r9+7dO8UihX/lsv6y9b6gEGy2i/YAZHTYlu2lTxGJWLBcep74i/2Wu3yNTYwegXosGWAkbO6krIhQXASK4gBKSaK36f02ZAYqAdrFyn5KNptRWQWU7GfFPekASic0xwGVp74o/5sdqhqmU03+tuiQTcdVWQWVBoWUlgMm2e0KpDR0+9h/NeB+hGj5H912w0jdQKAX9GSrs+LUPfnM6NyNz4wlPtC/dmt405Z12NITQFQBBNNAqVhEJp/HzNwcJo+fQGJ0FHPHRzA5PoFkOoM8DYtSVBCXjKbWVnT1rUJ+aa7Y29HyxYibfPxt7xlaqidJh2699eOP7f3ZX7n9UX/bwEYQ08D0xHEUCzkGKL2iABU2jHQWVr4I0aRBOTIiPS3oWdXBgrrKtrDXgrK7DNfk0NDQf/uOqyc9+Vq5AlUFtn3Evs+28TquSG0UuKy0F59durU2xeq5CgeUtdl9Im4hvfv316YYr8IV4ArUuwIcUNb7GcDXzxV4ERTYuHXjdQIRP0qAvcRDrnn6kaef13y2oSEI9x/vvU4iwodA7CanTdtJ8JZkAbJaAZSqAy0dQOmAydOuVVclBZMUVlYBJXNSOvMoGZukid5gAeDsQoN1nBuni8Z+peP+KqCSpno77d9CJeGbBuoIDqikgTmVq1a2Jk1L+LjPJd37iT9/PPEibAV/ixWkwCNPPNH37fsf+aYSaN2+ftsOafvGTvQHJMi2hXIxi1w2h/hSChOjY4iPjiI+No7JkVHE4nHkqbtSkWEpCgLhEPpWr4NRyhpBBT8Y3LD2PXv2vGOcupZXkFy/cylDH/3oJ5745d7r3P6wv6lrLWzLwOzUGHNQ0nmTPlmA2wbK6QyMTB6iYYCoEho6m9A10MH+UcQUZQ4of6fS/An1psDWW2za3t1Tb+t+odZ7U/pLeHP+vheqfP3U5YCyNnttkxtJ/wEagsUvXAGuAFfgjBXggPKMJeQFuAJcgd+lwIYLNjSLhvjPBMIS8eBdzxdQ0ve5YPdAAAI+B1hvFAR4nPTvSqs3a+umDkoHVtI2bwYmFUBZBikVudL2zeZUngKU1JEpVAJzKKGkqT4MUNJUcPoeogCBBu9Uw3tYBgmd80evdM6kBdOkrbU2aIO4QP9IEpudCTqxzhbYTEpNs1EuWSgVTRTyZlwQlS/YsnjHp9748zneFvq7zib+OOPhti185Zv3vWPvwdGPDmzc1rB1xyZs6gwgLAJ6KY9sJoNkOouZmRnMjU8gNT6O6eMjmJmZQ7ZYREkUWWo3be3u6V8Nv99ra+mFI2vXrnr7yy79n7/Yvn27Xk9K27ZNbrn11r8/+PS+t3kCDb6G1n5ohoaF2UmUS0XIBAhQlzYFu6ksjHQOAv3XBllEqKMRHQPtkERA9QYelmTXW65/39AM/yzX0xnE1/qbFNgxZG82LTzNFaqdAnz+ZI205ICyNkLyOZS10ZFX4QpwBZgCHFDyE4ErwBV4URTYtGnTJYIiNOhF/SeHD59ZgvVFVw1ssSx8BcTeTJkhc1HSNm9VgEzhJJ1D6arCSeqkdByUJyElbfs+2fJdAZQVFyWdPclmUtLWckmEyyXC7ZKgukTm0qRwkrA+cDamkl0YlKTJ3ZYNw7Cgaxb7adsUakoQWVKPANgCTNtxUVJIWSwayGZ15PN6wYZ4p0uQvjCVXD96+7W31xUcelFOwBX2Jr/85ZHIPQ8+cFdJ9L3yvPMvdJ2/sQddQRlCuYxsNoV0JotYfBEz45NIT08jdmIUk2MTSKZSoMlMZUWG7VLQ1NaB9s4eFBMzmdVrBt/X2d33zV27dtVdwvzQ0JCk2cI/DR/e/+ZgOOrxRDqhlQqIxWZRLpcYoAzS7xXDQDGZgZ7Jw9Y1EFlAsC2K9v52iKKJcGPrD4ktvvW69w3Nr7BTji+HK/C8FNj2Ift1tgBu93te6v36Fz05e3kNq9VxKQ4oa7X546TvYG+tivE6XAGuQH0rwAFlfe8/Xz1X4KVQgH7vLG+S/g2N07/90C58S/8NAPkwIXaUzaKkLd5sFiWFlA6sVFjLNw3RcVyUVUjpAEvHRXnaPErW3u3U8HpkeL0yXC6J/f6rQTm091Vgy3AGVVYDc6jr0oGVNMnbmUdJL859zpXNp2RzKW1oZQv5vIFMWrPLGu6XJfnv3V73vpsvf5CH57wUZ+c58p73fO8Hr/7Rz/Z/uXtwfeuWC7aR83qiCAgWitkk0pkMEkspzEzNIDk7jfTUNKZHxjA/t4A8Te2WBOiKAk84iN5Va2GXs0Z7U/gbjS3h97/jHTfHzhEJanqYPz961H/PV792V3x24n+FI80uNdCEQj6DeDwGTStDIUBIESHrOrKLSWjpLNi/NMgiAm1RtPY0QyQWugc3fMsl2O9687XvXazpAfJiXIFzVIGtt9i09fNd5+jhn3WHvU07gNsXbz7rjuucPCAOKGu3bUQMk979qdoV5JW4AlyBelWAA8p63Xm+bq7AS6dATQDlZVf3tJQt+Ss2rP8pCJCrYTmsxZvByWqaN07OoqRgkl1PtntTSOmASicwh8DjlhEIuuD1SGymHBEqY/gq35bOXEpnxqQzp9J5wGL30Z5v+jvFlPRxZwalYVmVNnAHZJomYJsOxDQqzsti0UIqpaGYt54iRPy8FFB/8ME//AmfS/nSnadn7TvTcJxHnzn26YmF7Fs37bjQf/7WNehp8MIopJFNpZDJ5TA7N4+FyWmUYjHERscwNTGFdDaLInVPqgrgUtHa3YdwOASxlDy6YcP6a7ZfeMm+emvtrm7y008/3fPlO79xt5ZLbglFWyTZ5Ucul0YikWCAUiI2GhQJUllDOraIUjoLmwJKRUKgNYrG9igkwcTqzed/1t/Q/rHXv/71/C9qZ+0niB/Yi6nAto/YD9k2Lnsx33Mlv9eb8vfhvekvreQlvnhr44CydloTvJ70Hvz32hXklbgCXIF6VYADynrdeb5ursDZo8DzclDSw7/oqr432xb+nohodgJz6OzJalgOYZCSuikdJ2UFTlYBJftZAZQidVISeDwuhEIuuN0iBNFm8yhZr7dgV4JySMVJSU7NxzhpraTw0aok5dCjYxMoWdIOnUnJICVzUi53U57+O237zmZ0pFL6rA3x/2pE+OrH/vcrZwjhacBnz+n60h/Jo48+2v2N7/3n3d5Q49YtF1wobVvXjYBsIbsYQzabw1IyhempKeRjMWTn5jEzOoGF+QUUdR1FSYKuyvCGG9DVvwoopctrVvUNNbV4vnjllTfUbZr8v373B5d+70c/+rrfJXUGw81EECXkKaBcWkKpXIZkWwjLAsRSGcn5RRRTaVimAagKAu0RRJvD1JVtb9p+yXuaXcGv7KzDNvmX/pPBj+BsVGDrR+wkbITOxmM7F4+JB+TUcNc4oKydmDwop3Za8kpcgTpXgAPKOj8B+PK5AmeJAs8LUl6yZ6BR1206i/KPBJHIbA6l5EBKBiWXt3mrpwNKhf5eAZTUPel1uxAMeKC6BSc4h7kqnXmUlDNWk7xZeA6DkhRSOn8caskSc2ChEppT8VFStyUzVlaivimgtKlr8jRYeTq0zOVMLMbLJa1s32uZwhf6mpWDe3Y+XDpL9oofxkuswB3f/tc//dkvn/rH/tXrmrbt2IY1Xc2w8mkkFxeQL5SYe3JxZgZaMonE+CSmp6aRzTjuyRIl9W4Vbd198Ho9iPrkRzu6eq657rrrRuottXv5Nt717Xv/4scPPfyJtuZoxB+MgNgWCrkUkukMcoUiRMtAWCSwsjkk5mIoZbIwDRO2mwLKKBoifvi9Smnj9pddFW3rv3/nzp388/oSf07427/0CvCAnNrvAQ/IqaGmHFDWTkwelFM7LXklrkCdK8ABZZ2fAHz5XIGzRAHK/yjCWz6b8jkd2oVX9u0Gwd8TAU2iJLCwHDZ3ksFJEapK508KUF1wbsvM9FQJznEclCpt0/T64PLQeZM2m1dJE3lZqjeFk1U6yeBkFVjSBm4CgYbfEAdUOgdvw7ZsmNRPaZkwWSu4E6pDn2DRFnDqomS3nSWenFlpUZjpXIsFCwsLZaSTxmOSIH5acKkPDb3+Yd42+pzOipX7JJre/Xe33f7J4bHpazdt3RbYuvU8tIRcyMRmkU1nkMxkMTM1jeJSAuX4IubGJhGbj6Goa5XkbhnucAM6evoh6MXStq3n3dTQ0HBXPQbjVM8S1jL/9LO3jY1PvKWrq8vr9XohWxoKhTRS6SxSmSxEQ4cfFsqJFBbnYijncjAtC7bPhUBLBMGgC42N0en1W3fs6upbX7et8iv3k8dX9nwU2D5kX2ZZeOj5vJa/5tcr8PD8n8Bv8RHVNTk/OKCsiYxOEbKf9B3YUsOCvBRXgCtQpwpwQFmnG8+XzRU4yxT41bmUz/nwLrpqsN2C8R2B4EJRJNLysBzVVXVSEqguchJQuiqgksJIRQI8Ljc8bpeT/E0DdiigpGByGaSkbd70IggUTDoXCi5F+ocRzFPt3+xBmwbhGNAsgyJLNpuS/aQP2U5YTvX3angOfdGp24QlfcfmNczNlSdhkS/YNr756T1P8HTg53x2rLwnTqRS4c996gvfMWzyik3bt6tbNq2DapUQn5tGoVBCLLaIxflZIJdDZnYOM+PTSKfSKMNGSZZgqgoau3oQ8AfRGvH/fGCg/5qrr776RD27J+n8ydu//d1/UVV1a0dXl+RWRLgFA6VCFslUBvHEEki5DLehI7sQR2I+Bi1fgEk/zwEPA5Q+t4iunp5fNHa17d6z593j9aznyvvU8RU9XwW2fth+Nwg+93xfz193ugJ+K4eH59/AZamVAhxQ1kpJWidF+g6Ga1mQtsB0LwAAIABJREFU1+IKcAXqUwEOKOtz3/mquQIrRoGhIQg/Gu37ewL8hSgSjygRsKAc6ppUCWSX85NdXY5zkjooKYRUFAuKJMKleOFxSwxiOoCSQKSAUqIQ0mnzrroomWGSOicrlJL+kAQKKUVnLiVL0alYIwlg2CY0S2euSgdOVqyilac47d+VoB3r1E/aCk4DeGigTmxex+REOZvLW18zS+bnWt79uskhPpdyxZzDz2UhQ0NDwrorrpC0oyfOe+jhn34rGm3sW791h7BusAelZAyJeAy5Qokld5czaQi5LGIT05ifnUOxUERZEFg4jhTwo617FSTBstavWfWhwYG+/1ssFpO7du0yn8txrLTn2LZN7v+PH7/x3x545POd3T2NLS0tCCgWvJKFYiGPRDKF2dl5kFIBUrGIxPQ8lmJx6IUCDJGABH0INjfAowAbt279huhWb7yWJ3ivtNOEr+d5KsATvJ+ncL/hZTzBu7Z6ggPK2gpKxF7Su3+8tkV5Na4AV6DeFOCAst52nK+XK7ACFbjwLd1/QiD+IxHQwgClXEnxrjgoVdru7SI0uNiBlDJAZ1DKsg1FlKHKLrhcElweAlVxXk/nUjoOylOAkkJJNn2S9XnT+08ZPymklIjgtHwzpyRt63a61nXLhG7qbD6lk/J9qpe9yjKd1m5ncyicpK8/9ZNgacnA2EjJTqWse0pl69NeqeXgbTf8qLwCt5MvqaIAbee+/fvfd41NZVSUtWDY4+mdnZ18XXJh8uqe7p7A+i1b0NEcxtLsLDKZNBLJNOILC1DKJejJNGYnppBcTKCs6yjLNBxHgb+pBa0d3SiXioYSarmntbX1JwTyM4q/PLUqGMz39fWV6ynJe2xszPXP//7AP80msrsGV6/zhAMeNLptBiizuTxi8UVMT81AKBVgpdKYn5hCanEJuq5DFwWIDQGEokH4VNve8bJL/6bJE/nHV115Zd2GDfEPL1dguQLbPmLfZ9t4HVelNgpcVtqLzy7dWptivAo4oKzxSUDELaR3//4aV+XluAJcgTpTgAPKOttwvlyuwEpU4LLdAx0lYn2biJU2b6nS2u0S2TxK2uqtup0Wb3al7skKoJSIDEWigFKAxyMyFyUFlJLktGwzQCkCouC4KquZOIS1fNMZlJXRmWzMJIEkCBAroNKJzKEOSRuapcG0GXmsXE4BSQYsTwbpnArVYfdRVyU9EAKklkyMj5axuGg8omvix/1a+ZHP3HyAD6NaQSc1dfTdeeed6ryiuMtLWrMqe7akMvkLUvnyllRBW52NTzQ2KSWhf3AQa9atg1cVEJ+dQS5fQDyRRDGTgcfQkVuIY25qBoVMFhoNx5FE2B43op09aGiIYDGrIU2CkBVF8yjyTEs0eCga9Pwy4Hc9li7mn22Vopm5uSdLQ0MrO0H+R48+etG933vknxtbu/q7enuEsMtEZ0iFYOpIZ3OYnZvDzOQUhHweRTrTc2IKmWTK+UcHRYEcCSAYdKM56s9s3Lz9SlP0/3jPnj08IGcFfSb5Up6/Ats+Yj9k27js+Vfgr1yuwJvy9+G96S9xUWqlAHdQ1kpJp46FPWTg4J21LcqrcQW4AvWmAAeU9bbjfL1cgRWowLa/3CZL+aV/JIRcKcrELdEkb9qqrdL2bhqQQyqAclmbdwVQirYMSVQZnPS4KKAUIFVclAxQ0hZv0YZE3VK0pZOF5DhQknV5s/9Us31s9pgAgbkpnYsN27ZgMFi5PAOI3n/6V/ApN2Wl7ZsG6bAS1ecRFEs2pibKmJkyD5cK9sdkIv7wtht+yR1b5/h5Td2SX3/wQfeJ4aWgQKwdBU3bGV/KX5wpGWs1g7glWSGKIqMcG0ZUyqGnfxX6BvphaUXEFuaRyxWQTGch6WW4ymUkZxcQn1tAsViETghzT0rBAFp6+iHLKpZ0BfBGYJg2DMOEphlsbEHAq8yHva59TT73A+6Q5//5ytbs9dfvzq3EmYqHDx9WfvDTfX97dC7zl4PrNgUaowG0uTV0hn0oFQtIplKYmJxCfGYWdiaD5PQM5qdnUcjl2UxP061CiYQQdBMMrurfN9A9sPvP/qK+09DP8Y8hP/waK7D1FnsMQE+Ny9Ztub/Mfh3XZr9Rt+uv+cI5oKytpDa5kfQf+IfaFuXVuAJcgXpTgAPKettxvl6uwApVYMfu3psEQj4siiTozKF0krxZe7fbmUPppqCStnhXXJS0xZtYMkSiMEDp9YpwuUSW+i1I1DFJQJ2SRLQgigIkGpDDrtXAcYu1e7Mv0kqIjgMhnespHGnDmV356y9VMFl99KSbkgXrOOXoTxqgQ9/PMm3MzhgYH9Umsxn740Ry3f1P7/x5coVu7YpeFkvlvuMOb1YXWjyC57L5xfRr55PFl+mWEFIUl+DxeOD1eODx+EBgYubQw/CaaXT196OjqxO5dBKxhTiy+RLKhTx8FKoXCojPzCEVTzityAKB4VbhbWxEc2c/yqaNpOmC5A6y81qgw1aJAMOyUdIM6LoBidhmS8jzTCSkft8t298dWN05svuP/ihLCLMMr4jLA//5yAX3/OcTXws1da3uHhgUmtwmBiIKQl4FmUwWi0tJjI2OIbMwDy2xhLmxCQZ9S6USNFGA6fPCGwnQmZX2+Rdd/OWoL/I3u972tqUVIQ5fBFegBgpsveVX/9etBkXruMRQ6jN4TeHHdaxAjZfOAWVtBbXJraT/wFBti/JqXAGuQL0pwAFlve04Xy9XYIUqcP4b+19PJHyJCGhy5lBSQOm0dysqBY9gbdwUUNI2bxqWQ1O8iSlBsBW43Q6gdHslyIoIWqPa1m0JJoOS1EVJr84sShu2QP2Np8+iZCixAitBg3Gqt5fpXv3ipcbI076El6EfpzX8lHvSAZQOrBQIgU0I4gsmhoe1WDJtfqIE4et3/dXjiRW6vStuWbSV+8EHH/Q8Pp5s0YqFP1pIlf40kdUvIKLq8vkDCPj88Po8cHs88HncCIeD0IppPP4f34ZUTqK9uxeRaBSpRALxZAqFQhnQNYQkAjObQ2x6DvlUGoZpwBAl2D43Qm3tiLR2YSmvI225oShuyAp1EAsQ6NBVRtEF2ESAplsolsowTR1ht3x4sCN8r1sR/yXUFZ649jWvKZzrG7J37173T54Y/uxEUntL79pNvqaoH90eHYOdEQi2hWQyhbn5GCZGx5CPzSMzPYuZsXEkl1IoGQZr70bAi0DQhaaQp3ThpTuvXbth+73bt28/57U51/eWH//ZowAHlLXdi9sTN2Nb+UBti9ZzNQ4oa7v7BHeS3oN7aluUV+MKcAXqTQEOKOttx/l6uQIrVIGLrhrYYprmt4mAVZIkCKIsQJYpoCRQXCJcKoGLzqGkLkoKKBmktAFTBDEV5px0XJQyA5oUUAoigSRSS5oF+ofOolREEbLkQEpnxqTptH1XR0US+kza+e3QRvqMysPLYOWpcJ3fuh3MOUlTwZclf1fvo+8h0PAcE8eO6omlJeNvdVX+56++7THu4DrLz/Ef/vCH6uNjuXDALf3R8HRsdzytv1xSPa5QMIRgMAif34dgwI9QyIeGgIqQT0Zj0IWF6Ql8+2tfgVXMoKWjCx6vF0tLSdbaXS5rUGwLYYmgnMogPjuPci4PwzJhqDKkoA8NbV3wR1uxmLNQlnxwKQoURYIiCWy+KjsrbXpWC9BtAQYkaCZQKGmAqSPqkx7vaPTd2d3i/q5fFBfO1eRv6lq94zvfe/UjB8dva+oc7Gjv6RGaPQbWt3nR0RhGIZvB4lIKE1NTmBkfR3F+AfMjY5idnEK+UAAdMKm7VchBP4IeAYP93ft7+tfs3nPt9UdXYiv8Wf5x4od3liqwecjuESzQFm9+qZECHFDWSMhqGQ4oaysoB5S11ZNX4wrUqQIcUNbpxvNlcwVWmgKX7Glp1Mrub0HAK0SRyFVASedQMkBJU7yrsygrITkUVBKLwNYoqBHh9ojw+2W4VQmCXAWUTqK3CQMmsSCLBIoksisFk5ZtMlBZnUXptH87aJJdTptRWbmryierYyqXPZ3eZCMnK2XozeXROvR+q5L47czIJEilLBw7UlqMLVlDWtn45p037k+ttP1dCeuhYOzWO+8MhGz/BVOx7NVTyfyrBcnjawhFEAoFEQwHEY2EEG3wojmsosEjwkeT5mHBq8g4cPgI7vjaHTBKBURb2qCoKhYTSWTzBZiGAa9IECRAYSmFxfk4jEIB7Ox0qVCjIUQ7uiH7o1gq2CCyB26XCpciQ1UrkJJ2b9sWbMuCbpgoG0DZFlCGgqIB5AsaJOjFtZ2R+xo9ri+u6wvtv/zyy8+5kKb77/9J+4/3H729KAZf2bNqnSsaUjHQAGzsaYVbEZFcSmJhMYGJsXHEJiaQmZrG1PFRlpBe1HWUZAmmxw1/2Iegalsvv/jSz/ki7X+7e/duPmZhJXxQ+RpqogAHlDWR8bQi34q/E6v1E7UvXK8VOaCs9c5/l/QdfF2ti/J6XAGuQH0pwAFlfe03Xy1XYMUqQINyxNzSF0GwWxSJu9rmzQAlC8o5vc2bdmhSQEnbpc2SBEmSWDu43yfD55EgyaIzh1IUmGOStnnrlsGcZtRVSZ2UFA6CWAChbd4MLbLbJ6+0R5vZJyuBOieB5enbcCoC51TcTvUZJ7u+K6MtqxMuKcU8WV4gyGQsDB/TZuOL+ge9ef1enu59dp3q1DX5zHixPV8u7J5YzOwpGXJXuCEiRiJRNETCaGpsQFujD60NKhpcArySBdGisNBk8FGWZDyx/wC+/s27YJULCDY0gYgyEqkUStThaFkISAK8sJFPJJGKL8IslUFD4G06f7I5gkh7D2x3GOmiztq7vR4v3B4VPq8z55KONqDnlKFrMDUNWqmIUllDSbNQsEUULRV5DSiWSgiq1qHVnQ3/0N7s+t41u3bFzy61f/PRjI2Nub79g5++7+h86caOnrWh5tYoWn0GtvRG0N4YgaGVWBv35OwsJkdGkZqcwPzIKKbGJpHJZFCkieguBaLXg7BfRltTMLbj0j94S0ND609f9apXlc8VHfhxcgVeaAW2D9mXWRYeeqHfp57q379wFdrMhXpa8gu7Vg4oa63vw6Tv4M5aF+X1uAJcgfpSgAPK+tpvvlquwIpW4ILdfR+wgb8WRARo4jaFlDTNmwFKN03orrgo6X10FqUCSDJgFkXAooBShMcrwu9ToLI2b2fmJGvpFoGypbOWbmdmH6mE5jgzKGl2CGv1Xg4pK2E5zmMVWyQFmWyO5K/Zioqjkj3zNNvk6S5Km4blVJ2VLFGHQJAE5HIWho+UR+Jx7T2i2fzgbTf8iAOTl/iMp7Mmh267zR8NtV10bHLp+njW/AO3N+xqamxEJBpBU3ME3W0BtEdciLoADx0FaVmwLAuGaTE4SYNuaOTSvqeewb3/dg/MUgHeQAimLSCdK7BQGwEWgpIA1TRQWEojl0jC0jRYhID4XQi1NSHQ0g1d9iOby8Hj8sDrd+ZcRsJhNDdFWHu5IMvMOZkrashmcyikUyhl0ywNPF82UYCMvOVGtqTDAy3VERbv6GoKfuG6t7556mxvb37ooYekeN6+/Ad7D37BH+3paevuERr9BJs63Fjb1QZVllCkAUNLSxgdOYHZkRNIjI1hcvgE5ufmUdQ1FEURhscFL50/qVr2eZs339Mc6XjX1e9858JKChB6iT82/O1XgAIcUNZ+EzmgrLGmHFDWWFBwQFlrRXk9rkAdKsABZR1uOl8yV2ClKrD9zf1vJLZ9myjaUeZ+lAQGKNksSprk7RJZmjebS0mTvCthOZZGXZRypRWcuigVuKmLkgJKSXR+igS6bcKwdDD4efIKBiaFCqB0Qo5POSerid70Oc6sStvJzVne3l0ZUvnf8nRoO3f1ecuAJZ1LyTLC2X1O0jcFmhTI5vI2Ro5p+xJx6/pLol1P7Np1j7lS9/tsX9fQ0JCkNHSFkyXrysWM9o4S3H3RaJMYbWxES0sUXW0N6G52o9UrwkPT4itg0qRw0jKglXUU8nmk02kkk0k8e/QYfvH4L6CXClA9fhgWQb5YZkE4ImwEZQFuy0I2kURxKQNb12AJBHLIi2hHC1yNXShCRjq5BK/bDX/AD5fHi6ZoFD1dbehoa0EgEABkGSWDYKmgI57MIxFPIZeIo5BJoJjPoWACeXiQ0wQUCxls6Ax9Z1VL+OM97cEjO3fuNM7GfaGg+L7/97M1P3708Bc1Kfyy9p4+pSHowqqoiG2D7WgI+GCZJnL5PKZmZjFy9AgWj5/A3PAIJscmkM5W3JMKdU+6EQq4EA0o2e1bX/YX69s6v/eyXbuouZJfuAJcgYoCHFDW/lTggLLGmnJAWWNBOaCstaC8HlegHhXggLIed52vmSuwQhU4/00DF9kwv0UIugWJEAooFaWa6E0BpeAAShaWQ0N0aLK3A/q0HA2/keGiQTns6sylpDVYHdrmDQtlUwcRAUlwgCBN+mZuSAqYloFKBhDpfZQesv84EJNaHxlzrAbrVMZNstmVv+KaPJWu4zyJhoKfupz6+qZw0nmIOikJclkLYyPa9+M58u7brt47emqi5Qrd+LNwWbSl++nZzKpiQX/n8HT2So8/4m9ubkZzSzO6OiPoa/OjIyQjKNkQLBu2ZcMBkxa0cpmBssV4HLNzc5iZnsbC3DxiS0tIZ5IwymUIshvGf9mFS2UdlmVCIjZCNPDGMJCjSdOpLIiuM0CpRgJo7mqFEu1AqmwjPjsNr8uFQDDAAGUwFEZ3Zyv6e7vR2tLM3JWiLMIURKQ1grm0htn5NJZiMeQSCyim48gVSyjAhbztRqGQR29EerC1QRrauf28fdu3b9fPti351v33R4+MLn1qLK7/WXv3Km9DNIg2v4XzVzejp7nRGfVg6kgk0zh2bBiTR48idmwEk8ePIz6/gJyhoyjLMFQVvoAHQRX24Kr++yORhuuuf9/QDHdPnm07zo/npVaAA8ra7wAHlDXWlAPKGgvKAWWtBeX1uAL1qAAHlPW463zNXIEVqsCON/Z32rBokvcFgkAkUaYt3tQF6bR6Mwdlpc3bRQFlxUEpChbKGRrLLcPrkaBWIaVLgSDTdm4HUFLQqJkGS/VmYFKE46RkLd4VSAlnHiUDlNXZk8vApBOiU/nqPQ1YOq3aTpSykwJuVWjmyZZvSjaXQcyTN5c5KenW0uOh7d5TM9ZnUMLffXDXI+fMjMCVcGo+8MAD3rG4duGTx6b+OmcqFzdEWlyNzc1ob2tCX3cDBpo9aHIDMs14t+j4SKelm7ZyZ3I5LMzPY2pqClOTk5iZnsFifBGpVJLNk1Q9LuhlDbZAX02g6RZs2wGUQer21XUU0xlomTwDlJSeuxuDaO1thxhqw2Jew9jxY3DJMhoaQvB4fPD4/Ghqoi7KDvT0dKGpqQk+OpNSlkFEEQVbwGzewtR8HguzS0jHZ5BbnEU2l0LRUlAUfMgVC2h2az9b3Rr84CU7Njx+NkHKu+++2zcWL994YCb7nmhrb6ipsQkRH7ClP4wNPa1QFYUFA5U0DeOTUzh+8BDmjx3DzNFhTE1Msj3JE4KyS4XkcSPsVxDxq+nztl1w7Za2Hu6eXAkfWr6GmivAAWXNJQUHlDXW9NVpYFOhxkXruhxv8a7r7eeL5wrURgEOKGujI6/CFeAKnAUKXHRFh1sXpa8SQl5PROJiLd4yYYBSkglzR8rUQakQuD3UUUm7WenjFvSCDaMowe2W4fFKUBQBXq/M5tJRuyTlk3TWpFFJ7abuSQoiqXuSvg+9zdq7K63e9H6KGOnPqnOS8Ub2nGVfvcKpAB36XOqSZO3gVM/K70zaivPydCh5SnTW9n0yQcc51mzeymg6eb9oBr751ou/lz0LtmjFH8InP/nloNIUed3h8fh7y8S3pqm5VWphrskmDHaF0N0gIchYt8X22pk1aaJQLCK2EMPo2Cgmx8YxPz2NxGIcyWQK6VyWJXWLiopotAGmocMiEiwiMtclhWsSAfwigWxZKKez0DI5CBRQigJ8zSG093WABFoxm8zh8FNPgNg2mpqbEAw1QHW74fV60dbeit6eLvR0daG5uQkenxeyKEEURWiCgPkiMBkvY3Y6icWFeWTjU8gkYyiZQFkOIpcvod1r/GxNd+T977j6z/YRQl7ydu+9e/e6f3F44s1Pnlj8qD/S2drc0kpCXgEbun3YNtiJoMfN3KvUubqUSuLI4SOYOHgIc0ePYerEKBYXF5Gn8FKWYblV+ANe+BTDWr9+/d0NLc03vvOdN/PZkyv+U80X+HwU4IDy+aj221/DAWWNNeWAssaCcgdlrQXl9bgC9agAB5T1uOt8zVyBFazAtl09HycCuV4QiY+F3CjU4UjDcAhcXpGBR+qmdLsEuDwENM1bkgBTN1BKC1AlBR6fxOZR0qAcl0pnUTqJ3tT9aJoWCK0nORDQSfB2ICi9n02EZCCSPu7gRGf+JLNFOl3blfZu+pgTluO0h/+3L+SKm7IKKKvuStbOXWn3PpXyfaqA0/LttJ5rJkYJyLvLS9aP9+x8uLSCt/4lXZpt28LnvnpPaDa+dO18FtdL7lBza1u70Nragv6eRqzp8KPVC6jUW0tbugGYlomyZmApuYTJ8XGMHh/B3NQkEgsLWEosIZFJI5MvoqjrMG3A7fGiIRyAbRmwbBGWIDLASatRQOmjTl/TRDmTg5GlgNJg7l8KKDsHu0D8zZiIZbDvsZ+imM0gEmlCY3MrQuEwFNUFj8/HZmP29fagv7cXra3N8PsDECWJuXINImBREzC2qGF6Jo34wgJS85PIJGZRMizochjZfB6rGoUHNw+03fRnr//jZ1/K4BzaZp/WyKt+9Ivjn5T8TQMtbZ1C0KtgoEXBheu70BwKsHOGAt5CWcPo2BiG9z+D2cNHMHVsGHOzs8iWyyhIEgxVgep1I+gR0BT2zVx4ySVvjbb0P8yTu1/Sjx1/87NYgR1D9mbTwtNn8SGec4fGAWWNt4wDyhoLygFlrQXl9bgC9agAB5T1uOt8zVyBFazA1jf0/gWR7E+JAgmLMgWUAoN/JwElTfRm7d7UQemkelPYSKFPIW2D6Ap8fgmuSkgOnUNJrxRA2oINy6bt3U7buCRWZ0lSSOncRwFlFUaK1WRv5n50ACU9GOqiZGDSGVDp7Eb1vt+2N8uB5bLnUQzKWGiFfp40UlZav02Qp4klvGeV2ffo9u23n3XzAc/105GmQ5+YLbRPp9M3HJ1Kvy0Qag60tnego6MFq3ujWNXsQlRxwpEoDKPbQp2PhUIBs7PzOHF8mM06XJybxWI8hlgiiSWaoK0bLGbe6/Uh2NAAWVZQKqSgl0uwbAG2IDmc2rYhwoJHFOCyLZSzBRjZPCTDYOeqrzmI7jVdEP0tGF1I4+knHkU6EYeiKPD7G9DU0oqGaCNkxQVZldHYGEV/TydWD/Sjo7MD/kAQkiQx2GkLFFISnIhrmJrJIDYfR2phCunFGZR1A5ocRqGQwaYOz7dXt7j/eteuXZMvxf7u27dP/uXhiYufGU98pgzPppbWTino86CzUcCF6zvQ0xRln0H6eaZp6bOxOI5QOHnoEKafHcbkxDiS2QzyRECZBuN4VIT9brgEXXv5pZd8LtwU/tTu3e9MvhRr4+/JFTgXFNg8ZPcIFsbOhWM9V46RA8oa7xQHlDUWFN8lfQdfV+uivB5XgCtQXwpwQFlf+81XyxVY8Qps3dVzORHI1wSCVjqDUlJExu1oSzZzUFJAqQpQXIQF5rhVOp+Ssj0ThawBPSfB61Hh9YmQGeB0UrwFkcCutHDTRG9ZoqE6jjuTetgofZKESqs3Dcdh7d8URDrOxl8NyKEt4VVA6TxlWYDOyV1y5lBWR0+y5y0PyqGApfrc6g3Hkskuy8NziE0ekSC+5w1bXv4UIUO/Gsez4s+LF2qBX963TxZHJlePTOfeN54oviHa3OFpbW1Hd3cL1vSG0R+RERCdACTLpoDbZi3dqXQa42PjGD16FHNjY0jMzWI+FsdcMoWspoPICvyhECKNTQgFGyDJEhKLi0gsTMEydVgQQUSJUWkGxW0bLgFwATDyRZi5AptHSZ2P/sYQetf1QAk14/hCBs88+Qvk04tQaEqULUBxexFtakOkuQ2K6mbjCgIBD/q7O7Fx3Wp09/QhEApCpO3eNExGIIhpBKNxA5MzaSzOx7AUm0EqPg3dsKDJAZSzCWtbb+gzO7rCn975mtcsvlD6/7q6FE4++Nj+8w9NpT5JlOgFLe1dctDvRVuY4IJ1bRjsaIEk0JEIzn4kszk8e/gIxvc/jblnj2Ji5AQWEwnkbJu1dttuBX6fG17Jsru62h7bdN6Oa9/y1rcfIYSYL+a6+HtxBc4lBTigrP1ucUBZY013J4BurcZF67gcwZ2k9+CeOlaAL50rwBWogQIcUNZARF6CK8AVOHsUuOCKgXU6Mb9DBKyXVUGgcJE2PNN2bwooZQonVQEulTBI6VIIFJW6Gi2UCxoKSQuK7HFclKrTEi7JIgOUbCYkRUM0GEciUOmMS0FwwCVFiYSA0MdE2t5dBZTU3lhp5a6G5tCAHWamdFq7T0v2XiYlBU+neOSv+bqu3lWdVVkxZDordo6XzqV0oCahwPJ7xBJu/rPzf3KcMCLKL2eiAG0hfvTIzJa8Lnwolhf+oKm5zdXe3oHe3has7Q6gJyDBLThBOFUYVtZ1LMTjGB0ewfjRI4hPTCA2N4fp2CLiuTwMUUKgoQEtre0IRyJs33LpJJYWF5BcjEE3dCgqbRSngFIEESiAp4DSgioIUOhsy2IJVq4IuQIovZEA+tb1wtvYjBOxPPY98UvEZqdsn8dFAn4PJAo6RQWBSCuaWrqguNzQDY0l2a/u7cZ5mzagp7fHcVKKInMLGwRYKAsYmadOyhQWF2JYis8iszgNwxZQFjxQtGR6e3/0xu2bBv5l+/btL0oSAYWTP3/y+Najc8lP5izPyxqb2pT3Ot8YAAAgAElEQVSA34fmEMG2wRZs7GuDS5GccCIA+VIZJ0ZGMfzU05g5fBiTR49hYWEBGRo2JEkwXSrcXhdCHhkexVq65LI/vOG8HQP3bd/+mhdlPWdyfvLXcgVeagW23sImI/NLjRTggLJGQlbLcEBZW0Ft8nnSf+DdtS3Kq3EFuAL1pgAHlPW243y9XIEVrsD5V7VHjKL8dSKSP5BUQWGt2ZYNSRZYOrdMW7ZpUE61xZu2ezNAabPwkfSSBmgK/EE33G4RqiKwFm9RpC5KxwXH2rFpi7cAKKzPmwLJSts2hZGiE6DDgnUoJ2SPURjppH3T36nvrRqEUwWUDFhWwKKzTdW/2y1rBa/CRwYvq+3h9JCqMHPZ13qlJdx5HydERyD4im7g1isvfHh6hZ8KL+jyxsbGXP/5+LGLfvb08EdNJXh+S1uX0t7RhoHeFqzr8qHdI0ARnHmTFIRZlo1yuYTp2TkcO3wYM8PDiE9OYGZmDtOJJWQME+5gEG0d3WhqbYMii8gmlxCfm0EmtQjTKMHUNb2omRBUjyxKCnM0MkDJnLUWqJ+SAkroJpAvQi5rzEHpDvnQu64b0fZ2jC2V8eS+JzE7M5EuFYu2S5W9jZGQHPB6Qej81WALIhRSqi6UtRLcLhEbBntx3qaN6O7qhtfnd9q9CYFGCKYLwMhcCdPTS07aeGwW2eQcIKrI6TaalPyh83ob33rVm6+goTkvqHPXgZPPbj2+kP94UldfHm1sU0N+P6IBYPNgMzYPdMCnyuxzQD9RZcPE+NQMhvfvx/QzBzB19BhmpqeRLhSQr86d9LgQ8quQoZe3btv2ZXfI+9G/+qsPJl7Qk4sX5wqsEAW2fsROwkZohSznJV8GB5Q13oLrYkCQG+FrpqpNbiX9B4ZqVo8X4gpwBepSAQ4o63Lb+aK5AitXgSuuuEIcxZO3EcH+c9EleKjb0TJtyErFQalQSFlp8VZouzfYHEo2IxImcukyCikLXrcXvoAMVaGQ0plBSdu9KQakwSTUQUnhDwvDqbomK4E5rL2b3icA1HhZnS/Jnl9p/15mfnQclsu2xAnVqeDJ5Yk4J9O/HWD5m6wpjKEyKFn9T4XIMBIqaLCtz/hE8rnXbH/4RW29XSln3f337/MkzcQf7D00fUvBcG9u7eiUOrvasKqvGeva3WhRBUiEnifVMBwLmXwBU5NTOH74EGaPHUNsYhITs7OYS2dhKCoa2zvQ1dOLYCCIQi6D+Nwk0ovzMLQSLMvUDdPMRxoiR4goCycmZ7eKiipLssoSttlpQedQUhclPXcMEyiUIJfKLDxH9XvQPdiF9v5uTOds7H3scfR0tPygubnp4YcefviVS0uJbX6vp6ExGpZcbj/cwWY0tHRDUlRopTzCfhkb1gxi44Z16GjvZKnfdLYldVJSG+F4BhidKmBmLoFEYhHp+BxK2QRs2YN8PoXVUfmuzata3v/Hf/zH8y/UOUBb7VOPH9w2uVj62yVNeXk02qoGKZz0C9g02IgtqzoQcLscSzEA3QJm4nEcffoZTD6zHzNHjmF6fBxL2SzyggBdVSC4VYTo3EnRsJqi4Uc2b73wnb6GlmO7du3if6N9oTaS111RCmy9xaYzKHtW1KJewsVwQFlj8W9aANQX9N/NanzAZ3k5C3vIwME7z/Kj5IfHFeAKnOUKcEB5lm8QPzyuAFfg91dg25t6byIWPizKQpC2XNNgEhqY4/ZR96RUafOmCd4OoKQOSooeKTykbd6pxTIkS0Ug5IbLI0Khrdws/Vtk0JGGarAkb1FgvzsJ35WWbvpTqMBJBiSd+wm7j76H0/7tdHZTkuhATufizBNktwQKKOnsQuc+du+y+ZLVV1SeXfnV+a06e9JxbFYwpuVUpvfZQIaAfNAU3F+/8sIfZX5/hev3FXc98IA3O5979VMjix825MDq9s5uqaurHWsGGrG2xYWo7MBuZ96kE4aTymYwOjqGEwcPYn74OOYmJjAxN4+FQhFqKISugUF0d/fAti0k5qaRmJ9EqZCljknDNKycNxA8FApFf3DJ9u33qeHwxs9+/vP/aAtik8vjZW5GdobYNITHgkwDoUwLdrHMAKVi25A9Ktp629C7rh8pU8GjTzwDv0fZ19/esUvy+YpTE6OXH3n2yJty+dz54XA4FGyIEn+kHZHWHlbfLOXQ0ujDpvVrsWZwFRobmyHT4JiKezNlE4wsWhibzGJ+YRGpZAKZxDxsLY8yZFi5ucL2wbbr/8el53+rt7e35knytNX+P345vKNgih/Lw3NRJNqqhPw+NHgJNgxEsXVtN8IVOMn+GcIGYskUhg8/i7Enn8L0s89iZnwci0tJZKmzUpEheFT4vW54FSDk90xuOf+iv1q9LvzjnTv31Pz46/fTxFe+0hXY9hH7IdvGZSt9nS/W+jigrKHSLgt4z0INC/JSIPZO0nvoYa4EV4ArwBU4EwU4oDwT9fhruQJcgbNSgW1v6nkdbOHLxLabmBuRuhlpi7dXhOp2gnJoyzfNCHHRVm+Zzo20mUvSMgykFgsoZWz4vNRFKTlQU3JavelP6qCkE+zoXEs2j7LS0l2Fjyfbu6mDsuKarD7GRllWW79ZkzZhvztfxpWm7ZN2ympsdyUNh91/ert39Z7lwPKks5LCTRbsQw+3+g7OuwgCmQDBjaUy+dGenQ9z6PIczuS77nrAu2RkX7//ROzDxBPt7+jsEru727FuoBGDjQrCFE5SpkzhJGzoholEKokTwyOYOHwY88eHMTE2jon5GDKWjWBrK1atWYfGphbkMgnMT55ALhWHUS5D17Wcx+cbaW/ture9t+OebFYbHRoaMvbt27fmbz7wgXtjydRafyAoSJJcgc5OOznN9ZYsC6SsQy6XoZoWZJeMho5GDKwbALwhPHN8GsOHnzEvfcXLb7zooku/+prXvKbw2c9+rHPk2Pgbn3j88bdKqqc33NymNLX3ItrSzQC7aBfQ29GEDevWoK+nF4Fg6GSrtyUQLJQJjs1rmJxMIb64hHRqEeV0DBIhSGYyaHaXHt+0pv2qK1772mFykpo/B9F/x1Noq/3Pnjpx0X88tv9jUEI7GhpbZQdOCtjQH8GWtV2IeD0nnZPU+riUyeP40WMYfeopTB08hOmREcSTSWQtCyVZAtwqvF43Ah4Jkqllt27b8dHmQOPtV95wA4f5Z75lvEIdKbDlFvtOAvx5HS35BV0qB5Q1lLdZB97Km0hqqCj9P9tbSO/+/TWtyYtxBbgCdacAB5R1t+V8wVyBla/Ajit6NpsCvgPLXkVxIIWTDEjSBG+a5O1yWrapo5H+VBUCF50ZqAgQYCKfLiEZK0GwFASCLrg9EoOTzlVgbjXWUktriA6EpHUcl6RjdKS1HXhZCcxhsJJFmzhAstLWzQJOGKB04KQTmlOZT/lrtur0EG/HFVm9/iqkJHalT5w6N9kcROcZNBmcPkYI2SfK9nWYbnly1657eNvqb/loUOfk9PH5Pz02V7hF9kV7Orp6hK7uNubQG4zK8FPyXDkv6H5ouol4IoHhI0cYnFw4fhwTExOYjCdQkmS09PZh1doNcHvcSMxNIT4zinI+DcPQdV03Uq1tnf9+ySU779hy/vlPrV+//mTM6OzsrOfDH3jfnb986uBrA+GwSmdFsqR41uVtQWSt3jagG1BKGtyGAVmW4G0MoW99P4ItLTgxl8Pjj/8CbY0Nj6xfvebPP/yxj41XB57e8sEP7nzssb03pfLFS8Mtnf6u/nWINLcDpga/YmDdYA9WrxpES2sbPB6Pk1xPCAogGM/ZGJkqYmZmCYlkErl0ArKegWnZSMamrG2rm29Z39fxhYsvvpgaFc/4QvdES2mv3Hd0/iNpTTyvIdosBX0eRH0i1g80YstgJyI+D1sa+ycFG0jlijhx/DhOPPUUpg8dxvTx44gtLiJjGE5it0eFx+1CwKNAIuXSug0b7uhqab71LW9/b7yWYPWMF88LcAXOAQW23mLTeXQfOQcO9Zw4RA4oa7hNXRpwJR8nXENFKaAMk979qZrW5MW4AlyBulOAA8q623K+YK7Ayldg25vaoralfNO27J0AZFESISkUIgqQPSLcHppETEDzbao/vX6B3U8holbUkFjIs1mUPo8X/oAE1UWdlw6krHoR2VxKCijFart3taW7Epoj0vekYJI6LSv30fxlBiidVuCqe7La8s1qn2wBX+agrNx/GqB0OClDm8vvd4BlZU6ldQqGVneegcrqCwThXqjSzW+66GEKqfjl1yhAQdjcePxPnxlL3eILtfW0d3cJPT0dWN/fgFURCb5KKjt11lJpNd3AXCyOkcPPYvLQIcyNHMfY+ARml1KwfX50r12H7lWDECwLcxPDSMWmoZeLKJaKeZ/Pf3Bg7abbm5tb77nuuutyv25D/u7jH3vf17/1nb9xBUIBr9fHzmE2DYA6J1lYjg3BtCCVdLh1HYooQA340DnYhbb+XiwWbew/fAyxqVHt4pdf/N5XvPKVd1x++eX56nt9+tP/p/exRx//69lY6k9DzZ0NA+vPQzDcBNHIoa3Rh/VrB9HT1YNwMMhaveksSspIEybB8biJsckMYrElJNNpmMU0VKJhcTEOP9KHt63vfvMbXvvaQ2camPOFL3wjYHqU//3k8bkP6IJ/sLGpWQz63Ij4JAdOruk86ZyswslMoYSxsXEc37cP0wcPYeb4COYX5pFmcFKC5XLB7VUR8qoQrKLe0dH54NrNG2+65pp3HT/T4+UfLK5APSqw9cP21SD4Wj2u/YVYMweUNVR1Rx74H9wUX0NFU6TvYLiG9XgprgBXoE4V4ICyTjeeL5srsJIVGBqC8N1DPZ+Dbb8NBCwoR1JFpyVbJlDcjoOSuiEl2t5Ng0RcArw+EZIM2LqBZCKPZKwMyVbg91EXpcDmUapqJTWZkk/qzGTuSQohK05K0XFIslRv+r7sKjgw9FcgJXU1LndP0j1hoLLS4k0h5qnG7Oqj1XgcOlvTeYFFnZIV4kjdkaffdiowGFrZdAYwLZs522ATUxKFz3gE5TOv2clDc371c3H/vn2eE4fH/+Tp4fitarC5p6OzR+jtbceG/gYMNEjwVmAyhb7UwVgydMzOL+DYwUOYOnQY88PDGJuYxGw2CzncgFXnbUFnbz+K2RTmxo4iu7QAXStZumFk2jt7vruqf81tLr//wLXXXqv/ps/oD7773Us/8alPfD1XNjsbGiJEEAWYpkOdWYATdVJagKAb8JQ1uOi56nEj2tWC3vWrYKk+HJuM4dmD+9HZ3PDUtvO373nXu957GjR86P77o9/813vet//IiWs6B9ZHVq3fCjd1F4oaVg90YrB/AE2NjfB6PCyoh36GNDip3sdmSpiaSSKxlGaBP6qVh64VEZscxkUbOm5Z1d3+D8/XRWnbNvmHO/89mMtl/vzoTPo9lhToaIw2CgGvC5GAjI0DzThvsAMNXhqIQ93CjnMyUyxhYnwSI08/jakDBzFzbNiBk5qGokThpArV40KQJXYbZtDvf3Ljls03XvDyP3xi+/btv3EvVvL3KF8bV+BMFdgxZG82LTx9pnX46x0FOKCs4ZlA4SSFlPxSKwUeJn0HqSmAX7gCXAGuwBkpwAHlGcnHX8wV4AqcrQps/pPudxJC/pYQhCjwE1kSt+C0dssUWAoMStLwGwcu2vB4RQYhYZnIpkvIJAooZmx4FBd8Xpk9n86spDMtKZhkgFMikKuJ3rRlnLZ5s3ZvB0hKArVwVt630u4tsrRvJ+GbzvdjAJEOL2QXJxTHCeBmbdggDLNUZ0860PIkk7Tpo5XXVr7RWSe3k4hzmrvS4Z7Oc5mL0rRhmDZ1YaZEkby3AaHvXH75g/z/sVd2gs43/PHjB1+798D0xxR/U39nT7/Q19eBjX1h9IdFuCsgmbpVKfAtahqmZ+cxfOAgpg4fxszwMGvrjhWL8La0MTjZ3NbB0rnnx4+hlF1CqVQwLBOzazaed/vA4Lrb9+zZs/i7WonHxsZCQx98/11PHTr6vyJNLbLicsHQdQZI2XxUBikdF6WrpMFL51C6Vfgaw+haO4BQaxvmkiUcPT6CxZkxXHjhtv9v7dpN/+eqq66KLf8833fffaF/u+eeW8ZmF/f0rdsS6l29EbKgozXiYi7KzrZ2BH0BKIrMXML0krKA4YSFExM5xOJLSKezsPU8VJQwNzWKqFJ8at2aljdf8dorfu9ZlHfffbeYNozoxIL+jqNTietVb2M4Eo0Q2o7dGJSxcbANm/rbEfaolbZuwuBktlTG+PgkTjz1NCaeeQazIyewMD+PZLmEEg0BcilQ3S4EfS7IxLB8HtfIK/7w8psvfsWqB3t7d/L5rGfrlzw/rrNegc1DdkiwkDzrD/QcOUAOKGu4UbsTQPfJ6Sk1LFynpWzyedJ/4N11unq+bK4AV6CGCnBAWUMxeSmuAFfg7FFg8xsHLpOJeZdtocMybSJSmMiAouDMjpQFKC7nSoEhhZSyTOByixBEC0ZJRz6rIZMoAboAn8ddSf0mDGrSZG/aNk5Dc2iuBoWUDE5S8EgdlZXgHDqfUqZt4NV5lXQuZQWIShRMijabWVn9Mj4VluPcYg5LRiRPpXtXHjk1f9KqpHwvk9920rqrnkwGapbDT/Y7BZTUZWbaME0cFQX7nbmZbT+/9trbqWNsueHy7NnYF+lI7r77sGK7Z/7wx0+OfgquyNqu7gGxv78NG/oaMBCWGJxk2UPMjWqhUNYxNTOD4QMHnOCVY8OYmJlGolRGsLMba7ZuRzjSiPj0GGJTx6EXMygUC2WfN3Bw4+Ztn2tu6/zuVVdd9Zzh8Of/7pPvuvOb3xzyBiKhYLgBmq7R+ZUMUFqWDdGyINAEb02HTzfglkSooQCaujvRtqoPZcWLsak5jI8ch2SXMls2bb7poosv/vbyVm8q9QP/9m9NX7rzzs+mdeFPzrvgMk+0uQVeqYzVA91Y1d+HaCgEl8sFSRTZnNMywFyUR2c0zFAXZTKFcrEIDykhn44hPnXU2LGh8/q1fX3//LKXvaz4XLdz37598s+fGe2LZwvvHp7J73Z7Q/5wuIEF2bSEVGxc3Y71/W0IuhT2WaHnPw0ryhTKGJ+YYs7J6QMHMDN8HPPz1DlZZs5J061CdakIeFW4JMuWBWFm64Uv/9Ca9a33Xn75c9+P57oO/jyuQL0psPUWewxAT72t+4VYLweUNVT1pgVArQzmrmHZui1lkxtJ/4F/qNv184VzBbgC/z97ZwJnR1Vn/3Or6tXbX+/7kt7T6c4eAgmEJYpGGR317xgdRR0QjYorjrtCdMZlRkdAHR2ZcVxGEVcYF1xwDCIiBEK2TtJJd3rf93791tru39+t6iQoYkI60Enfl099Xqe73n1Vp+ol4cs5v7NgCkhAuWBSyoWkAlKBxaTAJa+pqOQs8F3u4GLbdDRyM6p+rxzHg5TU5u0LuHMnyc0o3JAEHXUiTzbMjIXEbAaJaRO64kM05BcQU+xDgJPgpICU9HsG3ZtHKWZSEqwUMNKbU6nRnEovDi6+T25LNxr+hPmT825IL95NfknXXelGt+fdlad+dWKgpHBTukBz3o/pRr7dzYWU3kqCrFEkGLAo7m2Dtl/5dfXtr7xmd4fXu0K7nzrecjFd4nN2LLt27dIe7RzYfLR/9rMsULy+qqZeq6uvxOr6AtTlqSdj3fNw0jDRNzCIjv0HMNB2EP3UEN3fj1nLQUFtPZav3YBITgyjvZ2YGDgOMzsHI2sk9WDkwcsu2fKJK7dte+TUIpzTObHHHnpo1Yc/8v67JuPZ5vLqGoVctKnEHGzbdlm2YwtAqVg2wlkTEQB6JIRIaREqmuqQU1KFsXgavX39GOrrRtSvdq7fsP4d69at+80111xDnPHE476f/mjF5+/45h3+3LLNqzZepoYDKsoKw1jZ3ITS4mJEQiHoGs11dW/mKRs4OuGgq3cO4+MzmEskocKAaszi+JG9qC/x/7impOpNr371S0ZP51ypPb1nYmj94Gz6feNz1tXR3KJAfl4uogEVFUUhrF5eheZlJYjpvhNuYptzzBKc7O5D5759GDx4AEPezMkZ4Zz0wSE4GdQRDQUQEP+TARPrNlz8T4o/9vV3yMbu07k0ch+pwF9VYMMt/G7O8dK/uqPc4a8qIAHlX5Xo9HbIsYEbnxAYOL3Xyb3+sgKMb2W1bfdLiaQCUgGpwNkqIAHl2SooXy8VkAosSgVaX9GqB7X0l5nK/t42nSCoNMSbPSlmUZID0mv2dstyIH6v6xDQkaCgQ+UZSQNzUxmkZ21EggFEQj4BGmkfinjrHtScj3qTW5J+7oJJcma6Td7i5zSzUnPdmvSeLqA8tSzHa/I+UXHjlul4xd4CKLozK10Q6TXkuPqLmm76gnLj7rOIHs/jTz4f93Yj5EQryWHmJYJhk5uS7JQct+k2++T27XvHT1DRRXmFz81Bcc6Vb/7wxysfOth/q+kruKyqpsFfV1+N1Q1PnDlJ704zPFMCTg7gKEGw/QfRR7Hu/gHMco7ihiYsX3cRdL8fQ93tmBnphZVNIZvJxMuqqu5pXLH2X6ampo7t3LnTOtOzIYj6i5/86DO/uO/+N5VV14Zy8gowF59FOpV0XZQ0oJRclDZHwDARsywEaM5iXg4Ka6pQUlcPJxDF8Og4hgaHMD40gGUVxburq2v/8eUvf8mfAdM7vvzll/3oZ7+8vWHt5qpltfXICQDLm2pQU1WN3GgYQV0XMW8C22kO9CYYjvanMTQ8i+nZOdiWgRBLYuD4YVjxwbEtG1a+8lV/99IHGWN/8dzpWnzs61+PBbK+F7X3Tr171lBW5+UXabmxKHKCGqpKo1jTXIWGiiKEdMWbewBYNLMgmUF3Vy+OP74Hg21tItY9NjaKGZo56dPASQsBJ/0I6goUbs80Nrd+Rg/n/fsHPvCB2TO9HnJ/qYBU4MkVkE3eC3dnSEC5QFouzwAvl5MHFkhNdxnZ4L2gcsrFpAJLWQEJKJfy1ZfnLhW4wBXYsL3mHYqufMwxnVzbdMQcSl9gPuZ9yjxKgoQqh49+7nfdkAQQARtW1kJ6LouZiQycDJAbCSIY0NxYtwcp6WuKe+sELgl8epDSBZRuyzcBUZ3cl+Jn7ia+77ko1fm5kwJAClAoNjHLct49ecJt6bJIgSBpnxN2x5NzKuerdGhWJRcDK8XAS9cO6aWaKJpMcWDhniSeZQOmgbjj2DelI/7v7HjxntQFfos84fSogOXXP/l91S+OtH1m2gi/qLy6MVRbV4XVTUVoLqRCHBcWz8e606aFvsFhHNu3H/379qLvSDt6BgcxB4bS5hY0rF4HTVEw2HUEc+N9VIaDZCo109Ky9r8vWrv+1v/3mtcMnU079IO77tvywQ998Bu2EqitX97KTMvC1MQYjGxWAEpHXFQHPstGxDARZQx6NIJIWTGK6+oQK69GyuQYGx3GyPAoxob7UF5W/GBdTf3NK1c0Prx9+/YTEWzOuf72t7/9X0fmzDeu3XRVKC+iobq8EI0NjSjKz0PI74OPYt4UrWbAiAEcHbHQMxDH5GQcmWwWOs8gPtqNnva9uGpD40cba6tu27p165M2ld97773+Q8cnyqeSxj90jMffxLRwcV5egSjDyQ1rqKkowJrmatSW5MKvUgWUC+VtcEzHUzje1Y2uvZ5z8ngXxsfHMGuaSJPLMuBHIKAjRqU/fgXcNmZKKytvj+SGbtu587aZpXTPy3OVCpxrBTZ8hL+UK7j7XL/PUlhfAsoFusqXJ4DL5xZoMbkMwPaxugPrpBJSAamAVGAhFJCAciFUlGtIBaQCi1KBdS+ruVILsm/ahlMl5lBSJDtATd1um7fYVEUU1ZCD0uenlm43tk3AUWE2bMOGkTIQn84iPmVAh4r8WMDdj2LdBDPJiUnwUYNwVIqGcAKYHoQUhTgKg1/Ewb2o9zykpKg3OS4JUHqlKwK1UB7bZYonmryJQ867KUW3zpP9CU77sPnO7nkX5fzl8aLeHqQkfyVBLMdhwkEpAKXNYZhOGwd/0+v+/lWPMLZzyQxp+sr3vpczOmbs7Bw3rq+oborV1i/DyqZitBb7EKGZoqfAyaxlYWB4FEf37kff/n3oOXxYOCcFnFyxEk3rNsCxTAweP4zU1BC1WDuO5UxFcvO+WBjM+fynv/zls7ZvEDR87zvectt9v33w9XXNq0NFpeWYnBjF9MQ4bMs+4aRULAcBk1yUNsKBgHBR5lRVoKi+CXpuIVLJBMZHRzEyMoaJsREUFuTvraiu+Oem1a3/t2P79hNuwp///Oer//t/vvutZc1rW5fVVSuFUT+alzehrKQE0WDAi3nT5waYpbKcKY6uvhRGJ2aRSKbBuAF7dgjHDuxGTZH/Z9XFOW944xvf+ISYt3BN3vb1WH5e7sVH+wZvHJo2n+cPxYJ5sVxEQz7kR/yoqynGmuXVqCyIQvegO30cLAeYjCfQ1dEpCnGGDh3CcE8PxifGEbcs4ZxE0I9A0O86JzUm4GRhYd7ngwq/7dNfvvOsr8mi/INQHpRU4FlUQBblLJz4ElAukJayIGeBhPSWYfg6qz143cIuKleTCkgFlqoCElAu1Ssvz1sqsAQU2HhNTanp53dyzi9n1GFDINCn4kRhju4BSopOMwKUCvxBFbqfiY3cjY5twUiZSCaymJvKIh23EPH7kBfzwy8awCnq7W6agJQMPgEjIebaaZrrZVS81m8ClwQwyUHp8xyWImL+JzBSxLlFu7cX8XanSJ4ElIJieo3e9LUHN0UknAyYItJ9MqTtUkZBL09EYSnefcJFSbMoLZpDyQWktAzlB6at3HT99W39S+BWATV2/+BXv3/zvt74R8uqmvPrGuvR0lSCVWU6crVT4SSHYdsiGn1k/3707HkcfYcPo6evT8DJstZVqF+9HrZpYPj4IaRmRmBkUlRbM9i6ctWtOYWlX13I+YaP/P7+zTfd9J5vMraN8bsAACAASURBVF+4fuX6i8kKjMG+LiTicdiODZsusu1AtSxEDEu4KIORMILFhSioqUVedR20QBiJuWlMTkxgeGQcw4MDiEZjvc3NDV/MySv6jhUfHZ2Poe/8p0/s7BmJ37T6oo3R/KgPDXU1WFZZJWLefk31gD+Q4Qw9CeDYYAZDI3OIxyl6bkJJTaDn6OOw5sb6Lmld/opYzLdn+/btNrlXf/WrX4X2dIxUzCQzrxyYSP5D0lCXRXNz1ZxIBNGAhuLcIBobK9BaV4HSnBCEydkj9obFMTYzi+NHO9C7dy8GD7VhpLcPE1OTmHUcZHUfEPAjRG3mIZ8LJx1zJicv7/NRTcLJpfAZl+f47Cmw4Wa+lwNrn70juDDeWQLKBbqOHxpeoIXkMt4/LV/Gag/eI9WQCkgFpAILoYAElAuholxDKiAVWJwK7ISy5vGqz3CONzOFhRQCTarb4q0FKM7txr05p8ZjQCNAGZiHlK4rEo4Fy7CQThpIxrNIzBgwUzZygrqAlAI2knPSg5MCUgpAqSDkBwI+go9uAJXeOxAgMOkCSoqAa2w+6u0W9ZxgLl7GmxCkG/Om7WQ1DpX+nBg3STDylBpwEfn25lGeLMuZv0S0r9uiI0pzCGaKJDCBSRdQ0izKrAXDyDi3+IL40rXXdsYX5wVemKPinGvf++mvXviLR7tuzSlcVrusvlFpaS7HmsoginyuI5AepJHhcIxNTuLI/oPoeuwx9B5sQ19fH0ig0tbVAk5aRgaDHQeQmR2HYaRs07R6N23Z+qnqmvq7tm/f/qSR5qd7Jpxz9f3vetsnfrXrt2+tbV4drV/eiumpSQz1d4t5lJZwUtKF5fCbFqKWJcpk/DkxhMrKUFBTh5yyZVA0Fcn4JKamZzE2Oo7BwUFYDss01C/736L8/DuqS6r3Fhb64sFgbOX3f/rLuxpXrV1eXpTLqipLUVdTg4LcGEK6TwBKujVtBgwbDO0jFvoHE5ieScAy3aKc8d6D6D1+xLpyw8oddVVF3yULZV/XSK5f8z//WM/Ya4dn0pv1QCSQm5uLKM2JDPhQVhzDiqYqNNWUoiCoezzeRfYZ28bo5DS6DrcLODl05AiG+3oxOTuLOc5h+HUwgpMhHdGgHz7F4YrCZ4qKSj4fK4zIWPfTvfnk66QCp6nA+ps5tfu+8zR3l7v9BQUkoFyAW6PaAK6dXICF5BInFGBqLavd1yMVkQpIBaQCC6GABJQLoaJcQyogFVi0Cqx6SeWruYPbFcYKCRAqmiLi3AQryS1JbkpyKxIAVKkkx68gGFFdJ6X4mQ3HsmFlLKSSWQ9SmrCzNgrCAeREfG4BjgcpCVZSZFv3KQjoQISAp0Z8yJ0XGQgwBMht6c2m1BQHqrB3ukU9YpoeRc4FWfTA5jygpO97cXRijPPxbze47RXn0Neei9Jt7T5JLk+W5rj8kqLd8x3fNK6QSl8sApQmYJgchsF7bNN5c1op+M2OHXvMRXuRz+LAyLl3990/a/11W/+XnEDRptrGFb7m5VVYWxNGRUA5AY0JTlL5ysRsHMcOHcKxRx5F3/4D6OnuRtx2ULxyNepWrRNwcuh4G9LxMViZtK1o2vEVK9b8kx6J3f3e9743eRaH+hdfuv/RR5d/+MMf+Prw1MzF6y65QikoLsNgfw/GBvuQyWSEk5KOX7EdBE0LMcdxI9kFeYiWV6CgpgGx4jIxhDSVmEY8kcLoyDj6qYl8LoO8/LyuutrqHwYj+g81HzumZu2P24HYdXXLqsPFhblY3tSI4j+ZQ0n38JTNcHTcQc9gCpNTCTEbU7ESSI514NDe3VjZWHWbPxb+mmFo68em4i/vHpl6jg09lJOTi2g4hHBAQ07Yj6qKIixvqkZDWT5iuubOXqVZlwCSho2RsXF0tR1G3759GGpvx+jgIKbm4kgwwPD7oQb9CAd1REI0oMFyNIVNVtc23h7JLf6iLMQ5F3ekXFMq8EQF5BzKhbkjJKBcAB3l/MkFEPHUJeT8yQUWVC4nFVjyCkhAueRvASmAVODCVmDV82uaud/6HsBaVZUpYuak5roGNf98aY5okhHuL5o/SYAyGNWg+1WB/QhQcstCNk2Q0kByljaT6oJRGNGRE9bh88EtzqGZlDTP0ivECQYUhHR3fXI50hzKcMAFmqLNW8yedMt0BCSlr+fBpMhqu6lsASaZ6+ZTqQlcgEivo1skt11XpGfWfAKYPDnFcr4fhwvnGac2k/kycGr05uSgJFDJXECZdWBY9s9tQ7nxdW/v7b4Q75S7796Vu7uz47OjmeCrahpawo3La7CuPhe1EQWCT3uY2LYdzCTS6OjowLGHdwunXs/xDkxlDBQ2r0DtuothmyaGOvcjOzcBI5u0Nd1/dNMlV328ur7+Jy9+8YvPaeHQl27/7Ou/+rWvfypWWF62YfOVYIqG/u4OTIwOiYIainpzzqGZFsKmhRzGEAqH4S8qQKyyEvnV9YjkFYqamWwqjlTawMjoGAbIiTidgAUfcnKix8pLSn4cC2kR+PVXNTe35BTkRVhTYwPKi4sRCejuHErvfpzjwPEZjuODGYxPJJFJZ6DYSVjT3eg8+BjmUqkuLVIwMTaXWWVZLBiLxhCNhEThDo1RKMiPobqmHI11FagqiCAs5oC696wFhngmi8GBYXS1HcTAgQMY6ejA6NAQptNpJBUFll+H5sFJcmLCMR1dUwdXrln7OX+k4L8XMmp/IX425DlJBRZKATmHcmGUlIByAXSU8ycXQMRTluDsdlZ/4F0Lu6hcTSogFVjKCkhAuZSvvjx3qcASUKD1Fa06S8/8B8D+niksQPFu2gjO0UxKPaiKaDcjFyUBQ02BP6QinKPBH9IELLRNG4w5sC0LmaSJ1JyBVNxEOmGC2RwFYV04KWnMHbknhYOSItxUoqNCzKcU5TgCRDKEAgyRAIFGDyg6zslGb+ZGvcXcSnrmnrOSub3dxCEJgAqnppg76UFK71rOOyK94XxPaNIhv6TroqRfTJSKkKtTNIF7oNItfnZLcwzTQTrtWIaj7NQ13xe37+g6UZhyIdw6nHPfV775v2/8/dGhj1c1rCyoX96ItU2FaM7XEPQa093GbmDOyOJ4Vy+OPrwbPXv2oLf9CMYTCcQalqP+ok1iVunQ8UPIxkdhGilb9/uPbrz0ilvWrbvkZ5deeumJNuxzpdvIyP7wxz702c8+uPvx19a3rAm3rNkIM2ugt6sdk+MjyGSo2ZuD29TqbSFCTkq6F6NRBEpLEKtahvyKGoRiudCYCSubRMqwMTY+hf6eLkxOziBhACZXocBJNzdW+y/ZdIlSkBdFfX09qivKEAv64acmb3LwMoYMgJ4ER8eQidGxFNKpFBQnBTY3gIH2x7GvvQuGnoecvAKEgwEEdA1hvybck8WlRaiprUJdVSFKwj4EaE36gHLAcIDpZAp93X3oPXgAQ20HMdzVjTFq6s5mkFY12ARLad5kUEeY5izYWYsx1r3xkiv+ZcXqtXdt27btnLhZz9X1letKBc53BTbcwndxjqvO9/N4No9fAsqzVD/HBm4cO8tF5MufoADjW1lt2/1SFamAVEAqsFAKSEC5UErKdaQCUoFFq8CqF1W+xua4TWEodAGlImANubF8IdcpqSgUweYCUPpofmRMQyRHE7DFMVxASXjPNEykk942R5DSOgEp8yIa/DSzkApwPBelKMOhOLlwWHIxn5JgJUFK2tfhjoCgtL9KUJMgJrkkmVvcQ39Ik6vSBY8nm71pHSrcIeelV4dzQn8R8ab9hf1vvhqc1vD+yKdzdQCTinFs1yV4qvPShZRu5Dud4Uhm0Gdz542dU8t/s3Pn/daivdBncGAU7b73V7su/unD7Xfo+ctaG5a3qCuby7D6SUpxso6N3sFRHH70UXQ9/Ch62w5idGoSwepa1F18KRRdx+CxA8jODBOcdFRN6bxsy9U3V9Sce+fkqadMUe+PfPSDX+kbmbisdf1mrW75SqQTs+jv6cDEyDCyhiFcstyyoVs0j9JEVPUhmBNFkCBl5TLESisQzcmFjxrszbSA2BNTszh+/DjGx8aRNhwkMiaqK0pxxRWXobgoH7W1NWiorkIkFETAK8qhe5dmAgxkgGMjFoZHUkglU2B2ClpqGKOd+9F2pBN2qBCx3FwENRWhYAB5eXkoqapEdU0pqgtDKAho8IsPAt3lDGnLwdjEDHo7O9F/8ABGKNLd34+JyQnM2hYyZGUOUFO3LuBkSNdgm1kjNzf30Or1Gz5VpUd+9uIdO86pm/UMbkO5q1RgySiw/qP8XWC4dcmc8Dk4UQkoz1LU1WngRTNnuYh8+SkKzLC6g3lSEamAVEAqsJAKSEC5kGrKtaQCUoFFqcCaF1VW2Ny5y+Fss6oq6vzcSRpi56OyHHJRClelA1VRoOmKcFZG8sgVyWCb9H3aCNzZMLMWMikPUibo2RaQMj/kQwFBSt11NxJoJDhJbkeCkTSLUjgp55u8FWoKd6i0QzR++1QXOBKcpLmUFOsmLEOAkkDpPGpkIu7tQlCKjFPRDn3P80EKEEm/o7mDGmFYYY+kSPj8HvRbTuXOMCwICCV2oWcCQSJZTnpwUDtyIsWRyfL/TXP17de/Z+iCaPW+e9eu3Icf6bh92g79XX3LmlDzimVYVx1G+RPmTgIGdzA6NYvDe/ej4+GH3TmHAwNQikpQu/ly6NEYBjvbkJ0agGmkueM43Ws2bLqlvKrm7te97nXPuEvvrm9964W33vbZ2wzma1y1YQurrm1CMjGFga4OTI6PwTCysMTAURdSCieljyBlDMGSEkQrqpBbVolYDjkpLThmRowDmE4k0dXdj4GBQVGkk5+Xi8uvuBzVleWorK3G8poa5ISCT2jytkFFOcCxMRuDI2kkEymoVgq+zChm+w5g38EjsHy5KCopRyQnB/nFJSitKEVFWR7KYhpyfSp0ck0yhaYpIJ42MDwyir4j7Rg8dBDjx49jdHAAk3NzSJ4ow9Hdpu6gDj99MBwjAyiPbr78eR+ra2x88Jprrskuyj+k5EFJBS5wBWTM++wvsASUZ6nh300DTeTtl48FUYDh66z24HULspZcRCogFZAKeApIQClvBamAVGBJKNB6TcW7AeWjDDyPot0ukYMoyfGHVWg+RcRfKYKt6qpwUQbD1PTt+g41Ed925z7STEojYyKT8kBlgp4tcAsoDKkoovmV5NRUODTFbewmtyM1e9MztXcLcCmApDvlMKRzhFQ3zn0SUlLTNsFKLpq/xZEQvDwBLN3ZlUFv3qULML3ebsaQygjiiIiunGg9nv/5/GzFjOXAtNz5lQQm6eFK483N5EA6A8wmedYwnQ9okZL/2n7joQVton6mb8CdO3dqy5avv/b+Q/3/Ut24trippQnrGvNRH1Xg9ygwAVyKuk+nMjh65BgO//736H38cQx2dcIMhFB58WZESsox3HMUybFewErB4WyY4OSyuobvLHRb95lo9JEP3vTGn//i17cwPVKxYt0mVNc2ID03jYGeTkxNjLkzKW23/OkEpFQ1D1IWI1pVjfzSCuTkxijODcfKCkiZymTRPziCo8e6kM1kcOlll6GxqQ4V1dVobqhDXvgUByUBcgDjFhdFOYMjWSTmUlDMBPzGGFJDh7B3737Y4UrUrliLgpIiFJfkoSQ/gKKQiphPhaYoYm4ruTan5pIY7O3HwOE2jLYfxURvD8bHxjCTySClzs+bpDi3jnDQB7/KkM2mE5WV1b8uKi79ZH5J5b4dO3ZckEVPZ3JvyH2lAs+mAjLmfXbqS0B5FvoFHOCm0bNYQL70zxRgeBmrPXiPVEYqIBWQCiykAhJQLqSaci2pgFRg0Sqw9gWlNSa0b3PgEkblzF6RB1PdNm+aQykAJc2QJDhCcyN1RcyR9PkVt/zGcz8SvrMsC2baRCbtzqXMpGxk0jaYxZEfUFBITkoBKV0ISXMpqdXbjXozUcDiNn670XLaL+rn8IuY93yjN0PGtMXrwz5FuCZF07fKoXmlOcJhyVx3Js3AdAtK3MKd2ZSDVIYjGlARDTBQ5Y/HIL0mZCBrc6SzXhnPiavnAsv5FnByWE4nHKTS/CgHv/5V75962CtRXrTX+6kO7N57/6/+F3vav6bEKjc1rVzrW7WiDCuLNcQEBHYfFHFPWhZ6+oZw6OHd6HjkYQwcPoSkYaB4/cUoqG/C6GA3Zoc6oVgppNPJ2VWrLvpETnH5V57t8hXOuf7xj77/vff8+Kfv0ML5xc2rL0ZlTS2M1ByG+7swOT6KdCYL07TAbQuqaSNiUtxbRSgaEU7KnMoqFFSUIxKNgnEHlpV1HbWmjfGJSQwMDqFiWS2alzehrKYGLU0NotXeLyLeNKfSReGTNsexSQf9I1nMzaTgsxIIWGPIjrZjz6OPgRW3YO2Wq1CUH0JRzIfcoIqwSqMVaPwAw2wqi/GRUQx3dWHk6BFMdHVhYngIU9PTiNu2F+mmeZMenAz4oHCTW5Y929i0/LsrVq/5N58v3LV9+3YydMqHVEAq8CwqIGPeZye+BJRnoZ+Md5+FeE/2UtbD6g7ULvCicjmpgFRAKnDiv8WkFFIBqYBU4IJXYNULy97kcOWfABQLQCmKN9zSHJpLycjRSM5GnwcmCVCS61E80/c916NK9I6gjQUjY7mQMm3B8CAltzjy/AqKgioC4jVuOQ5FuKmvQzR8E1CkmZRUlENuPe7GvGP0Pp6Lkr6fyNrCxZYT8olIN83KPDGnktKvHowULk+adUlRceGwBBJpjrk0+dgURP0MOQQpiWCSLY08cQpH1qboLIfC5yPlJ92TIhPOaU4mMJeiFmuH5lJ+i5m+927fOT5yPt4wVIxz63/e+f5Dw6n31K/cmNvaUo91y0Inot3zzlLT5hienkXb4wdw9KHfo2/vXkxNjCPa2IzSVRswMzOBiZ5DUOwELDObLC9f9gU1lPuvn/70p6cXgy7t7e3RL/zbpz74u4cefaMvklvY0LIe1XV1sM0Mxob6MDM5jlQqhWzWEE5KZhgI2TaijCEciSJUXITcqirklZTAHwqBOxadJyzLgeM4mJmNQw2EUVtbi4qGJrQ2N6AkHISuqtBUd6wAaTltA8embQwMZxGfJUAZR9AchzPZgcce2Q2togVbtm1DYdSHsK6JSDe3Xbfm1PQMxvoGMEZt6cc7MTnYj6mpKcTTaSQYg6X7oAT8CAUo1u1DUFfBbdNybGu8rr7pKw3VDV+67u1vn2Du/AP5kApIBZ5lBWTM++wugASUZ6GfbO8+C/Ge5KUy3r2wesrVpAJSgRMKSAelvBmkAlKBJaPAqr+pzuO29RWH4W8ZmJ/4m9s4TK5ERZTbEKgkQKkSRNTdwhzhpiRoSfBQzJR0ASDNrLRMF1JmaSNImSYnpQPH5Ij5GIpDCiK6F91mroOSIKI7l9KNflPi3KYBkJwjojOEdYKMjMK1SBo2OHcQ86uI6FTm40ATxTmuM1NhrkuTuKNo+fYAJnO4mC1JRTeiCMd228NzAgp0sTOdA0fG4uiZcBDWmYCYguTwU2p3PGJnmByTcxwpgycY5zcWOvnf27qz57wb5vS7Rx5f8+2fPfiNWHnTyubVa9X1ywvRmKuK1u75B7knpzMGjnV0o+33v0fXo7sxdrwTamExKi6+DBnLxuDx/dCyM8hkEtm6+ubvV5Qt+9D43Nzgzp07iQgviseuXbtyv/21r71/9+OPXa8EIsVVDS2oXFYngHlyehxzM9NIJJOi4dukAh3DgN+2EAZDJBRCpLAIOWWliBTkQ9N1OI4l9qN7PpXJQAtEUFvfgOrlK9DashylYb8AlCp9ljwH5YwNdMzY6B/OeA7KWYTtMThT3dj7yMPQyhtxxTUvEmU2sIFsJou52TimR0Yx1duN6b5ezA4MYHpyHDNzc0g4DgxNAw/44fPAZEj3ic+Rmc1mQ8FQe/OqtV+ozcn/7vYbbzyvRxEsiptIHoRUYIEVkDHvpy+oBJRPUzvZ3v00hXuKl8n27oXXVK4oFZAKCAUkoJQ3glRAKrCkFGj5m7LLYbE7wNhyRjxPdHAwKIoLKGk+JUFK1QOSItrtgUqfAJXkpHQBIWh+JAFAw4KRdSGlmbGRpS3twDQchBWgOKgg5oeIZdPcSYp+Cwclzab0ZluSo5HmTZJ7kgAluSlN2xGQkTOOkMKRG6C5fF7TN709xdHpeKn5myAlQSFqJyd3qMhnc0EuKZrrNnOTO5Mh4mcIe1HzOcPBnm5DvGZZgYZoUBFuSjovtyzH/YuCCnemEhwzadH8/ZDG+BtefsvcUVGufJ48hHvyjm9//Mho9q3N6zbHVq2sxZpyPwp1t4Do1LmcfSOTOPjY4zj28B8wcGAfspaF0g2boeYVYaDzAOzEKLiZcoKh8O9WrVn1zlXrLz+0devWRddwft999+X87O7vvuvBhx97k+Eo5QXly1BRXSMaty0jiUwyiVQ6iUw6g0wmA8swoJgWAgDCgQCiubkIFxYgEI0KiG+ahgCaiUQCkbwCLG9eibpVa9Ha0oTSkA6/qghA6Y14xYzN0TFto38kg8RMAn4rjog9Cj7di32P7YYRq8L6q64WN1VqJo65yXHMDQ4iMTyI+MgQZqemMJtIIGmZyKiqcE1qfh2BgA+hoI6gj+Lk1DhuxoPhyEMbNm7619rGFQ/JMpzz5EMpD3PJKXDRTn6V42DXkjvxBThhCSifpoiXJ4DL557mi+XL/lwBGe+Wd4VUQCpw7hSQgPLcaStXlgpIBRapAi1Xl/8jV5X3M8YLBczzot4nAeU8pDzFOTkf9RaA0ot6k5WR+rBtG5ZpwzBsASgNbxOg0nAQAEORH8j3E5R0IaUoy2EeqKTZkQrVsnDh5iSQSfFv+lr0+dAzHEQ1BSFyXCpujNudl0k/86ClIsqZvYbvk9MmiSEKg6bDQNFlokcESaN+IJ7laB+xMZWwkRtgqCvUkBsiSOnSSXcVdzbjTIpjYs6h93A4lE8aZu7nXvPpvkURaT6dW+3hh/es/u+f3v+tgmWrWlrXrlPXN+WjLkKOUg/CghynwFQygyNHu9D20EPo2bMb04MDyKlvQqxxBYYH+5AY64RmpaBpvp6LL9lyoz+W/5vrrrtu0bpJH3rooeCDD+y6/gff/8E/JrNWdTSvSMkvLhclOAFdA+M2TCOLdDolHIxGNitApcY5ArqOQCiEYCQMTfcLp2/WMJCYSyKvsAgr125A04ZL0NpcJwBlgAAlUX8P+E7bHJ3TFvqH00hMzyFozyDmjMGe7sPBfY9jOOVHVW0zrMQc0hQ7Hx9HanICyfgM4ukUkpaNrKK4cW6/Dr/fhyBtugpdU+DYlmlZxszy5a3frqtd9qVwfpmcN3k6Hwa5j1TgWVRg/S18Ghy5z+IhnJdvLQHl07xsN44B5KKUj4VRgOE6Vnvw6wuzmFxFKiAVkAo8UQEJKOUdIRWQCiw5Beqursvxq9nPM4ZXMCBIRG8eVIqYN0EWAoHCRamIWPeJwpz5WZT0M+0kWKS4t20S6HGQzZ4ElQQpDYNDcTgKfBzFASBIsydVN8atUqO36s5/JBxIa87Ht30CZjIBKelnPgEpac6kO6eSZlH6KA4uAKW7EX9MZR2E/QoCRC49ByTjNOfSdUaSK5PqjIlBZi2OeNrBXMbBXIqLmHd1viogpY8spp4VjpCTAJRJmr1JkXH0OTZuKAold23diUXnHPzTm3rXrl3aweODHzo0mHx380VbctesrsfqUh152hPdkynDRt/YNA7u2YdjjzyEobb9YIEgilZfjNlsGqPdbfA7SdhGJrX+4i03Fwej/3ntO94RPx8+RDd/4AMv3/3ow/84PD65hunBYCiWh1gshhgV4wT84jPgOOQAziKVTgtISfc1I5Du80GlmxNM3GPpdBqFRYVYu3EzVmzagtamZSj1+6ALQOn+04Ky7gQoOyYtDAwnkZqdQciaRq4zAXOmHwcP7Ef70RGEEICTTiI1F0c6lULKNJFxHGRVFY7uA9N9AkwG/OSYVKBTYRQ4zGwmqQcCbY1NrXcUlFZ870YZ6T4fbkN5jFIBrL+Z7/zjX0G3SCnOTAEJKM9ML7G3LMd5GqI95UtmwNR1rHZfz0IvLNeTCkgFpALz/90qlZAKSAWkAktOgearK1cpKv8SGDYJ0+KppTki5u3Oo1TF3MknzqEU8yh97j7khqRyHZfI0ExKByZtWQI9NJ/Sdr82aC6lgxwVKA1wRKnMRnPdlAQYxRxMMT/SnU+pksvSg5f0e8EJHRtBhSNCDk7aj8CkzqAT2GRuZJzi4FNUegOgKEQwx4VFFPlmBCgVF1BatjubkiBSxqAyHgepLBegkuZRlsVURPyKEIaAKb3XTJoi3g4cy2345g77rongTX//rxNDi/0G+sMf/lDzPz994DuxipaLVl2yUVvfWITasOuepAfhYdtxMJUycKSzTzR39+x5GPHRERQ0rQQrKEb/8YNAagJOZs6qbVzx/ar6Ze9505veNXI+lbD84hc/Wf/tb3zjpsPtHdsMhxWoeoDp/gAikYiAleFwCBpFqakAyrREpNuy3DmoNESAYCWB7VQqgeKiQly05Sq0XPYctNaVoYRGIShPBJSTtoOOcRODQ3PIzEwhbE0hBxMwpodw8FAbHv3dAZizaVicCyhpKgy25gP3aVA9MOn3kWNSgY8+j4zDskyDWrrLyiruKamquqOoqHz/jh07iLnLh1RAKnAeKCDKcji6pYvyzC6WBJRnppfYW5bjPA3RnuIlshxnYfWUq0kFpAJ/poB0UMqbQiogFViyCjQ/r+z5CsNtTGHNlGIm+EKlOTTbUcyipI1AJAFBASm9du8T3zsZ92aqG4OmeY+OxWGaNrJZmknplugYnrPSMjkC4CjRgQLdgZ+gJM2+pNIb5rZ907Pb8k2bGwMXMy8JJzoOAjSTkr5PzjZyWXoAkfYnyDmb5UibBDIVFIYZAkThbO4Ftd3ZsELj0QAAIABJREFUkhYdp8tUYTgcKZMLUJkyOJJZjqDGkE+FOl75DjnWsjYTYNOhjVOnCUtwzt6eDCfvum4nFm3EmXPOvnv3//7D/z3e/a/LL7qycO265VhdFkSBz3VPesoiYzoYmIrjwP7D6Nj9BwwfOgA1EEJO0yqMTgxjdrgDup1EKBw9etmVz33Da17/ht2MsfMOjD1w771Fv3jg/6598He/vyGeTNfaXAk6TIXPpyMcCSMSjiAYDEDz+ahKCbZtuxvdM+QUtiwk5mZRXVmGTVf/DVZeehVaqgtQSOCeZrl6/7Igp+WY6aBjLIvhoRlkpscRdaaRi0mkp4dxsO0Qdj2wD3PxDKDrgswznwYfld74fPDrKvzkmKTSHQZYVtYyDTNRUFT8eH1D4zfqcot/JItwluwf3/LEz3MF1t/Mb/ujyfqd5/lpPKOHLwHlGcpdYgJvmDjDF8ndn1IBptZK96S8R6QCUoFzqYAElOdSXbm2VEAqsOgVWLGt4rV/ZIL/BPBlLqD0SnM8QKlo3jxKehbzJ11IeWITrd7uJprAhcOMXF4U97ZFeY6RMd25lFmKezugRmzV4ShUHZT4OSIagUm33Ea4FQlUqhTZduPcAZ/7cxG3FvMkbYQUhjC9L9k/FS7ck7Q/NTSnLAcJEwIkUmS7OKIiRADVregWsyjpSwccFvX8OBwZG2IzLAepNASwpIh4riiQYW7JDrkmhXPSBZScMzg2u19h2hv+362z3Wx+ZOUiu+r9/f3B/7zzR/8ZZ3kvW7tla2j9inI0xBQEvNmTQgvHwWzWxtG+UbTt2YfevX9AfHgIOdUNsAIh9He1QTNmwK105qLNV9ycX1z1lWuvvfa8iHb/pcvxja9+dfMfHvrt9QcPH7kmmTYKba7o5K5lTIFORTTBIAL+AFRVE85J0shy6D42YKSTaGldgU0veDlaN12KltIo8gWgdP9ZIRypHBjK2ugcSWNkgGLdY8jBFGKYxtwkAcoj+M2jx5CyAL/ug0/ToPtUEeEmJyaNN6A71bbJM2mmYtFoZ2lZxd2NDc13xYqKurdv3y6Hii2yz5o8HKnA6SqwdievURx0n+7+cj9AAsozvAteNONGvOVjYRSQ7smF0VGuIhWQCjz1/weR+kgFpAJSgSWtwE4oLQ+V38gU9j6AV85DynkX5byTUqF4qRf1duPdHqScB5QCWqrQqMFYIZjDYVFE1mv4FpAy6whIKdyVBgc3OWKKg3I/R67miLixaOP2ot7k7iMHJQFK4ZL0nJY0J5DWj/mAEHOhpACVKhOgMk3AUcyJ5MIdSW7LkjBDjl8V8NOxGSjtTaU8BB5tcBg2YNJsStt9bcbiSGds+DjcqDeYgJLkuHQLdwhYCs+owR28J+pPf23bZ5FcjPfSfb/97bof/PzB71Q0b2xcd+klyvqqKEr83txRb1aibTsYjmfQ1tmHjj2PYbBtD+AwhCrrMDY+iOREL2DEeUVV1a6q+uVvfMtb3tXDGCMT6nn92L9/f/iXP/nJC/bs2/PqgYHBS1NZI8924CeHrWXT/EmKVvvEXFZyFxOhNi1TzE/deOkWXPzCV6J1wzo0FfiRS5DepegCUNK9N5CycXwogdH+IVizI8hTZhHhM5gZH8W+Q+147MgAuOqCSR+jBnByLtNFITBpmrZlJoPBaE9T84qfr9mw/ocvfekrDpyPrtXz+iaRBy8VOEcKrLuZf50Brz9Hy19wy0pAeQaXlEpxqBxHPhZOAemeXDgt5UpSAanAX1RAOijlzSEVkAoseQU2vGmDL9U7+laFOf8IsEomXJQEC/8k7k2Q0keg0oWTbvSbkqlukY7mV+HTCVKqwnFm29afQEqKepMDzRHuSirUMS0OP3dQ4nNQqnOEFEdAGoKTBCp9itu4PT+bUkBKOGJmn8pppiVDkOZgknuSuXFxyhxbXiEOzVU0LC6avovDCoqC5BykFWgwpQcoyfFJGzkoKfJtMxgEKrMOMoYjnJ1hTRWzMslBSXBUPHPXLepw9nsH2vWv/OJcBxlIF9MNRfHu//rGnW9+9NjwP6/e8vz8DeuXo6XQhwiBYA+mkRZpw0bXxByOHOlE9/7dmOzuQCC3GI7ux2hfO5CdAbPNxOXP2fbWkqq6H23btm1Rwtinq/2dd95Z2NvR8dxD7Qdf2j8wuCWZyuZbDg/YHIptufFuccuQM9IykZcTwZbnvQjrt21H68p61Mc0hEXZ08l/VqQcB91xE13905jsH4A9O4R8dQ4BO47J8VHsP3wMR/snoBIAVVy3JBxu246ZBZAKhcKHW1pX/Wp569p7a2pq2i666KLzLk7/dK+HfJ1UYCkoIF2UZ3aVJaA8A72ke/IMxDqNXaV78jREkrtIBaQCC6GABJQLoaJcQyogFTjvFbjqqqu08cCxN4HhfRxYRlCO3JME/sjRpVD5h2j3dt2TYjYlgUkfAcr56LcCPUAz9DSoiiKKRWh2HzkpLXM+7m25Ld8CUJKbkuZVko2RI09xUOm3UaATPKONQ6P2bpo3qUA0f1PUWxwPtRhzRzgcc30MAdH27cJEKhrhdLwuTRRAMW2QI40j14t85/hoTUYmQVEOY9vuXMp5QGlyCHhKcfQM/YYDITpfutIEJR0mIuIi8i2MmuoHciORO7Z9dnRRgTvOuf6RT/7bV5JKzvaNz9kWuqilAtUhBr8AYq7Tj1yhs1kTRwan0Xn4CAYOPY5MfBrBvGLMzIxjbqwbRnIaNfVN95bV1Oy44Ya3D55PxThn8uG8995vxQb7Epcc2L/nBb29/VdMz07XZA0rZDvQHXCN4v2ZTAblZaW4/G9ehdVbX4TWhhIsC5OmNAzA1ZQctnO2jY7pLHq7RzDd3wskRlCkJwFjDqNjozh4pBO9ozMcYFTXlFUVJePXAyOFxcWPNjW2/Cacm/tALBYbkFHuM7mCcl+pwPmlgHRRnv71koDyNLWS7snTFOoMdpPuyTMQS+4qFZAKnI0CElCejXrytVIBqcCFpgBrfUHF6//I/j4MxuuYyhS3NIcApVuaQ3MmCRCKhm+KtJ6Ieivw6Qw+vyrm6Wk6ze1zSY3t2LBNWzQjZzNeuzcV6BCgJDel6cCyHOFgDDIH5bqNct0t0yFISZtfpbIQd94kuStVxRGN3TTnT1e4mEcZVlw4lKFGb00RMyQVARNdOEnAkTaCmLm6gvwARDsyRcvpWCnuTYDSJCcl7e89U/zbsmgNQAeBKLd23OE0z5JuAYq042HL1K47VjN3bOdO16C5GB6P7N9f+z933vP9gtrVay7eeqW2blkOinWCuSejyJbjYDRl4nDPOHoOt2G885AoFFL8OiaHOpGNj8PIJDOXXfn8t5VUN9x1obknn+w6kfP0+9/6Vv3xro5L+geHNw0NDWxIJhM1yXQ6nM0akbrlrcrmv3kdVmy6FCsrIyiltvtT5k/SPTdu2Dg2Mof+432ID3ZBzYyjUM/AzMxheHQcB9uPpybnMtORaHQwP6/oQGFR6e6S8vLd1dVG+zXXvINclPIhFZAKXOAKCBclx17Z6P3XL7QElH9dI7GHdE+eplCnuZt0T56mUHI3qYBUYCEUkIByIVSUa0gFpAIXlAKt11S+nNvORxlDq6IyTUS+yaHoRb5F07YAlOSynHdVAj4q9/Cr0P0+6OSi1FRRukN92VRsQy5KF1K6myjQEW5KB5aAlAQQHVFmU+qzUaU7yKF5lJ4zkhyPAlJ60JLi1WIMJEXBGUOAXIFMjE6EX2WI6AQvvVy27cJEApVZmk1J7TgUE1doNiVDRQ4BTYp2MzGHkjYCpuJrclM6DFmLGsodaJyOw3UgEooU4VxKiTPlA7HcyH8sJhflPff85JqfPvDoV1dsem7ppssuQktxEDGKxDP3+ImkGraDnngWx7pHMNR+CLNDXfDpOqz0HGbHupCYnkBuYdHuytKG177xpps6L4TZk2fygeWcK3fddVdFX9ex5qmZmc1th9vfvKx5bcm6579SWbF6BVYU+tz5k96i7vxJB0MJE0d7JzB0vBPxoeMImDPIC5hIJOYwNDICiwXvjhYv+0ZLS8u+UCg0uHXrVutMjkvuKxWQClwYCqy/me/8499Ut1wYZ3PuzkICytPQtikD/N30aewodzltBaR78rSlkjtKBaQCZ6+ABJRnr6FcQSogFbgAFWh5XsVz/5iRvoW6QBhjAea5KN3It+empKi397Ub/abIN0FKakH2wedzISXFsukX4TDbcuPeAlJmCVRSeY4N6wlOSnc2ZIw5WOa3UUIFOnCE689HRTgU86ayGyoscdw5laLxWEBUApguqAxqEEU6JyAlFdtYFPl2Z1QScExkOZKmg8IQQ2OBiqimiHITck9aBDIJUrr0EaYFAVIJchKW1KmYh5yGLqCkXpPdiq5e//I7EocXwyxKcgF+5WvfeM+e9v4PX/y8v83dtKEZdTkaAkwR+ghAyYGEZaNjMoPu7iFMHG9HJj4uZnkaUwNITA9hamrCaV6z8dOBaMlnrrvuupkL8HY/rVMiPb/61a8+55e7fvdfzRuvrG657AVKa2MxGqI019QD1l5kPmnb6JpMoqNzACOd7UiOdCNHSSIUcDA1PYupmWmrombFG1gw7wc7duxIndYByJ2kAlKBC1KBtTt5rsLRLV2UT315JaA8jdufinEo4i0fC6MA5x9j9W30PxDkQyogFZAKPCMKSED5jMgs30QqIBU4HxVYvW3ZegvmRxUFz2UKiwqoNe+iFHFvN/79BEipKtD8FPd2nZTz8yjJSUmlN2RjtGgupeVBSgKUGRsGOSrJSWlR5Nt2Z0LaXIDJcs1Gpc9GjICgAuGi9DEXemZsEbBGwIOlBCrdwhEXwFH0OyfgxsCp1ZuquglQOqJp3C3DSWYdzGYdxHSgqUBFrl+BYbkzKGk8pkVzLQlUUsybNvoereHQLEwGHQRFxRV2NIf/e9rRPvHq7yRHn+1rzjlXP/yxT/57godee9k1fxva2FqN8oACHzVSewdHgHKCosijSQx0DyE+3AWeiUOxEshO9GJmagSJdHZ61brNr8kvq/nNNddcs2Sjxw899FDwRz/5xRfGZlOvWnvli8Ir1l+ElZVBlPqpoMltR3LnTzqYzJg4MjCF7qOdmDh+BNnJfuT6bWiag5HJSRpeMNDcctErG1evf1SW3zzbnxT5/lKBZ1+B9R/l7wLDrc/+kSzeI5CA8q9cm9VpN94tHwukAOthdQdqF2gxuYxUQCogFTgtBSSgPC2Z5E5SAanAUlVg9fNLai1VeR+D8neKgkKClDSPktyKAlBS27emuKBy3l3p85yUAlJq0MhJSeCSIuEU+aa5lAQqqdH7hJPSi3vTbEpvJiXBQIKUVEySo9io1myUqA5C9J6UA2fkhHRLbvwqEPDmY4q5mSIGrohW5bAO5PkJdnLxAodAJUXBwWCTC9PiSJnATNpBUONoyFORrytiviXNpKTcrZhDabqzLOcBJUFLcnHSYtTwTW5KFTzu4+p7Q5XRbz/bUe+9e/fm/ve37rozXFr/nMtfeI1/fX0pCsSsxJNlLgQoh7M2jg0nMdw7LEAaMxNgiREYM4MYHR6EL5L3UCSad+1k0u7duXPnopmv+Ux+Jsk9+eOf/eyqu+75xX9VN6yuWb7puUrLiiqsKNAQ8Vrn5wFl1nTQP5vCkc5+9LcfwmR3O1hyEjlhBpPbGBsfR3FZ9S8Dgfzr3/a+9w1fqIVDz+T1ke8lFbgQFNhwC9/FOa66EM7lXJyDBJRPoSq5Jq+dlO7JhbzxGK5jtQe/vpBLyrWkAlIBqcBfU0ACyr+mkPy5VEAqsOQVaN1Wmc+ZvUNh7C2MsQrifvMN3wQAqTSH0Qw+ApTklFTdVm/Vp3pOSg0+n+p+T+xHSI8i2gQp3VbvU+dSmjSXkuZVenMpbRG5dt2UZYqDKp+NPG8uJbkoqZCEHn6vzZu6SgikUmkJHR99HfEBBboDP9kcCXqSmZOKbsTrCXJS0zcQT1MTOEd1VEVxSBEzGt0ZlAQyXVfnfOO3bdNZUPzbjUornEHjNDOTHfNbvreMFyV+t+MOmM/WDfTrX/+u6fs/vud75cvXrtzy/Oerq6sLxazEeYcpHRfF2fszNjoGE5gYHIc1OwLFmIYy2wdzbgz9A/0or2v5Mgvkf+SGG26YerbO5dl+31/+8pfh3zyy//OjU3OvbN24NdywZj1W1URRFaKo/8nCIcdxMEN6Dk3hWPtRDLUfRLy/A7qTRiCsIW2amJmZdtZsuOQT1UXL/u1527fPPtvnJt9fKiAVWBwKbNzJ19oO9i6Oo1l8RyEB5VNcE1mMs7A3rCzGWVg95WpSAanAaSsgAeVpSyV3lApIBZayAq94BdT22bJXQVVuAkMLo7F75MQjRyXNp6QZkORs9CLgwlFJ8yd9TMS8qTSHnn06uSvd2ZWM5khSeQ4BSg9Uiqi3KNBxISW5KW2LmsDd0hoqxonBQaVqoUyxESJEKNZxC1+CPoYgAVM6Dmr7FiU67tcU4S7wc/ipXIfW8v4GILhIkNMwGbImx1yWGsKByihDcZDchsydS0luSst1bNLXtkMxcQKtJyPf7j3C4HPwM8bxrmt/nD3O3OTvM/745p13btn1u4e/vWLjlVWXX30Vay7NFW6/UwFl2uHoTtjoGkxgZmwSSE4CqSEo8T5Y8Qn0DQ87tSsuepcezv/a9u3bE8/4SSyCN6SSnP/65ndfvOuR/V+orFte2bhuC2teUYWVRT7ETinHEYVDpoOh2RQOdfahp+0ARo8dRHpsAMEAAwI+pDNpKiiaXnvRllcXlFfvWsqR+UVwaeUhSAUWnQKyMOcvXxIJKP+CNjLavcCfY9YDpmxltft6FnhhuZxUQCogFfirCkhA+VclkjtIBaQCUoGTCrRuq7yYac67FbAX/nFeVo6AlGK+pOtadGPfrktSfK0xaJoKzZtJqYtnmlGpiCIWilrbtgPToGi3LYpzCE7OQ0rDsGGTk9J24NgQkWxq+1a4g0JuYxmzUKA6otnbctxWb4KU1MhNUJI2iqPTL3JWUrN3scYR9Gp7oBKdJPDIhDuSACQ9pyjS7UCU55SGFIpuI+vNnqSYNzk6yUlp85OQkiAqFxMxKT/OqUz8U44R+NwNv4w/K87Db37zm//v/x7c/R9rr3h+0RXPvRwNBVGEKAZ/SqFLwuHojNvoGUgiMTUNlpmCM9MDLdEPIzGJ8fHpREXTildn7dB91113XWYpfhYeeOCxsu/f9+v/zJjsuU1rLg3UrVqJNTUxVIcU+OYhtzd7UrgnB8Zx5EAbBtv3Y6rrGOz0LPSwDtunIZOaQ0X1sl9HCkve8M53vr9fxruX4h0lz1kq8NQKbLiF7+Uca6VOT1RAAsonuSNktHvhPyYy2r3wmsoVpQJSgdNWQALK05ZK7igVkApIBVwFWq8pKlWcwKcc8FepKg+ImZRiI+ei66IUDkaFi2eaUUluSrc4R4M/4D7ruju/krAeQUpq9zZNclDaMKjhm0Bl1oIlynNsAQ4dKqkRcyDd+ZRBzlHOLFQyC1FGgW0uIKZfIyelCyUFMCVEKaLfDBEVKPVxRFQOTjMx4TojKfp9YsYkZ0hTUY7NkeuHcFJSEQ5BS5o9Kd7foeNgYialcHByR8BJkTgXGxu2bP6WnJjx8+3fh/FM3z+fu/0Lb97bduSTm5734rwrrrwUNblhBOhanAIoZwhQztjoG0ohOTUHJTsBZ7IDWmoI2fg4pufSPdWNLa8oKK3bt3XrVhrHuaQe997b4W/vf+Tdew4ff39tY0tu7aqL0bK8DC1FGiKeM5cEIfdkxnQwOJ3AocOdOL7/cYweO4TEcB+YYoNHgsLJy820tfbiyz4SyS/78rXXXhtfUmLKk5UKSAVOSwEZ9X5ymSSgfBJdZLT7tD5Tp72TjHaftlRyR6mAVODcKCAB5bnRVa4qFZAKXOAKtL6w9k2O7XyaMTuPZlBSpFtASiqn8WClmAXpOSqpJIdgpOZX4fdrCAQ0+IMqfBT31piYCTkPKQ1jvjDHjX5TmY6Ie1PUmyLfVE7jOSoJElKbTQ5sVMNEseJA47Yor/H7FOGkpJi3SrMoxS/XtRlSGcr8QA45KBUXThL8pMg2rWlxRYDHLDkqHY6wxlEUUOFTxNu5+xCoJKjJmdvqTYCSHJVecY64BRz81FSVt91wb6bPw5bP2J1x+xe/+MG9Bw69f9O2l+RcvmUTqglQqqobr/cOZtrm6Jiy0T+cRjKeBEuNwR5vR9AYQ2Z2HNPJzOP+UN4r3/ruD3QxxpZUQQ5Fu79xz0+3/vYPbf8eixY01q7aqNSvaMDaqjDKAu59NQ8nKfY/nbJwrGcQRx7fi/7D+zF1vAOZxDSopYkHA+COgcKCvONr1m/+++ZV6/fJ9u5n7KMg30gqcN4pIFu9//ySSUD5J5rIaPcCf65ltHuBBZXLSQWkAk9DAQkon4Zo8iVSAamAVGD1i+tebln4D9u0C4nCaT4OVXXhJNEvEfEmKEiAkOZRihmV9LUCLUCA0odAUHPj3n7X4SjgoO0V5BgU+7bdzXTj3zSPkp4dr02b9ucUy6botQ1olo0iWKhSTOSAym4c6CoNy6TmagZR/E3HxpiIghO8rNQ58nUCiRy2WJfOhtb0nJGiJZwjY0E4Mgv8DLrizp2cd1KemEHpzbKcn4dJQjhARnH4u1Ih8392/ASpZ/LO+eznPveptvaOGy97wUujW7ZsQlVOGP5THJRk8pyyOY5N2ugfyiCZSAGJEZijhxG2p2EmxpFImw8ovsC1b73pwwNLLY784/vuq/7lA/v/PWtrV9c2rwwsa16FVQ0FaMpR4RdFT65Rlq53yrTROzqNQwcOoWv/HowdPYS5kUEYcOBEg9CCAWpHd9ZfdMmXQ/kVNy/lwqFn8jMg30sqcD4rIFu9n3j1JKA8RQ+Kdt8wAfiX1P83PLcfZ8a3stq2+8/tm8jVpQJSAanAUysgAaW8Q6QCUgGpwNNQYP1Lai83HXzbMlFpm5w5ti0gpU/jYOSo9OZQus5Jb0alSvXfLqT0eYCSXJQEKTXVbcQmZ6RluRsBSYp9z2/zgJIi3+S2FK5Hci56zzSbkgp1gtxGKbNRCBNROAirBBdpjiS5J73Yt4BLTICmigBQRMdNkJIApXBRErMkaOrOvTTJJSmaxCEi39R5Qj933ZYELJlwVhLMpFmZ8zFvMY+S89/Br1x/7S+f2cKcnR/feWvvwNANm7e9NHLlls2oyI3+GaCcJEA5YaNvOItkPA0nMQxr9DCCfBZ2Ygw21F/B4f+w490fHnmmHaBP47ZcsJd89av/Gx3NzH7kaM/Qm6trGmOVzWuxvKkCq0p05Prc+ab0EC3vtoPR2RSOtHfi6J49GGw7gOne40ilEjCCOlgkjIAORIOB0Y1bLn9dcVntb2U5zoJdKrmQVOCCVWDtTp6rcOwFR80Fe5JncGISUJ4i1o1jAEFK+VgYBTj/GKtv27kwi8lVpAJSAanA01dAAsqnr518pVRAKrCEFdj40sa1Jpzv2jZvsE1HEdDQIuTH4fNz+HQmYt+aprgt3x6wdGdTMqg+Ff6QD/6gBr/fjXrTzEqR2BbzKN32bgKV7rMHKi1yVbrfFw3aFLMWX0O4KcW+5KzkQAgOCmCjGCaKwBGl+ZhiDqXrflPF0ULEtsv9QInCRWcOQcb5uZK264J04SOBShtQbCCmASHNvQEIZrqvIUh58rX0QmrKoXJnxcFNkTzzay9+Bl2UN++8+bae3oEbLnvBS8JXXrEF5XkxBHyq6yb1aCMByqMT5KDMYm4uDSs+DGP0CEI8AZ4coVD8fZzz1+9494eHl8rt3t3dHfjJrkde/+ihro+VllUVVzauZrVNdVi9LISKgDuLdB5OOo6DmYyF490DOPTY4+jdvxcTnUcxNzWOlApY4TCC5KB0Ms7qtWu/GYiVvu8d73jH+FLRUp6nVEAqcHYKyHmUJ/WTgNLT4nlxYGPy7G4s+eqTCjDcw2oPvkxKIhWQCkgFFoMCElAuhqsgj0EqIBU47xTY9MrGFbbNv29afIVjOYpwPRoclklwkEPVOPwBQPd7JTki+u2W5oj4t6LAH9IEpAwQoNTJaekCQ4I+5IokRyQ5Kk+CStsFlfReYhYlbacU59D+liPef76nhkpxAuDIcyyUOiZKYCMM7rZ7e78o7q0pQIkKlCkcfgEk5+PeDORRIEDJuSOeTVGoQ4DSLdwhTjkPJi0BOE9Gf4mUkruSA79hjvqGVz2c6SVP5TNxwT/+zx//zNFjnW++7Pkvilx51VWoKMhDSD8JKOkYXEDpoGcwjXg8BTM+hszoEQR5ClpmHNzM3O/T9dfe8Pb3DS6FiPdjjz3m6x6avPrnfzjwuUg4t7GqcaVaWd+IlfW5aIidjHYTtOYOkLYs9I1M4tC+Azj+2GMYPnIYs6MDSJoG0sEAfJEwwgGGaEgfufTKK/+hsLT+fumefCbufvkeUoELRwE5j9K9lhJQArh8Drg8ceHc3M/6mci5k8/6JZAHIBWQCjxBAQko5Q0hFZAKSAWehgKbX9dUYWf4nbbNL3UcRyP3JM1wFI5H75mW1f0cwRDNmVS8Fm0v7s2YKMwJhXXootXbhZTUAj4PKMkhKQCkgJCOmE85H/+2bdv73vz7Ehx1S3SI/xEPJZsgAUpOGxh8joN820SlZaKQ2whyRzgmGVPAqdyHMRQyoFrlCMIRoNGmshyKngsgRXFuF0C6rd8u2Iz4IKLiIg5Ojk63t8ctyyEXpRsnT0HBW9J+83vX3Y/M05D8jF9y++237vzDHx559yVXvzC29bnPQ3VJAcK6Bp9KEz/dxwwBykkH3YNpTE2nYMTHkB49Bh9PIWBPgadn9/hjua8cHp7q3rlz5wU97Op73/uemkZww4P7Om5VVH1jVcMKX1ldM1obi7DiSVq7DdvByNQc2tuO4NhjuzFwsA1T/d2YSySGmdd6AAAgAElEQVSQ0H1wwiHk5oSgOmlr7foNdwRzwze/7W0fmjzjCylfIBWQCix5BdbfzG8D8M6lLMSSB5TVBnCt/Ctk4T4DbAZMWcdq9/Us3JpyJamAVEAqcHYKSEB5dvrJV0sFpAJLVIHVr10dDtmZr3KHv8S2eUDErL0ZkO4sSM9N6XABJv1BJjZdp6ZviOZsVWEIRnQEwhp8uluYo2luC7YowKFnr1lbxLmd+aj3/AxK+j29F8W+OcwsvactnI7zsXIR5xZv6LozKbLts1xQWWqaKLEt4ahUyXVJVkqFoYBxLFM5QjQV02ECSgrIKOLn1NpN67iAkuZS0iOgAX4wqN5rREScwKa3Li3tcPyABa23bv8dnpGI7+23f+6dv/3tAzs3Xvm83Oduuwa1laWIBHRRHDQ/QzHuAMembHQNpDExmUJmbhyp0Q4odgYBZxZ6dqqrprbuFWlb2b99+/YLduAVNXbf8cMfNh1tH/vMbMq6uqq2PlBS04KmplKsLvUjn0YWeJ91uhdojMBUMv3/2bsTOLvK+n78n+ecc8/d7+z7mpUkQyAQVtkSRRTUgqVJqyCQutBW6/ZvfyJWM1StilQWtShSC1itTdTaqkUUTdQWxBIMJAGyJ5PJ7Mudu9+zPX+ec+9AQNZkkplJPvf1mtcsufcs73Mml3z4fp8vdm7fg6d+93/oeXwzhvfuQmp8DGkhUIhEEKuIIBrwUFWV2HHO61auuXrNe/9PCGGfoH9l8LQpQIEjFFi+Vv6HlLjiCDcza19+QgeUar1JFU5y3cmpu385FGfqLLklClBgygQYUE4ZJTdEAQqcSAKrVq3S+8Nb7vQ89yrPlREVSPoBZbk12x9i43+P0tRtqSZ8A6GQgBkSpTUqNfht3pF4AGbQ8CspVRVlqUVb1TwKv0pSbdNv2ZblATq26weghw7UcdS074KEZan2cBeamihenhyu9lMKKdVjcpgNoLsSVbYKKi002A7iqjXdf45EQgi0QaJSlIJLFUqp9ST9cyoPzlHrZfpDesqBpdqDag9XLd8qzFKBpn8mnnq9RMHFAVtqb792i/17tamjfb/cddedV/33T35y+8lnnVfzhssux5J5nUiEVUCplypMAWQlsGvCw86eAgaHUyhmk8gP7oJj5REWBejpnlRHZ+dVS5ae9rOuri7raB/zdGxfhZPf+cEPOjc91f/341n77a2tcyINnYsxZ34LTmmLoCkk/LVLJx+2J5Eu2Njb04OnfvcY9j32GPp3bkdyZAgp10U+FEQgHkVVPAhDFgvLz7rg080VNV9dff31E9NxftwnBShwfAiooTm6xAYpsez4OKPXdhYnbEDJcPK13Siv5tnS+4iYt01VJfNBAQpQYEYJMKCcUZeDB0MBCswmgfOvWfg5SHzA82TMb8NW1YWHfEwGls/+maNCu3JFZVAgEBQIRzUZrw6qYTlCTfQOBHWI8nNUqOi3eat1Jf3A75BQUoWU/r5Kk77V4By74MEqqBDT+cOAshxSTgaVh7Zja55EpeWg3rbQ7DhIeB4MTyIKoFVIVEsVOIpSQOkfQ6mScjKY9MNL1fbtB5Lwp4EbsjSQRz1UUKkG6eQdldPKfyjWxW/9q/+ZGD/a1/r++3/0hru+/vX7Ohd2NV38tivFKUsWoyoWRsjQoZfLAVXiuCct8fSBAvoGJpDPTKAwsheFbMofqOONbvcWdjZ/uKpO/+ab3nTNcbcqv5Td2rd/cFHzU/t2r+0dTL2juaU1qsLJjnkdWNoZRbtanmDyOqrrLIFs0cb+vgFs//3j2PPoo+h76imMDfRhwioia5pALILqyigCsug1t7Q+uODkpX/1vvf99V4hxFEPpY/2PcXtU4AC0yuwrFt2ahIbTsTJ3idkQBmSwLuHWTk5lb92nNg9lZrcFgUoMMUCDCinGJSbowAFThyB869Z+FEh8EkpUelXOarQzp9mXW7NLoeVau1GFeo9F2KqQK/UGm0GNbu+NViMVxlRM2gIM6xma/ud1tD0UjWl/7rJlm+1DqQ/kMfxqygnJ37btguroNq8PdiWo1LCUkipBvKUKylVOKnWuCyliKUaxmcrIP1ySCDmeGgsFtFsOaj0XL+qssmTaFDTvktt2qWWb7/1vFxVWV5v0g89J9vBy5WV6hz9ALN8/lLKPqcx/t7q5rYHV6/fdlQrEn/yk58sveebX19fVde84PVvvVI784zlqKuMIxxQAWVpkrfq2e4tSDzZa+FA7wQyqQkUxg8gNzEC3QzBG92FhS2VX6s2Qze+9aqrjnqoeix/e6SU4rs//3nTjqcHbtx7cOSaxsbWeH3HQrTM7cApcxLojGn+2qKTE8/VbVOwXRwYHMb2zU9g76bH0LttG4Z7ezFRyCJtGHAjYcQrooibQDio95193oq/XLD41J+tXLnymKw7eiz9uC8KUGB6BE7UkPKECyhVOHnVKNDAlUGm7DeN4eSUUXJDFKDA0RFgQHl0XLlVClDgBBA475qFH9AEPg2BSjXRWKrp237oV273VqGi+rkKKv2QshxUln/uB4weBmqbzC21jcHzzJAWMUOaP7ZG10vTv/1wqBxOqm34H35A6ZaG4jgebFuFkq4/RVxVUFoFB1K6EH6btwoo1WfNH4LjTxIvLUwJqOnafk5aOk41bdtVP3MlIo6HOstCo6VawB20exKtkIiUQ0jVsu6HjuVAsrRGZvn7cpDpf+/6uylNJ1fpZVEi3xL7Tfr05g9kG7Zv7e4+eq3eAwMD9f/vbz+8rmi751106RXG+ReuQEt9DWKhAAJa2RbAsCPxZJ+DPT0TSI4lYaeHkBk9CMcIQeRGUBtI/ra6ouod11133f7jZZK3auv+wQ8eaHhqaPSGHfuGrmtubErUti1EU0cHTp5XgfkVOsIvCCctx8PA6Cie3vIk9jy6yR+KM9CzD0k1FEfXUQyHEElEUB01ASdfWHLK6bfoocSXPv7xjx9Xwe4J8FcbT5ECM17gRAwpT6iAkuHk1P8OMpycelNukQIUmHIBBpRTTsoNUoACJ4rAhdee9G4JfBFCVj0XJJYCRb/d2w8WSy3O/kAZ1apdqoZUy0kKv9rQkr+LVmr31reFPhoManMMU1d1jkLXNRimXhqoowJEtS6lHwJKOK5q535BQFlU30u/1buQs6GmfPtrT6qAUpOlsFJtWVcBZam/uVRDWPrKDyr9wFIN6SlXPXqA6bh++3eLbWOe5WCJ5aJePUGq4yhVIKoJ4KW273IQqSoTVTDrr1FZagUvtair6SqAYwiMrWj9VnZ5/Sf+7v3/d+Bo3S/btm0z7/zKl+/af2D/n5678o2hFZe8BfPaW5GIBJ+3DqUalLN91MWOfWkMDY3DSo+iMNaDnK2CXA/BzJ6JU7vmvuvKy6/86fEw5EWFk+t//Mump3v6btjVM3xtU0NzvK5tPho7OrBkThUWVOuIlsNJdW1U0GzDw+BoEju2PYU9j/0evVu2oG/vXiQnkkhrAoVwCMFoBDWJMISbd5taWh84aekpH2Rr99G6u7ldClDgRAspT5iAkuHk1P9yM5ycelNukQIUOCoCDCiPCis3SgEKnAgCF1y74C1S4ptCE/V+kOi3OpcW6itVPZYHxfifS1O9/eE55YCytA6k952QGeiuazc/bwa1txgBLaheaAQ0BEJqmIvmD5rxY8rJSkpXVUmqdSddv9VaBZ/qe7V9VVWZz1iwHdcPN1UFpVAt3sLz27uFUD9X35emiavPahyP38grNb9nu7w3f7iNH6KqNTElEHFctBVsnF60sLRgo6Lo+eWPrlBt36UKytJAnPJalf62ygGl2o7ahfrDvESuPeqMvmXeLcnTam/7h8t/MXi07pcvfu6zn/j5L37x/5YuPzPxhsv+CF1dXaiJRxE2dIhym/ez61Duz6G3bwzZ1DiciV6kJjJwzTi8sV1Y1Bq9rb66+qa3v/3tyaN1rMdiu+vWrdOzbrytZ3Toht0Hxq5qbmiK1bbNQ0N7BxarcLLGQEwtC1BuzVcX0/Y8jEyksGv7Dux+9DEcUOHknt0YGx9HSg0/CocQiIRRlQgjKGxEotFd559zwV/Wdc7/zWWXXVY8FufFfVCAAiemwIkUUp4QASXDyan/RWY4OfWm3CIFKHDUBBhQHjVabpgCFDjeBS585+IFrub8EDoWaULFXeUqQX8Kt6pGLJcO+uki/DUjncn1JFU7uCul64qbClXGrR0xseaZSd7dekCrlK7nD8sJRXRoWilAVNtWQaG/JqVXGoZjF9U0b9XmrdaeVIFlKaDMpS1Ytl0KIFUIV157UqhKSlXz6AeTpVZvP1hV36vjhRrQoz8biD7bAq72WV6vUU1wDnseFhdsnJ8qYlHeRtCTUD9X1ZSTA3NUWKm261djqlbwUkd5qZpSLSdleRi7pC03srL1M25D8Bvdb9s4cjTul+9/f93b/+mrX/5aa8fc+hVvfivOOfd1aKyuRixkQlWp+q4ABizgyT4L+/aNYWx8DF5mBJmxPuREFE4ujVp95MlTF3b82eWXX75ttg572bBhg9EzmJu7bW/vjYPJ7J80N7ZEa1Q42db+B+GkuhZ+ta4nMZrOYNeOHdi76fc4sGUrDu7aheGxUaSlRF45hsOoTIShOrtdq5g889wLPtE6Z+F9q1evzhyNa8ptUoACFDhU4EQJKY/7gFJN6/6Tca45OZW/3gwnp1KT26IABY6BAAPKY4DMXVCAAsenwFnXtNQYbvjH0MQZQoNRHgzth5GyXFI52UbtZ5UqxJsMKFVLtCczkO61iXHx397JoQVBiO8YOpZ4nqeZpo5wNADdKK0X+WxA6bdMP1cx6frrUKrW7lJI6Tiel89auULeUrNsAhD+cfmlmJpQhXFeeR1K1fKtQkS15GW53Vv1g0vdv1ilwy9VQPoPP3QtDwHyO7UF6gCclbNwVrKI5qwN4Xlwn5kapKou/XZvfxjPc4N4/AngqmJT/TwvYdeYOHjtoomJeVXddix67+ff+pMpX6tww4YNi2770s3roQeWnH3BSm3lGy9BZ1srKiIRBAOKpfQ2mFZt3mMedu6dQP/gKOzsOIrjvZjIFmHrMbhju7zXLW76xGmnLv1KV1fXrAveHn300cAjW7Z39Y4WPtE3krmsuaE5Uts2F/Xt7VjcWfm8yslSOKkmr3sYS6exe+du7P39ZvRs2VIKJ4dHkJIe8sEAtHAIiXgEibAOu1jIn7r01Dvrqxo++56PfnTs+Pyt51lRgAIzUWBZt6zUJTZIiWUz8fim4piO64BShZNXj3Ja91TcKJPb8Lw1Yv62e6Zyk9wWBShAgaMtwIDyaAtz+xSgwHErcMq7TolG3Ny9GvBWqIHHfrViqWpSBZT+X7DPfi63e/tt3eUp31I+JqX3zrd27d3Z17dc3yUyXxQS79UNGdEDOkJhHUbQ8Kso/YBQtXj76z2qSklVPVla11K1eau1J9W6lLbtqWLF77qefMwqei2O7bR7rtcqpVcjIRMCMuBJqYZY60LzDClgCAkNQpZHfOvQVKlj6eBLYaVfAKrqDEshpfpSrVXp6AKhsIE5HrB8JI8lI3lU51R0WVqb8nlTvv0BOqWwUx2gqqQUOYnUhY3o+9MFo/lIoNvOhb/9+aumNqR86KGHwvfd8427t+/a88dLTzsjtPKSN+OUpUtRU1GBaMiEoRbqLC2NiZ6cxJM9efQcGEMqOQo3M4Ts+BAyiCOfS6HFTG1e0FJ3zVVXrZpVVZQbNuwNPbz1V8t7hyfWFl3twqam1mBVUyca2luxpLMS86sNf83JyYDdn9TuehhNpbFn107s3fwEerduRe/OXRgcGUHKdVEwS+FkPB5GImrCKWSt9o65P+pasuxj177vfXtna5XpcfuXFU+MAieIwOmfkrcB+NDxeLrHbUCppnSrykkVUvIxBQIiCeG9XczZunEKNsZNUIACFDimAgwojyk3d0YBChxvAmetnnMjNPExTYiEaqf2B9OUU73StOzJ6sTSmavg0nM9FVJ60hV3BETx7//nOz1+5eCKdy08H7p3jxHU5hqmJoyADjOs+9O8/Ungtgc1Xcdf51KFfKoK01GBpQen6KJY8Pzg0gwZN0Rt3IlqtTakHnNyiHuOW23ZsqFQsBodx66Xjltre06753htEKgSkHEIERClQktDQKjwUvV7l0d+e/BXlyy/a0yurylMHaGKoD+5uSNtYdG+NOaP5FFZKI349lu+Nb+xvNyeXg4o1XbygBcPYPC9SzB2au2QZTt/rxXw793vnNp279u/9KUPrf/e+u6Wjo7K161YifMvvBCtjU2oiEX9YTn+dXrmX7TjLrB92MGufRMYHBxBMTsGZ+Igkuki8locVrIHp82puHn5kvlfeN3rXjcrKgQfeOCB6GDau+jhLbs+6ThieVNze6CyuRNN7S1Y3FmBeZUvGIij1kqVEmP+mpO7sO+Jx9G7dRt6d+3C4PAIJlwXxXI4GYuFkIgGIZ28axqh3y5ddtZH4tXVm6+//nrVxM8HBShAgWkROP1TsvuZt5y107Lzo7jT4zKgPDMLvDF1FNVOtE2LfRDaSjFn874T7cx5vhSgwPEhwIDy+LiOPAsKUGCaBJZf2XmFJvB1+INyBDS9FFL6GaW/9uPkOo/PVVSqNSSlixEI75rEsPjl/ffv8geJLH/f8kC8kP6SHtT+XDdFRNcAI6j7w3I8v1KyVC2pXi9U47aauO1P9lYBpYdi3oHruK4ZCv5trCF4j+4lnKDtOehttbq6uuTatWv9EkZ1XN3dEBuTnQmM6LU516krpnPtjidbpBQ1ru02ehLtkKgHZAzQE0J4phDSADxTSs0ol1X6DeBmUEd1YwzVTTGYtoOq/WnM3ZfG3OEcqvKlystyczlU37m/DqU6fJVaZiSyFzdjeM0iZDQxUsi5t+sCd3ev3jgwVZd0w4afnfG5z37+36Wmzzl1+RlixcUXY/FJi1BTmUA0HHlBFSXwdG8O+/ePIDk+Cjc3gvz4IJJWwJ/qHS4e7D9tftNfnHfmKT/t6upS83Vm7OOOO/47oVXn3r756YMfCxihBU3N7UaioR3NHc1Y3JHAnISGSDlQ96esA7BdD2MTE9i9o1Q52ffUk+jZuRsDqnLScVAMqjUng4hFQ6iIBOE5BS8ajW1fvvysj3QsXLKRQ3Fm7O3AA6PACSWwvFteISVuhUTn8XLix11AqYJJFVDyMTUCAj8E9DVizuZZPcxvajC4FQpQYLYKMKCcrVeOx00BCswIgfP+rK05Z2nf1wTOFELopYnZ8NuyJ6dk+19PBpX+8Bx/psx9Muze+NDXdg8deiIXvuuk1wsT/xIwtTY1w0VN4dYCqgO73GotS5WUqk1a03S/olINzlFDc5yio1q+s4GAcb0Wbf3PsJ7XUtmkrDZirhOccGM1QTmMOm8FNnpr104uLlleb7KUT/mPVau6zIM1hUptvFDpOKIqZ9lz7SLmua7d4brOIkDMEZ6Mq7Z2CWGqEstoPIjmjgSa2uKQAQ25oTziB9Lo6MmgcziH6owN0y21iLuTk75VkJuXcOrDGPvoqUgvqEAua2csS95lG4HbPnP5A73C75k/soeUMvxX17/37t9v2Xrl3AULguecdz7OPucctDY1oipRgZBpPltFmfKAHaMudu5Lob9/GNnUKLzMAFLJJNKII5NJYmEVfj2nueqvrn3HlU9OxfEd2dn94aullNrnvnpfVbZgv7tvNPOhSDjW2NTSriUaO9DW0YhFbTF0xDSEXhhOOi6Gx5LYvWM79j2xBf1PPY0Du/egf2QE6XLlpB4OIRYxURELQo2N96TXc+4Fr/9EZU39D6+55hr+S3OqLya3RwEKHLbA8TY857gJKFUr91uTQMeM/n98h33fTcsLpfcRMW+bWt6ADwpQgAKzWoAB5ay+fDx4ClBg2gW6oS17vO3jgPigBlEtNGFAUwNoyqGkWuzx0IBS/VyKJzRd+4uTjOijd9216XntsOf9+UlxzXG/GQjqf6QZwlQBpR94qtep8NOfBq4G43iQQoOuC0g11btY/pnEUCCsv7M2UvMQiil9IqLLtDvmtVZUuHv6QjLeHJcqoDzUrbv7uXBy8ufl5SL9b8sd0FIFlz1msj4/6pyUL1rLbcs7Q0p5mq6hTQtowcqaMJpa4mjviCNUYWIiayM3WkB4KI/6njQaezNoSFqI5z3o/nqapbZvVwokrz0Jmcs7YFkSubzjFAvevQXg859btWKPEN3PO97Dueb/9JXbr733W9++JVFVXdu1dKnf5r1k0SI01NYgEU/A0EvDgdSO+ovA030F7Ns/huHhYb/V254YQCqdRxox2NlRzK3R7lvQUP3Ja65Z3XM4x3O0XrNt2zbzp/+7pXMin/+rff3JNdWV1YmG5g4kGlrR3tGAJa0RtEY0BCaXGS2fs2U7GBodw86nnkbP1q3o377dDycHRkaRVvfXZOVk2PTbujXpqDVRh04744ybqurbvvXud787fbTOidulAAUocCQCx0vL93ERULZbwKpxIHjEb+tHckscR69VLd3eGq43eRxdUp4KBU5wAQaUJ/gNwNOnAAWOXODsP25pzbniAyIdfItmeotE1FFrOPpVk5rQStWUqlpNfQjNEdA+6XjePz3y7V0vuvDSee+Y/x4jLD6nG6JWtYurtnF/nUT1tVrD0vH8oThqCI1QTyi3eat2bwA7AmH9XTXhmi2FrCVCUVNmnGFvqFjhqXCyblud7Opa/7yqxBcLKFUL+KSM+vMXCyy7VnXF9Ezy5NRE9mOe577ZDOmhmoYo6hoi6JyXQHVtGJbtIZlzkE1bcEcKiKiQciCHptECalIOonkXek5i/K0tSK9ZDBHUUCy4yBU9FArOD4qu/MxYatHWu66/64jWNdyyZUvbJ//uE98dGBo+u7WjUz/jrDNx9tlno721FfU11YiEI9DKvfkFAPvTHrb35HCgdwjjY6Ow0qOwUkNI5z2kPBNOZsQ9bW717YtaEv94+eWX9x35XXTkW1i3bl0sidDyrdt7/yaVcy5uqKsLVTW2o7KhFXM767CoOYSmoJqK9Fy5rLqwRdvBwNAwdjz5FHq3bUP/jp04sHcvBkbH/HDSCQURUG3dkSBi4QB0eLAde2xJ16lfNKMVd95www0TR3703AIFKECBoydw+iflddCgegdmbcv3rA4oQxK4IM2W7qm8xdnSPZWa3BYFKDBDBBhQzpALwcOgAAVmt8CqVav0J7dt+4wXzb3faLDjesAPI59dh3KyolITYkdQM67OROObN72genJS4KxVJ80xQu6/Bkx5tqZpeqk9vDyAR1MBZbnN25+mLf2J2kI1T0sJTTN+JELig3XhqkEVUKatUa+uM+q9lupJdRwqoDw0uHxhYKmeo0JLlZsufUv76eOD49+UEidH4qZW2xhGZU0IcxdUoKEp6h+XCh2zBRepggM76yCYs5EYK6JmrIjKrAN5Wg3EeU0IRgP+0J+CCiiLHvJF75ee5X0mPWj99taPPpw/krvk859Ze8P6H/zXDRU1dRXzFizAWWefhZO7lqCtqQk1NbUIvqDVe+eoi909KfT1DWMiOQY7M4JCagiZIpB2DGhWqnBKR+VXqgLi9ve856qD09XuvWHDBuPhbT0Vmmn+cU/f+AdsB0uampqMeH0bqhubMb+9Gic1mqgLqMC8JOjXrkiJfLGIA30D2LXtSfQ9/TQGdu3CgX370T+eREZKeKaJgAomI0HEQwZ0TV3LfLK1o/PWeFXTHd3d3Vzr6khuSr6WAhQ4ZgKq5Vt46BbAtcdsp1O4o1kbUKqqybclOaV7yu4FkYQn14j5W344ZZvkhihAAQrMEAEGlDPkQvAwKECB2S9wxrLTuwt2/iNeVS6hVTootWdPhov+55xuiC+bmveFycndL3XWZ/7ZnL8xTXGjrosqP6BUH+rJQrV0Sz+kVI3ZqmiyFE76W3ICRuDTesC6fRxVthk1ZeVhVE++2DG9MLCcDDHLn735K2ren89anxJS1McqTdQ0RRGLGeicU4HmjigMXcC2S63oqqoShuYP/zE0gYAGRMIGouEATLO0MKJ6jm2rAM1FPu9sth3vM4Zn/fymqx857HGfjz700KK/W/up74xMpE9tbG7WFi1ZjDOWL8eCuXPQ2tKC6qoqGEbAP33FOeoAO4cc7OlJYnBgCBMT47DSwyimRpC1gQlLg+5mreaE9i/1tbEvnrmwY//KlSudY3UnSynFt372s0jywNjC4VT2z/cPpq+ORWMVDY2tIl7XgvrmBizoqMaCWh0VanhT+cA8FTxKiWyhiAO9B7Bryzb0Pb0dg7t3o+dALwaTE8iqKfHBIILhIOJhE9GwAV14KOQLyZrq+jsqQrHbPn/nnf70eT4oQAEKzCaB2VpNOesCSlZNTv2vBasmp96UW6QABWaUAAPKGXU5eDAUoMBsFjjv3HP/3nW9DxWsfMIOZSArip4elDkVKmoQtqaL+zWhf3qudubO9evXqxnWL/lYvqqp3TACdxuGvhKaMDQ1MaecnKlWbhVSlv4C94fu+Ima0LA1Egpcr4fmbEoOJLVgtF+G44Z8re3dr/YaTFZVqoE7Z1w/NzH6VPI2p+j+qYAMV9aGUVUfhhnQ0NQSRee8CkQiOhxP+u3pjuX5YWQ0ZiKWCMA0StWm/hkJNUgHsB0PjiP9Sspcwd1vFeTnCxq+94/v3Djyao/xhc/77Kdv+vj6H/zw/8UqKiubmlvQdfJinHryyZjb0YnWtlZUVFRCL7d6qws0bKmQ0sK+nnEMDY4gNTEGKzOKQmoEOctB2jZQzOfQURP8cXtD4ta6lspHr77sssMOUV/tef3Lv2wI7ezbVRGtMN8yMJZ7TzpvLa+tqTWr6loQq2tCa0s9FrYl0FGhIaqWBihvWE18V9WTE6kM9h3owd6t2zCwfTv69+xFz4GDGMykkdd0iKBZCicjJqJB3R+5bhULyUZ1I/MAACAASURBVIrKujuMiLztzju/w3Dy1V4sPo8CFJhxAsu6ZaXmoRvAh2bcwb3EAc2qgHJhAVBTutVAHD6mQIBrTU4BIjdBAQrMAgEGlLPgIvEQKUCBmS/Q3d2t/eY3v7pVQPy5VbBj2VwWeZkaRHXxP7SwzOi6t9/2Qv+1+ow9vd3dpQ7bV3qcvrrzTYYub9E0LBKGUBGlKpaE5wJSrT9ZHp6jvvAAK6AHbiw6zjfarWChtzWhB8dfPqB8sbUnDzmmQ9epfMn3ismQUm3r9CvnLB3uHf2G9HCGakyvaYigqi4Ez5Worg1h7vwKVNWE/ON2HelXSebTNgIBDY0tMT+o1P3BOaWjsBzXX2dTfRT8Skp3NG97d1h5cdcX12wceCW/F/vzHU88MffDH/ub+/oGR8+prmvQW9qacXLXYixeuBDzOjvR2tqGWCz+7HqUqhxyqAjsGrLQcyCJwaFhpJPjyGVGYadHUCgUkXEMZPIWasJiR1tD5J+DnljXWImBNWvWqOUsp+yhKibvuWdjcNTqjxkB7ZzeodRVg2OZt8bC0VhtQyOiVU2oqm9ER3sVFjRH0BLW4I9YLx+BCrYdz8VYMoU9e3Zj/5NPYXDnTvSpcLK/H8PZPIq6Dj1kIuyvOWkiYupwHUt6rpusrqm7oz5WfVv3bbexrXvKrio3RAEKTKdAedL3rZC4YjqP49Xse1YElAKb8Yb0r3BWZtYEv6/GfvqeI5KQ3u3QjNvEnM18752+C8E9U4ACx0iAAeUxguZuKECB41vgggsuaIrHIvfqmnGhZVnBQr6AfDb/PWHrH3hk6yODh3v2p69qfbtuaB/QpFgEqdcLwzPUGo3SLQ3IERqkJjRbaHgqqIt3Lwi+4Ynx8f8VmcaiiA0E/ahvT1VpevehA3JeQzipNvGy7xWHhJTekjc3rspO5G/xJNrVcKC6xgiq68OwLQemaaBjTgLNbVGEwoZf9plJ2eg/kIFhqErLGGrqQwhFAv4OraLrl/6pikbVkqwqKbM5N1courfnpfjS4VZS3nLz597z7X9b91kjFK6vqqlFW1srFi2cj5MWLsCCuXPR2tqKSCT2vJBSVVLuGbHQ05vC4MAwkn5ImYSTGUUxl0HeBSbyHuAU3dbayIaWmorvGFI8WDe/eiw0MVFYvXr1YZeRPProo4E9e/YEN+8cjycqYmflXOfy3qGJS6UU9TVV1VqiVoWTDahrqMO89krMrwug1nhuvUm/wFb5WTaGR0ewZ8cu9D79NIZ270Hvvv3oGRjAWKEIyzAQCJuIqHAyZCJkanDsopSeHG3rnHN7TUPblzkQ53B/k/k6ClBgJgvMhrbvGR5QJp/536Y3ibsfuE1dZ7l3Wecz/6GiKlRn5XqfM+JelVIFk90MJmfE1eBBUIACx0iAAeUxguZuKECBmSOgqh03bdoUSiQSRjqdlqlUyl6xYoXV3d39qiobX3gml156adBxnHeYAeNzuqY1uK4rcrk8rJz1eUfzPvfII4e/bqLa17IrGjsxnLg4aIZu0hJ2o63nNVe6fj2lposxw9C26KZ2dzIX/s8lq5bksf5J/dBjnAwoV2Djs+c3lQGl2pcKKVWr98qbVuj9v95yQ77gfAgStbom0NAWQ01DGMWc468rWVUTRFtbHJU1QQQMDZmMjfRE0c9BY/EA4vEAdF1TU7xhmjoSVUGEQwakgLSKnpcpOIWiLa5Dyv1x95qNr7lKce/evZXdf3fjP216Yuvb49W1oarKKjQ3N2LBgnlYsmA+5s+fj5bmVkRjz4WUKl0cc4B9Yw56DmYwNDiKsbFxZDJJFDPjsLPjsGwLOVsgk7dhaDLXWB36bWtdxf1C4teOkdvfqGk5TdPs/fv3q8JMb+3atfLQwTqqQlIhbNq0Sf/1r/cYhhELjBVHQpU1gTn5onfm4HjmjcmJ3Pme0Cor4gmtsqYekYp6VNbWoqWlGvOaYmhLPNfSXe78h/RUi3wBB/v6sWf7dvTt2ImRvfvQ09ODA0MjSDk2XCPgT+qOqpbuUABBQ1Mt3Z4mRF/XKctuTVQ33P3BD37wqLeuz5y/JXgkFKDAiSgwk4PKGRpQqqq+2xGL3CZu++EfVPgxqDyM3yKBewD9JjFn877DeDVfQgEKUGBWCzCgnNWXjwdPAQq8RgHxvve9z+jt7W0WQpxraNpCKYQH191VdJwtUsrhQCBg67ruqNBy4cKF7vj4uLdu3TrvxSY0r1ixwgiHwxFp26drhv7ZQMA4Uwgt4LouMpksJlKpb1q2fePWrVv9CkoVQJ1xxhnheDweUQNtNmzYMPFqJz+ff875ZweD5nf1oGjPuRMiY08I23EcTcfXIhXijvZrlu9Zt2q9t3r9Km3Pg3smlxyEqpxM96WF+nxoQFkOFQ9t4/YP8SU8X9V7xeQgnRXXdVYc3J/5QtF23ik8xPSAQFNbDLWNUVVgiEzagqquDEcCiEUNv8qysioIXfV3l6eDqxMoTSgHjICGcNhAKGS4moFxKcW+vGvfknPTP+p+26bca7wH/Kdv+Pl/n/PJtX//jYlcsauiqlZUVFaguakRc+d0YPHC+Vgwf75fSRmLJZ6tpFQ4aRfoTXvoGcpjYCCJkZFxpFNJ5LMTKOYm4BUysCwLuaKHTNGBJqSMhoy9TbWJzbFw8Pcx09hhaOa+vtToWDAgclZa2KPmmEzIqBb1DDNtFCMLm5prRkZSnQXbXVi0vFPHM/llectuCxhBoyIRRzxRhWC8GrHqOtTXV2NOcwIdtQHUmQKB8pWarJp0PQ8T6TR69vdgz9PbMbRnN0b27cf+3oPoGx1HWq0VEFDrTZqIhYOIhAwEdIFiIecAYt+Z511wc0fH/H9bvXp15nCc+RoKUIACs1FgJgaVMyygfNlg8oXXnEHlK/0WiCSE/CGDyVdy4p9TgALHu8Cr+kfn8Y7A86MABY5fgclqyfr6+lAulwsMDg52BAzj+lDQfDOE1ui5rua4bsZ1nB1C13s0YEDTtAOO5+3zPG/QyedH3GJxTItG87quy1Ao5FchZrNZPaTrzY4Ql4RM42pNN7o0TTMMXYcKKPP5vAooe23H+ttwOPYLy7KKKszM5XIrDU17o2maKcM073jwwQf3vkwwWA7spHjTm960JqBrn9eEVpfPFTCeHEc2m/M8V96nB/Ubn3rqqf7u7tIslG3bVonhrmExGUxOXt1XCChfKpx8sZvjFd87LnzXSZ19B0bucFzvYunJkAoZm9tiaGiJ+u3auayDYt7xB+bEYgF0zE2goSmCYMjwA0lTF35rtwop1fRv1/HgetKDxIAnxNdzjvH1f3jnLw67dV6d1K3/ePNf3nPfv64VgVBDorIK8XgC9fU1mNPRjkULF+CkBSqkbEOiogKGrlrSSw9VsjlSkOgZtdE3lMHIcBITEylk0hMo5NKwC2m4hSxc20LBdlGwHOQt239tKBDIBU19JKCLkWjEHPdcN2fZlhcOhQ3Xk9Fc0a7wXK/ecdwa10VQ13URiYT9dTHDsQSC0UpEKqpQW1uNlsYEOupDaIpoCB86CEftyPNQsCyMjI1hz+496Nm+HaP79mG49yAO9PWjP5VGHgLCNBHyw8nSMBxdkygW8nYwGH7yjLPP+/zcBYv+621ve9thhcDH798qPDMKUOBEEVjeLa+AxIekxIrpPueZEVCKjRDiXvGNn95zOB7PBZXickBWHs42jq/XcI3J4+t68mwoQIEjFXjFf2Qe6Q74egpQgALTJaBar6uqqhoDgcD5hmG8Lp/Pt2ez2ZZiPr8kYOhBtYBjsVhELp+Hmm4cDocRNE2/vVhKWXBcd9xx3EHXcYagIalBywtNy+qaJjVdrwFwkqaJLkPXTU2tBynE5Gv9EM5xXBQKhZ3FonW/9LwxTRNLDcO4CEJUu46/JOE/SiFu3rjxpadSq6rLq6++Op4cHf6qbgT+WGhaJJvJYCKZQi6fU8HdmBkM/F04Wvj2I4/sSk2GlGrjG7FCq1tSJ7Ee6Opa/wcB5CFt3i8WTqr3B/Xzyc8vdhlf7j1EnnFlx2nj4+lbPAevk64M6QENLR0xtHTEfSvbcv2AslCwoQmBxuaoP/E7GjUQDBowDB2GodagFP5QIMdVYaUK/Ny+giPuKqTwz194z4aDr7YK9YUnIKWMvnfNdV946P8evSYcS8Rj8QQi0RhqaqrR1trkB5SLFy5AR3sHqqqrYRiBZ6spVUqdcoGhnIf+sSIGR7IYG0351Yq5TNqf7O1YWTjFPDyrAM9x4HgOLNuF7Tj+FHbXU6PXhW/h93ZrAgG1DqRhIBQMIhQKIxCKwAjHEIwkEEskUFVdgaa6GFprw2iMa0gcEkyq81OBruN6SGcz6Dt4EHt37kL/3r0Y6+3F4ME+9AwMYVQtP6DrMIKB0jCckIFQQIcOD7l8thCOxh9d+cY3f1rTzF9P9aCf6fq7gPulAAUocCQCapiO8NAtBC6CROeRbOtwXzuNAWUSQmyEFLeLu3+68XCP/9DX+UGl6654ps1gLSCnxXMqzuMItqGC3v8EtHu4xuQRKPKlFKDAcSfAgPK4u6Q8IQpQQAmsWrVKLxaL59VU1fx1Y3PjG4MBI3Gwr1+MjY0hOZH0AzFVFZfN5ZBJZ2CaARVMScMwhN9aDAlNPNspXQqR1KKP5RHTUqrOcM8PItVUahUxqa9dx/GfZ5omDJWuqV5u24Eq/tN13Q+krGIRhaKl0qQxKcQHw+Hw9+6//361COMzazl2a319ffqOHTv0lnDYnND1uGcXryha9g2RSKTZMAwtmUz6x20VrdLxeNgVCItPhkLygd/85omk2v/k4JpntoiNGzeapjmmW1a1W15r88UCyRf+7NUElOqQXzakPOvKtjPGkrm10vEu9CQSmq6htSOOtjlxBEy9VB1pq5DS9cPHigoTLa1RVFQEYQYNmIYO0xTQdOG3hauJ4AXHRS4vrWze/pY17n7xjNrmXatXrz+sITQPPPDAnC/fduvte3oOXBJJVAWjUTXAJ4xERQJNjfVYMHcOFp20EPM756Cuvh6hcKR0HcsPtZikavseznkYSloYGc9jPJlFOp1FLptDoZCHbRXgqJDStSAdB57nQKhw0u9jV4Lq3HRougHNCMAIBGGYIQSCYYQiEVQkYqiqjKGhNoyGRBC1EQ0Jo/Ry9fAvnJT+PZYvFP2qyZ69e3Fg9x6M9R7EWH8fevv6cHBkHCnbgdR1BEJqGI6JmL/epBqd7qrjzdbU1m5YOG/BZxINrY9df/31pbJPPihAAQpQ4FkB1f4tNFx7rKsqj31AKVQY+Z+Ihe95sfUlp+qWkHtPXgEprgPERcd3WDlZLYmNYs7WKQl6p+oacDsUoAAFZooAA8qZciV4HBSgwJQKXHLJJW0tLS1fCxj66/P5glkoFJBKpTS1PqAaZhIyg360ls/l/ZAvFoshHA75X6uAT/2ZCh1VKCbUqGx/PUTpt2/btu2vM6gq4dREbRUR+Tmhp9qQXXie9MPJYND025TV64PBoB+Cqm2r1xYt2w80Pc+7PxKJ/HV1dfXwyMiIYRhGpZSyTgcaIeQi23FeZxWK5+cLhcqammrNNIMYHR1DIZ/39+UfpYCqpNwlgvLuMPAftggNaO2aHQ9lNWe8tlJ3nFM9oC2giRQ857Fx4fSf2ubk77prkwqgXvg+MBlUvlzl5Itdq5d6P5Errp43v38o9X7HdlZ5rqzXdC3Q3BpD27wEwuEAPKdU9VcousjnHIRDOpqaIqitD/trT6qQ0jA1GIa6IqUgOK8mehdcpNL2j8fHC5+zx6OP3dP92gfmqBPZ+OCDZ950U/dtA2PJs2KJSkOFgsFgGOFoGLU11ZjX0YbFCxdi/ry5aGpqQoVq+Q6Yz1ZTqm2ooDLnAcmCxFjOxXjKQipTRDqjKnQLqpIWtmXDUZWUjrpHynmqus+E5oflumHADJoIq49ICIl4CFWJEKrjJmoiOhJBICyeCyZLuaS6h1RlqYXxiQkcVFWSe3ZjqKcHycFBjAwM4uDQMIYmMshDQqjqzJAahGMiEtT9VnrHsdQ9PdHc1vH9RV2n3VxbW7vrSKaOT+kvMjdGAQpQYIYKqKpKzcWKYxVWHpuAUoWS8lcwtHvE1356zIe0yL1LVUv9FcdPWOmHkvdCww8ZSs7QX2QeFgUoMKMEGFDOqMvBg6EABaZCQFUhbtmy5V0VFRU3HzzYGxgbGxuybUe1XzdKiArVxh0Jh+HYNqqqqtDc0uyHhqMjI2pdRz9IVC3bpUDS88MkFSypYNL/7JS+l56KyuBCStdvMxbCK4eYphDCCIVCCBgBmKbhB6CBQCmgVH/xutKDOibHccaEJv49oAeGpPQapSfneHDbPFfWuq5TXShaqhLUZ2luavIrP0fHxvzWdBWIqu2Vg07AE3lNiEf0sPiVHpZ7Dd2I6o55vnCM84Um6nVNWK7E41rA/YUelI+IUPT3rVWto3fdddehQeVrWYvyhZfrJd9Tzv3IuaFcT8/bcqniVY7lngVNJOobwmbH/EojHgv4Aa9q4baKDvI5RSpRXx9Gc0sU8UQAgYBq99b8FnpVOqhCTRVQ5gou0mnnkYmk/bn8xOiGb9+067AmTf/rPfe84a5v/vPNQ6Njy+LxSi0YicAMBhEMhhCPx/wBOifNm+OHlO2tLaitq/MH6KggWoXYkzmvwlOYeRfI2BLZokSmqKZoO/5alJZqa3dLQbcqfVQv1QwNAUNHMKAjZBqIhjXEgzpiQQ3RABAUgKrZPBTXDyalRNGykJ5Io39wAD379mOgpwep4UFMDA9jcHAYfWPjSBZtuKp93AwgHAwgEgwgZOowNMAuFtyiZY91zJn39ZOXLf7KwYPJ4cOdZj8Vv7vcBgUoQIHZKLCsW1bqwArPwxVHqw38KAWUSQio9u1fHe1Kydd6Xf3KSg9XQGiqsnLZa339ND5/I6T8FTRWSk7jNeCuKUCBWSrAgHKWXjgeNgUo8NICp5xySnThwoW3pNPpc8bHx78rpfylpmlFz3Eug6Z90AwEmtSrVSXc3Hnz/Oq2/v5+pNMpv8otFosioBvlMNIPEUsfritd17E9T1qe5/k5FIB+CDGoCZERmqYmHUcrKytPra2tnRs0TVOFkqnUBCyrWKq4U8sOAlCtzir8VCFpqfJStYyrEFTtp1xl57rPho+JeBwNDQ1+y3AyOeGHpep1pQq60ut1Tfe3r9Y31DQ97+/e1HXd0IUK0tRzDcNEKBhStaEDXsD5tacV76sIyY3f+tbPsq+w3uSrveVetuX70jXz6/qS9gWFQuFCp2CfWVET6uiYm6iorAhGhCY011Vrd3rI5x0U8i4qEiZa26KorQ/5Qa+qolSBnno4jvQDylzORSbn7Mlk7C86Wfv73/z4YyOHsy7lv95771vv/MZdnx0Zm+iKxeN6OBIpt1ubCIZCqK6sQEdbCxbM7URnZyeaGxpQXV2NqB8+m88uA3AolKqvVdWVtgfYKoRVibbnz7ApPVRAqcGfvq1OK6A+8IeBpHrqoVW8KqBOptIYHhrEgQO96D/Qi/GhQeTGxzE2OoLB0XGMZnLIexJC1/01PVU4GQ0GEFArDcAfhmOZprl78ZJTv9LSmfjWu9/9sfSrvch8HgUoQAEKvLTAmd1ymetimRRYoQmcKiWOOGCbkoBSin0qOIPE4xDeRvGNn2+eDddR7l1WCbgr4Em1buWpmAFDi8pv4klAboaUj6sqScDYzDUlZ8MdxWOkAAVmqgADypl6ZXhcFKDAYQuce+651aZp/mk+nz/guu4vN23a5E8hXr58eUTX9b+FlO8Jh8PNDQ0NWiablUNDQ9J1XT/1UusLRsIqwFOtr6Vg0nVdy5Oy4HleSkq5UxNiG4AdUog9uq73qKHO4XC44DjOwoqK+NWLFi2+IhqJNvX39+uZTAbj4+N+iBiPRlTRpWrHFao9vFSRWWr39cNPz7Ncx7U8z3U8T3oquxKaCEQi4UhjY6OmgsVkaXq3/1pVhae2qwI9tf6g//DXyJQQmmqJVoGeaukN+cN/HNf124lVaGqaphsMBCGEvt9xCjd6ov9HP/pRyekIHy/7vlJewhOr16/SBv7rd/U5C4sEvIsbmsOX1NaGO3VDi3quF3Q9qamQMpdxYAbUAJ0ImptjiMVNz2/1Li8QapfDzFzeQ85yRzNZ+67ihPHV+/7u4b5Xmo7+Yud5zz33vOWbd9/dPTQyuiwcSxjhaAQBw4QWUGtDBhAOhfy27/a2Vsxpb0V7Wxsa6mpRVV2FaDTmV1yq4T7+MgF++/3hvc1OrnU6GUxOLi2grr1aQ3VoeBj9B/sxNNCH5PAwMuPjSE0kMT4+gZF0FhnbgStKQ3dCahiOaSBkagjoAp5jq6UNMtV1tb87f8XFt8ydu2DDypUr1XByPihAAQpQ4CgIqApLA1jmqaBSolOUQks1HOZVD4h5jQFlEsA+CLHZDyOl3Id4ZOPRXEvyKLC97Cbl3q5lzwyZ6XwutBSVR6/SUijPJITcDE/uhxSbodsbxZynj3kb/LF25v4oQAEKHEuBw/uX07E8Qu6LAhSgwGsUUC3eDzzwQPDhhx9WvdGTtWr+VlRIGQwEVjc2N3/KsqyO/v7+MSnliK5pbZ6UUSFV9aHmDx5xXcfxQ0lPPiF0/SHheY9A1x+vqKg4uHHjRlUY9+xj+fLl8xKJxB0tLS2vt4rFkAolVZikgiW1VqQKtmKRiFSBZ76QF4ViEY6jqiClrSaGSyknAPkUpHhK07RBwzBymqaZwWCwq7am5o3RaKQhm8tpqhpTbVe1pJfCTdWC7tfjqfTRVu3mfg2l0HRIL6xpmh40g35Q+WzvthAZQN8TMHQRi0YaDBHch0jxA/FQ9WPr1x/esJlDKF7yfeW5wT3A2rWHHg7khdctXlBV5Z0fqzbPDQT00yHR5rpe0Mo7eiZta6rTvrY6ZDe1Rgerq00zHNarIERICgQcW2pFy0W+4KHoSDeZtP7GTOa++U/d21RF62t+3PvP/7zyvvvu+VTv8OjZwWA4HFEhZSAIXU3xVoNsykFldVUFWpsa0drSjJbmRjQ01KMyUYF4LI5wRE2ED8IIqBbwycCy3Kb9IqHlCwNJFSargUsqiFZT5tXk9tHRcQyPDGFgYBAjfiiZRD6dQj6TxkQqhbFsDpmC7VdpauWWcdU2rsJJ09CeGZYq4dhF13Hcic7Oed/rOnnZl+ctWvT0ypUrn3cvv2YwvoACFKAABQ5bQFVbSqDS/1ChpUQlgEohUHHoRh8YeAdqvPHn70fK/YBIwhNJCC+JgLYZoVDyeAoiXyus3LuoEzA6AVEJF5UQohQCa7LjFbflif3+c1SgqyMJePsAN8kg8hXl+AQKUIACUyLAgHJKGLkRClBgNgmsXLlStWD/+9DQUFM2m71ZCLFB1/WrHdu+3HPdSrW2n/TUKofYIYDvBDXtJ5Gqqj0vDCUnz1lKKc4+++wPd7S3f1JKL9RzoLdo27atl8Y9G1JKUxMipAbmTFbCqZQIQEYK+aSU4mGhaf8TCoX2maY5TwixNBIO10cj4XDANBcFDP3kYqEQSU6kRCqdRiFfgO3YFgD1UYQfbopeAfRIIQYgpfoXTFxKvMHz5EKhIar7KRk8XTNyQtf+LV6v362bIltMa12iaJxvmOIXnid+/vDDD6u29SN5vKqAcnIH27ZBrFunQuRSfHrZBxeYgWiiLSCLiw1TWyA82VS0vFix4OUKOXtv2Aw8PH9eXItXm6dXVAdO03VtKYCYI2XQsqTM5Jzhof7sLV59xc/uWXN4Q3PUcfzypz899ctf+9qNT+/YfonQA5WRaNQPHP2QUn34U7d1f53KRDyGutpqNNbXor62HnV11aiqqPTXroz6A3fURG4TphGAbujlwFINx1HTs/0RS/59oW4JFWCr9u1coYBcJoNUKoOx5DjGRkYxOjrqV0lm0ykUcnkUshnkcnlkChZytu23kKttqgrOoKEhFCita2nopSndhUIhHzSDu5eesuzu1jkL7l2zZo2qCOGDAhSgAAUoQAEKUIACFKDAtAswoJz2S8ADoAAFjrXAhRdeeEkkEvlqJpX6tQd8/KGHHhpSbeGO41wqXfccx3WjnpT7Nc/7eVNb26b777+/NKXmJR6XXnppsFgs3lNdXf36sbGxX6dSqd/puq7ay6OapjXm87lFruO8HhJVfu+4mqMicFBK8T3TNH9gGMbW+vp6LZNK/X9VNdV/ISVaXMfWKhJxf91BtUbmxETKr5IrFAq267kZIbEFEE8AeAKatgMo7I9Ga4Y2bdqkAkY/7Vu4cOGpui7+yHW8i6TrzQNEFkL8Itgg71jcctq+yWpJdfxjY2PBSy+9NDMFA1JeU0A5SboRK/wW+xVY4a1du/bZYs+bblL99F3G+rXblNnzBvh0d68woqeY1TAQhYaom7Jl/1BupK+5fWT96iOuBMWP1q1reWDjL//y4Uf+79pMPt8UCkd1NZndNM1SJaUKKVXuq+vQ/FZqE7FoFOq6VVZWoqoi4X+tBiRFIhG/ilYNYFK5dSkvfi6cVGuPFgpF5PMF5HJZpDMZpFNppDNpZNMZFPI5FPN5NdTGr57N54vIq1DS8fyKSRVM6rpq6db9qedmQIOpqZ8BjlV0XNdL1Te1PHjK0tPunHfSSQ9fdtllL3tPH+vfSe6PAhSgAAUoQAEKUIACFDixBRhQntjXn2dPgRNS4Kyzzpqj6/pllmX9Ih6P7zq0MlK1gBuGYbyWsO6ss86qiUajNxuGMVAsFu9+/etfv//QoK+rq6vaLhbfIjTtQg2ogC72CqH/rL6+/n83bixV+S1fvvzstrbW73a0d7Tv27dPU2tNVlVVQkj4weR4Minz+XwGkFshxfdNIX5c3dS0+6WqOg+9sKecfUqrmyl2WPCydp399L6N+472eoOvKaRUVZTqeIe7Voh0X9r/Ot4c98PIjd0bVaXpkUwWP6J7XFW/3vKFHyneQAAAIABJREFUL/zJ/T974P39AwOnaIYZM4OloNHQDei64QeUas1PtSym+qy+Vy31QTPgV1iqYDIUCvrrgKr1P9Wf+QON/C6y0pR4FVCqyknbsvzJ3I5l+V+7ju23ejv+xHcbtuvB9pcNUHWXpWBSFWIaQvMrJf1gUu3fr5p0pGUVM7FYYsfCk7r+dV5r+3f2DA6OTEEIfUSmfDEFKEABClCAAhSgAAUoQIEXCjCg5D1BAQqcqAKlArYpeKiA0jTN0zzPe+KSSy55yQDo3HPPDefz+eCCBQvSL1zr8dxzz333ySeffLNVtKq379iu2nRlVWWFCqfEyNg4Mun0mOs49+kB875wOLx106ZNaor4TH287HvLoWtRqhOYDCjV111dpWvS3f38tUOn+0S/+93vnvzTn/zo3due3nFlJptrMEoj0ktho6FD11RFpVaa1K4+++O5BaBCS39ejvqz0tAcNahIUz/070Dph5Rq8jrUoCN/Kvvkz/z1RctT2mUJxG8JL03hVg+1C0MNRFLhpK75AaUfe7pO3jCM4Y7OeT8673UX3Hvln/3Z40KtUcoHBShAAQpQgAIUoAAFKECBGSjAgHIGXhQeEgUoMLsEVq1a5ZfDrV+/XmVIhxN6igsvvHBtc1PTRwYHB6O5fF6PhMP+WoL5XA6pVMp2LPtfNNP81NatW4cOcx/HEvWV31u6S1WT6H6e1+HYHbPzWrdundl34MAlv/nNr67Ze+DABYWiXa0ZAdNQa0vqKqTUSu3bugZdqKCyFEb6Jzo51VtdvHI2OXngpQE5KpScHMJeqo5UP/e/Kqv435c/VECpq7ZuTVVNllq6dcCT8AqaoY3X1tZvmDt/yXeam5s3rFmz5mhXzB6za8AdUYACFKAABShAAQpQgALHp8Ar/yPy+DxvnhUFKECBGSOgpo7/6lcb7gwGgm/NZrNJ13UaXdcN2Y4jrKLluK77uAfcEIvFfjfDKycPNX2p95fJEHLKKliP9YX8wQ/urXniiV1v2rz58SsPHDh4bq5QrFLD0vVAQKjh6aqqUVVSqsBysqpSTFZPqtrKSZnykJxDj//ZYFJVUvrVlB6k65WqLKX0w05ViWnomj8AJ2Co/cCGdPPhYHikvqHpV3UN9f/R0Ny+4f3vf392FoTZx/rycX8UoAAFKEABClCAAhSgwAwUYEA5Ay8KD4kCFDixBFRA+eCDD35YCKEbUv7adu0z8rnCybbrVgLodaVcB+Dxbdu2qands+Vx6PvLjK6MPFzQdevWVe/eseOip55+8rJ9PQcuHE+mGjyJsNC1AIRq4vbn/vgP9V2pqFIFlOqjtHbkc83aanJ8KZRUQaRq88azXe7lSklDKw/A0aUm4GjCKxq6nk8kEtvnzF/4m/kLlzygQuzVq1cf6ST2wyXh6yhAAQpQgAIUoAAFKEABChyWAAPKw2LjiyhAAQpMqYA488wzW4PBYObiiy+eeOCBB4JCiHohREhKOd7S0jL6wjUrp3Tv3NgRCWzbts3c9NvfnvL0zu0X7dy54/yhoZGlE5lMtefJoJQwPaHpKo5U4WN52Ul/f6XvSpO8Jx/+NG4AumoT14BAQA280aWuwTV0zdY1YYVDZj4cju5raW1/dN78+f8TDBu/TSTqe1evXq0GCvFBAQpQgAIUoAAFKEABClBg1gkwoJx1l4wHTAEKUIACM1Xg61//eoWueyeNDo+evmfP3qWDw0NLsplsazabqyhYxYCUMIQqofQbteFPzSkNz/Fn60gBTWqQniaEp2nSMU3TiYYjmVAkNBSvqNxZV1v3VE1d/eOdnfO2bNmy5WB3d7czUy14XBSgAAUoQAEKUIACFKAABV6tAAPKVyvF51GAAhSgwKwRkEBAANM6tVpKqf3+97+veeqJJ9p7envbgyGzva+vvymTnahOjk9UZDLZsGXZASldXdN0Tw8YdmU8nq+sqEiHo5Hx1ta2AduyDlZU1x2Y39p6oGdoaPC6664rCiGOy5b5WXNz8UApQAEKUIACFKAABShAgSkXYEA55aTcIAUoQAEKTLeABNoB9E93SPliDuvWrdMffPDBoOM4ejqd1mzb9t+Lo9Got2DBAueiiy6yVq5cqdq1GURO943E/VOAAhSgAAUoQAEKUIACx0SAAeUxYeZOKEABClCAAhSgAAUoQAEKUIACFKAABShAgRcTYEDJ+4ICFKAABShAAQpQgAIUoAAFKEABClCAAhSYNgEGlNNGzx1TgAIUoAAFKEABClCAAhSgAAUoQAEKUIACDCh5D1CAAhSgAAUoQAEKUIACFKAABShAAQpQgALTJsCActrouWMKUIACFKAABShAAQpQgAIUoAAFKEABClCAASXvAQpQgAIUoAAFKEABClCAAhSgAAUoQAEKUGDaBBhQThs9d0wBClCAAhSgAAUoQAEKUIACFKAABShAAQowoOQ9QAEKUIACFKAABShAAQpQgAIUoAAFKEABCkybAAPKaaPnjilAAQpQgAIUoAAFKEABClCAAhSgAAUoQAEGlLwHKEABClCAAhSgAAUoQAEKUIACFKAABShAgWkTYEA5bfTcMQUoQAEKUIACFKAABShAAQpQgAIUoAAFKMCAkvcABShAAQpQgAIUoAAFKEABClCAAhSgAAUoMG0CDCinjZ47pgAFKEABClCAAhSgAAUoQAEKUIACFKAABRhQ8h6gAAUoQAEKUIACFKAABShAAQpQgAIUoAAFpk2AAeW00XPHFKAABShAAQpQgAIUoAAFKEABClCAAhSgAANK3gMUoAAFKEABClCAAhSgAAUoQAEKUIACFKDAtAkwoJw2eu6YAhSgAAUoQAEKUIACFKAABShAAQpQgAIUYEDJe4ACFKAABShAAQpQgAIUoAAFKEABClCAAhSYNgEGlNNGzx1TgAIUoAAFKEABClCAAhSgAAUoQAEKUIACDCh5D1CAAhSgAAUoQAEKUIACFKAABShAAQpQgALTJsCActrouWMKUIACFKAABShAAQpQgAIUoAAFKEABClCAASXvAQpQgAIUoAAFKEABClCAAhSgAAUoQAEKUGDaBBhQThs9d0wBClCAAhSgAAUoQAEKUIACFKAABShAAQowoOQ9QAEKUIACFKAABShAAQpQgAIUoAAFKEABCkybAAPKaaPnjilAAQpQgAIUoAAFKEABClCAAhSgAAUoQAEGlLwHKEABClCAAhSgAAUoQAEKUIACFKAABShAgWkTYEA5bfTcMQUoQAEKUIACFKAABShAAQpQgAIUoAAFKMCAkvcABShAAQpQgAIUoAAFKEABClCAAhSgAAUoMG0CDCinjZ47pgAFKEABClCAAhSgAAUoQAEKUIACFKAABRhQ8h6gAAUoQAEKUIACFKAABShAAQpQgAIUoAAFpk2AAeW00XPHFKAABShAAQpQgAIUoAAFKEABClCAAhSgAANK3gMUoAAFKEABClCAAhSgAAUoQAEKUIACFKDAtAkwoJw2eu6YAhSgAAUoQAEKUIACFKAABShAAQpQgAIUYEDJe4ACFKAABShAAQpQgAIUoAAFKEABClCAAhSYNgEGlNNGzx1TgAIUoAAFKEABClCAAhSgAAUoQAEKUIACDCh5D1CAAhSgAAUoQAEKUIACFKAABShAAQpQgALTJsCActrouWMKUIACFKAABShAAQpQgAIUoAAFKEABClCAASXvAQpQgAIUoAAFKEABClCAAhSgAAUoQAEKUGDaBBhQThs9d0wBClCAAhSgAAUoQAEKUIACFKAABShAAQowoOQ9QAEKUIACFKAABShAAQpQgAIUoAAFKEABCkybAAPKaaPnjilAAQpQgAIUoAAFKEABClCAAhSgAAUoQAEGlLwHKEABClCAAhSgAAUoQAEKUIACFKAABShAgWkTYEA5bfTcMQUoQAEKUIACFKAABShAAQpQgAIUoAAFKMCAkvcABShAAQpQgAIUoAAFKEABClCAAhSgAAUoMG0CDCinjZ47pgAFKEABClCAAhSgAAUoQAEKUIACFKAABRhQ8h6gAAUoQAEKUIACFKAABShAAQpQgAIUoAAFpk2AAeW00XPHFKAABShAAQrMMIFKACsALCsf175nvt8IQH3mgwIUoAAFKEABClCAAhQ4SgIMKI8SLDdLAQpQgAIUoMCsEvjQM0fbDUCFlC983APgJgaVs+p68mApQAEKUIACFKAABWaRAAPKWXSxeKgUoAAFKEABChwVgVsBfPgVtqyqKFcypDwq/twoBShAAQpQ4P9v72ysrTeKLPoyYBGBZyLwEIEhAuMIDBEAEXiIAIgAHAF2BDOOADsCjyPwEMHMO/g2Sxa6Up3qH7WuttZ6633200/3ruruqqPuFgQgAIGbE0CgvLkDUP0pCWj2ztYMnr3CsvxwSlNSqJMJLJfrfvBYtlvaV2lj//suTOlHbUi/v3l7e/v6saxX/937cNt7KW/vct3p/p+9V1YzJyOHlntLpOSAAASOCWirBG2ZoP733xZbJ+jf5Sh9r/o29b3fPfpf/XvEsSxL5HnEWxFKnAMBCEAAAhBIEECgTEDjEgh0JvCr92D+z+YzaMsmME5/WQIS/NSGPn4kxjUVVYL8+XtS/UXHWXNK3v/LKKSWGUfFNOO2tz7124d4EoUggVJCJQcEIPCvBNSnffouNv4y8bJ1eTcJlup7v3z87sVa/a/KHD2It6KkOA8CEIAABCBgEmCQNYFxOgQGEECgHACZR7wcASWYmgnnJJoOBAlSEgdbC1MIlI4V2p/r8lcJtB/lr9sXhTtC4LIE9GJIe7hqmwR3BUik0pq1qHanF0atZzAiUEYswDkQgAAEIACBAQQQKAdA5hEQMAkgUJrAOP3WBLQ8TzOOewmTa7gSKCVOtUqSXYGMGZRt3T3T37LMu60NuNu1Cex9XKp1zYpQqX6w1YFA2Yok94EABCAAAQhUEkCgrATI5RDoQCCTMNOWOxiCW05PYGRivIahZdYtkmQEynPdTMtQ/2oWQUtOdR0HBO5MYPTLoSXrlh+sQqC8sxdTdwhAAAIQmIoAosZU5qAwEPgHAQRKHAEC+wS0hFCi0qhZk89Koz0qP6mcTYlAea63y5e+N4ugGbRabsoBgbsS0B6Tf+y0nNth+rtHOZxr1uciUNbQ41oIQAACEIBAQwIIlA1hcisINCKAQNkIJLd5SQKataOE0v3yai8YtTN5ECh7WSZ+Xwktmo0bOWTvf4+cyDkQeFECzlfvRyConc2OQDnCSjwDAhCAAAQgECCAQBmAxCkQGEwAgXIwcB53GQKziZMFXI1IiUB5vvtpFuXfAqK3viqsL3hr5iwHBO5IYDZxstigRqREoLyjJ1NnCEAAAhCYkgAC5ZRmoVA3J4BAeXMHoPqbBGYVJ5ci5c/ev2IrEcs5ECgdWv3OlX9J5NDS1a1DIrSW8yNO9rMBd56bwKziZKGWXe6NQDm331E6CEAAAhC4EQEEyhsZm6pehgAC5WVMRUEHEvg2MMNtYHE2H5X5ujMC5dlW+/HzZQ99AOfDx/+WMKmP4si2rvg8V80oDQTyBLQFgrZCmP3QDGe1VedAoHRocS4EIAABCECgIwEEyo5wuTUEkgQQKJPguOxlCfzhXRz6bePaSXjS0XovS3cWDwJlY8NyOwhAoCkB9ZHaAkFbIbQ6JPbrR/dseV/16+5MdgTKVlblPhCAAAQgAIFKAgiUlQC5HAIdCCBQdoDKLS9LINMe1pVVIvz5Y3muZtcUcbKcpwT5Px4z5z6uFC31LH1EJTrbDoHysq5JwSFwCwItZq+r3y0zkdX/rvtH9b/6Uf+rGcw1x+/fL9Z2DdEDgTJKivMgAAEIQAACnQkgUHYGzO0hkCCQEWRoywnQXHIJAjXJsZLgPz2WJkYFQ0FRG9R+a9nZlX95e3v7dZAuAmUQFKdBAALDCWTikWUhJUxKMHSWXR/tB3sEwX1JhEB5RJS/QwACEIAABAYRQNQYBJrHQMAgkEkIaMsGYE69DIGajzIoIZZIuJ4t6VRes3BUhszx0+AsSgTKDF2ugcA2AW0FsbVkWP2BI5LB94cXNBLvMi9qJBJKmKzZt7Lm+c4sSgRKvB0CEIAABCAwCQFEjUkMQTEgsCBwR4GyJEBlP6qyP1WNuDSDU6leyzptLW07s5ylbOV3KZ8z27BX+WuSU82abLVnZVakjCbIPQXKme279ptX7QN6tI8r2bVH/ffu+WzGdbQ9ji7vzM/LviBq+cX77DjgzKLsKVCWfk2/rxbXqJ8pMYz8VOXvFcMs9yItzGaKR2ra6TIO7FWnK/jZetwq7aH8rmHMtRCAwAsRQKB8IWNSlZch8OoCpYIU1VFfyZU4c7RJvoKXrx8/ZQ+rlsZ2lvJ+czAjRPX56FEv7ae1NZOn1Ed1+aJyhl+Gg8pY9vl6NjOm8Na+jXuzjv5sFiC67Fm3zbQDXacy69qWh2YB6Su2ziE7axbl0dFSoCx7aX768MFn9lWSJBvLB7UcffShcpUvZav+RzO0VF79fPXwx9Yz4WTfnxgQJHYdvTyRLfRxp+hx1NbEaXa7Ruva8zwEyjZ05b/6MM5R21w/Tf2ePlJz1D6cUmY/0hP9YFlLgbLso6n2+iwGUN3Vh6kP1su0Vqycfkx2Ep/1UeIzxQiqw9bhbGHyzM7LWEn23fOzZQyoMUBxU4/DiWdK/LZVDjFUvLDnA9EY61k9l3Y6ijXL2NLKzyLsVT6N8YqHVb6l0L11/drGah8zvCiP1JVzIACBxgQQKBsD5XYQaEAgI8xcoS2rXiXBrsWkAPkooY8+w0lOFDT9YuPGCkQldD4L6PfKorpEBI9offYC5mfLH/furaBWdd4Kbv/PLJTjp5m9JzNfcI1UIZusi9uRmNZKoFRCpNme7hdxxaz4YIRF9pxI4hu9t8pc9rZrkXS5vhaxqxIy3Td6SLzfEovVb0ronNWu0fqNOg+Bsg3pTByiJ0dFQbeUGrscwV/3fzZer5/txAC6dmscU3uXwJWJAVpsR6JyOf2Y+k19zG15qOyqw5EonRUoi3CXiUOW5ZRwJZGyddzkxDNbM7JVP8WB7uoNx/6yjZ6ReQk7ItasiYXX7VI2loB/FEO5fQnnQwACkxNwksXJq0LxIPAyBDKJwcxtWW9RlVgcBb0ZAzqB3bP7O8nJVsKjurkB6VZZJC4p6G19RJOOo+dulc8J6J8ldlvPdUW7cg/N3NHMhB6H/Piv5o0jy0rduq7vWZMYL6vTclnmGlNWPI3gbpF0OYm9yjRCoGxp12cvGCJ8r3YOAmUbiznjYnliVriKlthtp9FZ7G5d1/FWq/5NMyC3ZjX24LMWKJ3l/K6dWwmTWxxa9P/lvk48sx6HNUtQ8UFNnHsUA7bwM9ldL8Nai36KYxQLi0Pro2ds0rqs3A8CEGhAYGZRo0H1uAUELkngVQRKBaV6Gy9hp/dxFNjtPd9JTtYCpeqXeZP9rDy1Ccr6vk7SEbHRmrMT0Ov+0TEnw9VNmiL1XZ/zvTmTLTKDp0agzO7Ptld3+bNmJ7c4WolskbLUzNxyhY/eAuXsdo3Y46xzECjrybuzf8sTNSOvxYzmZzXIzKKMvLRyYoD1ONZ6jNULNvUvmeWtTj+2FCglfDkfM3LG2lYvSPe8usUHmXR/J55ZCpQS5eRD7iz3rTo9i2Vb+1mrcT47azTTS9XE+ZnncQ0EIHASgWiyeFLxeCwEbkngFQTKHgn2kTM4QfPyXk5yshScWs2cXNerlUjZOqAt5VwGiU5A7wiUTqI1KjnWc9y9KCMzeLICZc821iJ5aTGj5KjNr/+eTWBcf+spUPa0a6TcLvPZzkegrLdIJgbJjr9OaTPCaeTFhRMDLMexXmNsVqR0+rEiUGb294zauhefZz5TGzs58UwRKDP8jnz+k9U+m7041o4HqrtmjfaYNfmMUbZtHDHn7xCAwEQEECgnMgZFgcCDQCY5mKkt90ywj5wkGjjXCpTujIOjcq//Hkmq9u7ZK6AtzyyBrRPQRwVKBbv6OINzRGYqOvd7dm6mbepDOXuzYbICZWaWaZRB7YcueiRt0bJnREonsVc5IomdK6aUPShdsSTKRefV2tV51lnnIlDWk5fo4K58iLSJ+pJ5+yzqedrD7mgLFrfNKd5y27db94zY5vRjRaDMjCOROKt3DPKMZ42A5cQzRaB0mEd9YLmXdmZrmcxzoteU886M82VjzYzmgAAEXpTATKLGiyKmWhCwCWREkJnaco+AzYHointOclL2vNQ1NXsNHdVHQoKWy2WWeWX856g867+X5MYJ6HWPiJ9mAvJnHxhx6xU537X70ZLHjEApP5QP9jyyou+ZiUvhsZ6BcsTJ7bMiYowrYJQv3Dtfkj2q19bfs3bNPOuMaxAo66m77WHrgyv1pdi+g5aUOktpNYYejaNODFDGMfeaDI9IP7O8r2O38vE750Ne5VlHAuVZ4mQpnz6uojHAPZx4pnygp1d/3VMAXXKJ7JO9xXGE/+/ZLyPgu/7A+RCAwEkEIsniSUXjsRC4LYGMwDRLWz47MJXTuLOEnEBLyf2Xia+JZpw5EziOFIcUIB7NTFnXO+Kn7jJqPSOyz1jGBiOuyQiUHyW/FuvWx02Qdf/MjBy3XEfnuwK/k9jr2REuGYFS/acrgB+x2Pp7pPyZ+85wDQJlnRUk/mmvXec4Eqyce51xrhMDlPbf+wWRnuO+THD6MQmUml3qfhld5dqzdyZ+7WHzjIDlCpQfd1zeLNtrL+heAmhh7o6Vum6GOD86DvfwLe4JAQh0JhBJFjsXgdtDAAIrApkAb4a27Cbky2orSFLAXL7ArHuVn4yDOAmTm5xkypO5JhM4ziAO7dU14qeuPSL7PGb4j7rGFShHlSuTIGdmvy4TJSVlZbZTbR/gCPxOYh9NjGr6w942doWP3uVpeX8Eyjqamf5o5Az2utptX+2OOT3K8OyezssEtx/L1uNZfHXm1h5bdXHY6XpHoMyym/E6Z9VRzbi2jvP1MkT3y+5h+crj2Ix+QpkgMIxAJFkcVhgeBAEI/IPAVQXKjDimAENCgn5vHQpetKfcp6ZvOOJey+RkuZy3xUyoUYFjwSs7fLP4Eqvq8GHD2XqRMUf7TzoB69WD1IwgsNccig+6SyFbJMiZtnTUB2S/AusI125iH0l8axK5LVu0tuvR3qhmlzvN6QiUdabIxB+R9lBXqr5XZ/qtZyVaLilvEQM4L1vdfixL9VmZMjGgyiBmmi2opdnq5/Sj8UtxgPp/xX8Zlsu9HCN1bSFQFhFOv2tesu+Vt/jYklOkfs/OcWKojI018UCxbOs4X/XRVkhH2+jUsOFaCEDgBAKRZPGEYvFICNyaQCZBOLstZ5JxZ4ZTZtlvdFZHbXJSluIouF7udaUAW8G1Pqij35mjd+BYyqSlXhKCn+3VJftqKZj74YR1nSN+6iYJkY8gZNiPuqaFQKmEUQneOgGQ3XT/mqXD0Xbauw9QHd0XFVHhxE3sI/fN8Fj7XE+7Oi8/RrWFFs9BoKyjqHFA/YVzXF3sro0BJMCo/1V7XY+h6n8V07l9V+Hf80XLlo31PNVHW9lI+FnPaNcLS73ElJ8sj+w4pmdpv8g9kUmxlJ6nWMo9ouOX7uvGHsuyPHvRln3JvlVPMVJcK2ZrP5OPZcf5nj7mxGeZvudVxzHXzzkfAi9FIJIsvlSFqQwELkDgigKlW2YnaCkmc0WE6DNqkpNocKS9GjN7PfUMHAvXqJCr8zMB5LLJHY05mf3PojaYtelnEzvVRwmLkruyNcJeHbO2U6IaEabd+zuJo+ol31Af4HwgI+obbt/SW6CM2lUs9PImI344M7NmbTtb5UKgrLOW+zLQGaPqStbv6poYINqPaTagvo6emQkY3WPZ7cfWRI9eVO5ZIMPQ/eK2O8aovM5qmqxAGYk1Nc7L/s74teStF+CK1fY++KR7a4ZjZLxe2zIyE9GNVTJjjOtHmWf060m4MwQg0ITAUbLY5CHcBAIQsAi4Yp9ufnZblgBXluEcBWDuspsCzw1Oo8KKGxCV8kTFj3J+VqSMBI7Zvf+iydXSgd0E1hEoM7POHIHVaoiDTnaD/lKs8hVWZ3lTxnbRL/Tq3vpoQGRpefSeaxO45Y8mL25i31OgzNhVia+blGZtMKhZpB+DQJlG948L3ZnKr+BH2RjAHT8lUupZRzHS2oLRMc7tx8pzJHrpRdezJbhHHpUZtzP9nMqRsZXqJoHv6MgIlNExRs/OxoBOzCzf0jY5rhAeGdOcOF/1jcSua5u4jCRyS8DngAAEXojA2aLGC6GkKhBoRuCKAuW68gqOilBRNsIu/61gS0KDe7giXDRwyQS8TlC6rGfmWZHgOrMvULYO2QBYHI7GnEyiE+Hj+trI87MCZSb4z8xCFIvMEs69PkCJcCRhXNvB7RujPu4m9pFkLuPLqm9UjFiyydr1qD2ObAetnoVAWUfSFbudbUjqStbv6sy4HO1b1qV2X7Tq+qgQ6vZjpWyR/myPvvviKNvP6bpMvxr1UVeglLArccx5SZjxNXdMcGPlrD3Wsf3yv7NxvkR8CazR4xVekETrynkQuA2BVwxOb2M8KvqyBNwkPCL8vAIsV8iJBi6ZgDEjDskGbh2igaP7YRndN1sHXZvx0YifZpKP2uTq7LaR8Yno7OCtumUS5BpfacnX9btoYuom9hGfy/hytM/aYpoRCTLCc0t7bt1LyXVmO4xyr2czh5YfL8nUQTZ3hIjMM2a4xh0Po21shro9K4Nb55rxM7ONSVQMdfsx1SMqfu7Zz40/avo5lcMV0XVNpK9zBcqoXZbs3PE3wyrjY64I2qs9I1D2Ist9IXAhAgiUFzIWRb0NATcJjwg/rwDPXfoRDezc5KQ2IfveXOJ1tJQ8E4zW1qHXjK2MqBMRi2b2/4xAWTNrNPO8WQRKd6Zw1M/dxD7icxlfPmrre358Zbsu65UZ/0a071naQO+6jh4Pe9cuRA0vAAAfHklEQVQncn+3ztHVGa0E0agQ5vZjmRmA6zpl+rlaMSzT10X6bFegjNxzzcud3Zh9Gen6Qq1NIu0sco7b/0fj/MizOQcCEJiEAALlJIagGBBYEHAH6DsIlArqJE44ezdFAxc3OYlsiL7n0O5sg6MZDplgvUYIKXVz9yqL+OkZyc7ZnU/GfpHZIM/qlRG0ZxBn9AVXd2uIqwmUmYS32DnTdmaw69pPM+PfiDY8I6se9Xb79Vqxrkcd3HuOjgHc2c69BMqs+LXk6wpuurZFW3Jf9EbiNlegzNTDHe8j5d7yd9enZxAoxUZxvrN/ZjTOd/sEzocABE4kgEB5InweDYEnBDIJ2iu1ZQUn5efDx3JiR5gsWKOBy+hAzk0AjwTKjL9Evwq610gzzz3y04zIMkNgXdOZuQlLi6/mjkjEapjID7TUS7/VBygJzvQBVxMoa4Rn8Z7drhGfyPQrkfvWnpMRI2qfecb17vgUHWfPqEv0mW4MUPuCz13m20ugrK2H+Lp1aeUv7jLviBjr9p9H8cyW/7nj/VH898zHXZ8eHUeVPao1zpcx3hEm3Tg/2hdwHgQgMAGBTOc6QbEpAgRemkAmQbtSW16KDx88hAcFKWWD7VbGjQbCowM5NwE8ClDdBEF8W/iLu1dQ5LmZ2X0tkqxWPpe5j5uwRP16ryzu8q/W4syoPuBqAmVtu3QT7NZ2zfj/+prM+NfiuUf3mJHVUZkzf3dn97V4YZIpZ8trRscA7pjdS6CsmbFd+LtCYbRPPrKv66eRcdPtPzP9tTveH8V/swqUiuVUV431Jc5fTj44sm/07xG7Ru/FeRCAwCQEMp3rJEWnGBB4WQKZBG3mtqxARXX66BGwZGZCZYwdDVxGJydnC5RRLkfMM2JixE97LN06qsuZf3cTlhb2Gy1QKjHRLMjRfUA0GXZ5RBL7zGzgSPvY81U3wZ5RdMuMfyPa74ysetTbFc9UhtqZvz3q4dxzdAzgMp5ZoHTZZZcs177IiAjpbv+Z6a/d8f4qAmWJ8zUbsgiTThvMntsiHso+m+sgAIFOBDKda6eicFsIQOBBIJOgzdiWFaR89ghWzjBuNHBxA+zapTCtBUr3flHRJmKzHgG9KxZFlm5F6nLWOW7CEvXrvfq4jLPizNl9QNTXXR4IlP1ai2ZmS8zOHtqrdOslmHzhq+xNH/ufSuR49SMTf7TYMuRMrqNjgFcSKFvvqR31g8zel0dxco94Zl0fd7yfXaA8e4xvEQ9FfY7zIACBQQSOOutBxeAxEIDAgkAmQZipLWvmkDa6VuBy5hENXEYnJ66geBSguveLijYR27nCTsRP3SVjkZkRkbqcdY6bsET9+kyB8uykpdQ96uuuHyNQntVajp/7zJZH/ejxne9xRmbrjqtvszE6BnglgdLtO1v5ijtuqvUezfRFoIz3cVeL8+M140wIQOB0ApFk8fRCUgAI3IzAlQXKTx8zTUYt495zjaiQMzo5cQXFo8TavV9UtIk0Ozc5iYw57t5SKmd2hl+kjr3PcROtqF+fJVBq1rQS8BmOqK+7foxAOYN1t8uAQFlnm8zWHdElyHUl63f16BjgzgJl7QqU4gXuuBmJExAoY21M7PUi+UpxfqxmnAUBCExBIJIsTlFQCgGBGxG4qkApcVKJSq9DM+WcgCgq5IxOTlxBcWaBskdAn/H/VrMyevnu3n3dRCvq12cIlDOJk6o/AuW+R19Z2H9WMwTK+l7MFeyvPot9dAxwZ4Gy1VjtjptqFUc5b494Zt0a3XIfxX/PWnsvn3bL7/ZGveJ8txycDwEInEjgqLM+sWg8GgK3JZARaM5uy5kPQkQMrGDli8feYV+/vb1pv6PoERVyegVyz8rZWqB0ZxxGuRxxzsy0ifhpxpeiQtRRnY7+rn2v/nB00urvmm0n5s8ON+BvYT9XgIgIWZk9wSIoVV/Z9/PHyWqv0SPqFy4PZlBGLTD+PATKeubuGKUnRtpEfcne3tT+NUZED+1R/NuDk0fHAK8kULIHZdQTfzjPHe9nEijV7tz2F6GjOL/sEazfPeL8SDk4BwIQmIRAJFmcpKgUAwK3IXBFgdJN8NfGlAghAfK7h5hT/nsp7LjCVVTIGZ2cuMnfUYDqJjutZrtk9iqLjjkZfxqRIGtvVbVP5ziqs5uwRP16r4wu34hA6d7zqA9Qf6Cf5YdJXFYIlPueGrGr4+sznItAWW+FTAwSbWs1pXNjAD0rMmNvdAzgjtnRJfRuH9xizHT3jI7W5chPJDo7LwsjcQ8zKPepZ+Kf5R2LEKnf3zxifY3xI+L8I3/i7xCAwEQEjhKniYpKUSBwGwKZ5ODMtuyKBsWQSmg0u0EzJPdmmJXz3eQkKuSMTk5aC5QZf2khTGSeG/VTd1aofGREguwmgJEyue0n6tcjBcqMLxSbaWak+oDIF5JdVhH+Kodr10hi7/ZXKke0fTyzrZtgt+gHZhuYESjrLZKZHa+nRtpFTeky/UykTKNjgFcSKN14RoKUvvpee7hiWWQscPvPTH/tjmFHL6ifcWzt05nxTGVTvPKnCeL8Wn/jeghAYCCBTOc6sHg8CgK3JJAJws9sy26gKCFCQZdEKOdwA6SokNM6kDuqkxvQHwWobsCr8kVmlRzVw7W7I8Bk6tQ7Qc60SwXmR8sL3bpG/XrPfq4gdyRkuW1IfcAnD1H5yM+Wf3dZRZJS3d/lERE93P7KaR/PmLkJ9pFdHdvMci4CZRtLuG1aT422t2wJ3XYabVNuXWs/9PJKAmVmJqP6ncgLqT0/cZeW62W4tiHZO9z+MxN3u2PYUfz3rD6tfTrz0jgTZ7rjZot4KNsfcR0EINCJQKZz7VQUbgsBCDwIZISQM9uymzRImNCMKfdwlxRHA5fWgdxRvVoLlJnZLi0Sye/NjxZFk8XCz01AdJ1srtkZtcnP2obZvZdUFs0Y2TvchCXq13vPdNvsnpCV8b+sMOayivq5ywOB8qiXO+/vCJRt2Gf3lM2IEpESZz7AFRGl9OzRMcArCZRunyzekf5zzydcEUv3ivglAuVz6m48FuG99TTXti3ioUj/wzkQgMBAAmeKGgOryaMgcCkCVxIoXXEimjBsGcwNhKOBy+jkpLVAKVauwFKbJGR81BUo3ZkZxWeiopTTKWRmi0b9r5dfjxIo3fLX7EHm+l3UF9z2E0mw3UTLbR9b9nUT7KxQ7LSd0eciULYhrrFdLPXbPSIvZpx7ZtqS7h+d6Tg6BnglgdKNAWWXyMqCPf9wx4FovOP2n5kc2h0vZ5lB6bCJjrtbNu41EcHpbzgXAhA4mUCmcz25yDweAi9PIBN8ndWW3WAi+1ZVRncFq6hANDo56SFQuvcUz2wQmZ1N6AowNQmyZugqOW0xkzIzc8dJjt2EJerXswqUEXHvWdldoTjq4wiUrzOsIlC2s6UrpJUnZ7dw2Cp5drxx+snRMYDLNfpSp0c/FvEml5/8o2aZt1vPqC84IpwbzxSO7ng/g0DpviDIllmM3PwnatuIH3MOBCAwCYGzRI1Jqk8xIDAlAXeAzgZKLSrvBlvRGQ1bZesVlLrBdU0dVC9XTIwEe64dCl8lSrq/c7hf7Vze2x1zXFF6+SwFrhLDIh9g2qq/BFJ9JdT9arfu5QTNru2cez+zq9uW9mbauf1VjUDplhuBcr9lM4PS6fnud27NSyLRyowvS8paZq6XEplZnM44PToGeDWBMjNOa09DvbB2j98k9i+PCrwIlNvWcAVKp+2tn+jGly3iIdcHOR8CEOhMwE0WOxeH20MAAok3iIJ2Vlt2xZXsDEpXBHFEotHJSQ+BsiaRjCaRNYJdadgZP3X3Plp3IuItETYqVKqeSoKUdGUSYz3fCdDdNtQiIHeFvpYCZXYP2sxMVgRKBMpCIPKihwDkXwlkxt7lXdRfib364eihPlHtXb8zh9tHjo4BXk2gzMYf8q3PDQNLKFM84I7L0ZdiCJRtBMrsEn43FnLifMPNOBUCEDibQCZZPLvMPB8Cr04gkxBIQOh9bAk87pvVqGCwrEvvJV6jk5MeAqV4uUlPNIlUMiCflGgnW9QcmTEnE7RulVG+99VjabuWmC2Xf2urAtXt4/cPOOnfbgK0Zum0R7d+bvK9xaKlQOmWPzqbZVludyuJcm20v3F5RBJet29UmTPtY8nJTbCZQVnTm93nWneM3CKjfqv0wfr3Mp5Qf6s2/uHjS8u144zzgkhldevn3n/Nwx2ro31mj34s6uVunXRfZyuAbBwYHQNUHrf/zPTX7niZfbHS0qfdfUYd5sW/svZtEQ9FfZzzIACBQQQyneugovEYCNyWQEag7A3rWRDgBi4qpzOLUsGclnhlEpZo4NIykIvYoZdAmZ3FsC6zvjpdxDtxz7B/xiE75mg5mATSKxyu6OMmLFG/3mPlJrJ7dcoIcRGBr5S/ZplnNFFyeUTKn+GSbR+FlZtgu756hfbHHpTtrZSduda+JMd3jIp5yzuNjgFcMS9apx792DHxH86oiT/2VjnUrmiI9NXZ/jPTX7vj/QwCpfh8b764ja7M0b31ckJLuzOxZot4KOrjnAcBCAwikOlcBxWNx0DgtgSuJFDKSJkluEfLbhWwSJDK7P9XHCcauIxOTnoJlKq3m/iMbmQ1Y45rp9F10/MyyYSbsET9epRAmUleiq9qed+zpfe1yzz1DATK/VaAQHlGL3HNZ7r91Bm1zO477I4tzKDctm5t/KH+Wi9I//6+//NPHoKV/C67oiEq7CJQHm9L47YRMT2K8yVIfvqIW7P9RYt4KPtsroMABDoRqEkWOxWJ20Lg9gSuJlDWzG5TQKoA47tHQKpAVAFp5k3q2nGigYsbeNUmJz0FyqxgnGl0EuO0T5hz1Iw58g2J4S18wylz9NxR+y5F/XqkQOlubL8s2zopbdkHIFDeT6CMtlfO8wlkPobiPyV3RVac1NNGxwCukBcV2s6cQSmO6rvFUi+Yzz4y/uDOQM/EM67Qn3np2cOna9r+DHH+2f7I8yEAAYNApnM1bs+pEIBAgsDVBEo34EogSV0SFXJGJye9BcoRy/EK2xEB/dL42X2KUg5kXKSZgNnZvm77ifr1SIHSrYOBtupUBEoEyioH4uJ/IeCKayMQaksSLeXV7LvMMToGcBleRaAU+xHxR8TGmY+xjYhn3LFyFoGyZgl/xF7Zc1rEQ9lncx0EINCJAAJlJ7DcFgIVBK4mUKqqboCfwaMgXX2WloREjmjg4pZ99hmUYqMZDKpXdmnUEd+yNHREQL8uixIgzdibYZaGypadOVnq5SYsUb/es6E70yayFNhtR0c+tvV39QGyf/TrvgiU+5Qjds3YiWtem4ArsPWkof5QYlRWnMzEL7UxgMvvSgKleLpjWmv/yIp6I+IZl022Lu54HPHpmtVSURurPeuFb3R1Tot4KFo2zoMABAYRQKAcBJrHQMAgcEWBsvfMtrJcR4E9AmXMmWo2Ht97wjKQHRHQPyvLiGD5iLTzwadn93ITlhYBeQ+BsrcoXvoAfTQLgXLbm9z2iEB51ML5+16/lf2AXSuqEiUlTj7bxzb6nB5izt6zX12gVN1rPm4WtdvWeVlBT/dy+89MDu2O99n69PDpEdvsaExSDoRAWdMKuBYCFyeQ6VwvXmWKD4HpCVxRoBTUngJFWa7jLI+OCjk9Ark9J3PqoPtkA1RdK+HYEXX3yq1ldBInv1icNCKg3ytTCWRH70sp3xILzdCrPdyEJerXe+XqIVDqeb36Lvnezx5ChNNemUG5750IlLWt997XtxxfXJK1M9eXz3P6FF0XmW22V587CJQl/hDbEePzVnzi+tSIeMYd77PxXy+f7rmEv7zwddpHi3jI9RPOhwAEOhNAoOwMmNtDIEGgV5KfKMo/L4kGAa1n7SnoVNAiUU+HI+5Fy9wrkHvG26mD7pENUJfPrxXyJErKDuuZKiMC+iO/VcCsDdz11ffeh/xRibEC6FaHm7BE/XqvfL0ESj1TvvaHhtsLrJdwOu0VgXLfSxEoW7Xie9+ndnxx6KlNayyqWdK9fp7Tp+haBMq4xUaI2PIJ2aR2Ju2IeMYd77PxX0+f7rFiarkaBYEy3r44EwIvSQCB8iXNSqUuTuDKAqXQtwpIt4JOR9yLCjk9A7ktV3Tq0EqgLOVQcCz/+jCwh6P4ffkQhZ8lgyMC+mhzLn73UYcZG0WY1LJy/bvl4SYsUb8+S6AsfUCLfUK3+gCnvSJQIlC2bKvca5+AxhZtwRLdgsHhqbYssabFrHUEyh8I6MNCPXhu2VU+oWW7LX2jtU+MiGfc8X5GgbJlnK/YUuLyMsZEoHR6Rs6FwAsSQKB8QaNSpcsTuLpAuRbDontGluv2gk5H3IsKOY7goTLWzp5w6tBaoFw2Du0npBmv+r38mI4CRbGLCHEjAvpMg9b+V/qpEStVf23WrtmjPZM4N2GJ+vWZAmV5tmyg9q/fzrHXBzjtFYESgdLxO85tQ0Avi9TmP64UpNR+y0uyyHiULb3Tp7SIARwBRs+72kdy9uygmEMrHrJjs/xAY7LG5tbj8oh4xh3vZxUoi43Li2G1deejjLKdbFhWRy19xmkfLeKhbL/BdRCAQCcCCJSdwHJbCEDgnwSKEKbATDP3iiCm30UI++7xBlVBS+0yHdCPIzAioK+tjRIiBdH6/cGT2ZVKevQjP5T/4Ye11H98vdq62r9scNQHKPnsKUa0rRl3gwAE9giU8b/0w+qDt4QM9bt/f/S/ekmmH/qB1/Yt+UT5KX6x3K9S9pdfLMfllkv7X5vu+NppjF/G+SqB7FnsqN/fPARm4vzx9uGJELgMAQTKy5iKgkIAAhCYjsAVBMrpoFEgCEAAAhCAAAQgAAEIQAACEPgxAQRKPAICEIAABDIENPPhb8aFLMUxYHEqBCAAAQhAAAIQgAAEIACBOxFAoLyTtakrBCBwZwJaVqflNvrRMtraw90rNbofYG25uB4CEIAABCAAAQhAAAIQgAAELkYAgfJiBqO4EIAABHYIlL0WJUaWvf7K3l/Lfb8+aSBSfmt+LftPj83xMSAEIAABCEAAAhCAAAQgAAEIQOBHBBAocQgIQAAC1yfgLrfWZuU/q/gg0W/eP3TwRxNbC1HUfCSnQwACEIAABCAAAQhAAAIQgMAVCCBQXsFKlBECEIDAMYHvn3wd9dmV2hPyFwmRMiNOShD96XEVOAMCEIAABCAAAQhAAAIQgAAE7kgAgfKOVqfOEIDAKxL4z7e3t88SFfvL29vb7wNC5c8f99dv99Azfu1exPkQgAAEIAABCEAAAhCAAAQgcA8CCJT3sDO1hAAEXp+A9p/UV7WXe006tf767e1NH7L5+0Os1H3088Hb29svK+5bu5zcqQPnQgACEIAABCAAAQhAAAIQgMAFCSBQXtBoFBkCEIDAEwLaF1JLsGc6fpfYr3Km8lMWCEAAAhCAAAQgAAEIQAACEOhMAIGyM2BuDwEIQGAwAc2i1EdzZjj4cvcMVqAMEIAABCAAAQhAAAIQgAAEJieAQDm5gSgeBCAAAZOAlmVLpNSS7zMPLRnXl8I5IAABCEAAAhCAAAQgAAEIQAACuwQQKHEQCEAAAq9HQOLkX0+cSfn5+z6Wv3o9rNQIAhCAAAQgAAEIQAACEIAABHoQQKDsQZV7QgACEJiDQPbL3tnS64M4+iK49sLkgAAEIAABCEAAAhCAAAQgAAEIhAggUIYwcRIEIACByxLQbMo/v3+h++cdayBhUvtNSpjUvzkgAAEIQAACEIAABCAAAQhAAAJhAgiUYVScCAEIQODSBCRQatn1x+9CovapbHH899vb21cIky1Qcg8IQAACEIAABCAAAQhAAAL3JYBAeV/bU3MIQOC+BCRW/vJ9n8oPH/tURgRLzYz8n/fr9PEbiZISJ/XfHBCAAAQgAAEIQAACEIAABCAAgSoCCJRV+LgYAhCAwEsQkECpn60vf0uElDjJ0u2XMDWVgAAEIAABCEAAAhCAAAQgMB8BBMr5bEKJIAABCEAAAhCAAAQgAAEIQAACEIAABCBwGwIIlLcxNRWFAAQgAAEIQAACEIAABCAAAQhAAAIQgMB8BBAo57MJJYIABCAAAQhAAAIQgAAEIAABCEAAAhCAwG0IIFDextRUFAIQgAAEIAABCEAAAhCAAAQgAAEIQAAC8xFAoJzPJpQIAhCAAAQgAAEIQAACEIAABCAAAQhAAAK3IYBAeRtTU1EIQAACEIAABCAAAQhAAAIQgAAEIAABCMxHAIFyPptQIghAAAIQgAAEIAABCEAAAhCAAAQgAAEI3IYAAuVtTE1FIQABCEAAAhCAAAQgAAEIQAACEIAABCAwHwEEyvlsQokgAAEIQAACEIAABCAAAQhAAAIQgAAEIHAbAgiUtzE1FYUABCAAAQhAAAIQgAAEIAABCEAAAhCAwHwEECjnswklggAEIAABCEAAAhCAAAQgAAEIQAACEIDAbQggUN7G1FQUAhCAAAQgAAEIQAACEIAABCAAAQhAAALzEUCgnM8mlAgCEIAABCAAAQhAAAIQgAAEIAABCEAAArchgEB5G1NTUQhAAAIQgAAEIAABCEAAAhCAAAQgAAEIzEcAgXI+m1AiCEAAAhCAAAQgAAEIQAACEIAABCAAAQjchgAC5W1MTUUhAAEIQAACEIAABCAAAQhAAAIQgAAEIDAfAQTK+WxCiSAAAQhAAAIQgAAEIAABCEAAAhCAAAQgcBsCCJS3MTUVhQAEIAABCEAAAhCAAAQgAAEIQAACEIDAfAQQKOezCSWCAAQgAAEIQAACEIAABCAAAQhAAAIQgMBtCCBQ3sbUVBQCEIAABCAAAQhAAAIQgAAEIAABCEAAAvMRQKCczyaUCAIQgAAEIAABCEAAAhCAAAQgAAEIQAACtyGAQHkbU1NRCEAAAhCAAAQgAAEIQAACEIAABCAAAQjMRwCBcj6bUCIIQAACEIAABCAAAQhAAAIQgAAEIAABCNyGAALlbUxNRSEAAQhAAAIQgAAEIAABCEAAAhCAAAQgMB8BBMr5bEKJIAABCEAAAhCAAAQgAAEIQAACEIAABCBwGwIIlLcxNRWFAAQgAAEIQAACEIAABCAAAQhAAAIQgMB8BBAo57MJJYIABCAAAQhAAAIQgAAEIAABCEAAAhCAwG0IIFDextRUFAIQgAAEIAABCEAAAhCAAAQgAAEIQAAC8xFAoJzPJpQIAhCAAAQgAAEIQAACEIAABCAAAQhAAAK3IYBAeRtTU1EIQAACEIAABCAAAQhAAAIQgAAEIAABCMxHAIFyPptQIghAAAIQgAAEIAABCEAAAhCAAAQgAAEI3IYAAuVtTE1FIQABCEAAAhCAAAQgAAEIQAACEIAABCAwHwEEyvlsQokgAAEIQAACEIAABCAAAQhAAAIQgAAEIHAbAgiUtzE1FYUABCAAAQhAAAIQgAAEIAABCEAAAhCAwHwEECjnswklggAEIAABCEAAAhCAAAQgAAEIQAACEIDAbQggUN7G1FQUAhCAAAQgAAEIQAACEIAABCAAAQhAAALzEUCgnM8mlAgCEIAABCAAAQhAAAIQgAAEIAABCEAAArchgEB5G1NTUQhAAAIQgAAEIAABCEAAAhCAAAQgAAEIzEcAgXI+m1AiCEAAAhCAAAQgAAEIQAACEIAABCAAAQjchgAC5W1MTUUhAAEIQAACEIAABCAAAQhAAAIQgAAEIDAfAQTK+WxCiSAAAQhAAAIQgAAEIAABCEAAAhCAAAQgcBsCCJS3MTUVhQAEIAABCEAAAhCAAAQgAAEIQAACEIDAfAQQKOezCSWCAAQgAAEIQAACEIAABCAAAQhAAAIQgMBtCCBQ3sbUVBQCEIAABCAAAQhAAAIQgAAEIAABCEAAAvMRQKCczyaUCAIQgAAEIAABCEAAAhCAAAQgAAEIQAACtyGAQHkbU1NRCEAAAhCAAAQgAAEIQAACEIAABCAAAQjMRwCBcj6bUCIIQAACEIAABCAAAQhAAAIQgAAEIAABCNyGAALlbUxNRSEAAQhAAAIQgAAEIAABCEAAAhCAAAQgMB8BBMr5bEKJIAABCEAAAhCAAAQgAAEIQAACEIAABCBwGwIIlLcxNRWFAAQgAAEIQAACEIAABCAAAQhAAAIQgMB8BBAo57MJJYIABCAAAQhAAAIQgAAEIAABCEAAAhCAwG0IIFDextRUFAIQgAAEIAABCEAAAhCAAAQgAAEIQAAC8xFAoJzPJpQIAhCAAAQgAAEIQAACEIAABCAAAQhAAAK3IYBAeRtTU1EIQAACEIAABCAAAQhAAAIQgAAEIAABCMxHAIFyPptQIghAAAIQgAAEIAABCEAAAhCAAAQgAAEI3IYAAuVtTE1FIQABCEAAAhCAAAQgAAEIQAACEIAABCAwHwEEyvlsQokgAAEIQAACEIAABCAAAQhAAAIQgAAEIHAbAgiUtzE1FYUABCAAAQhAAAIQgAAEIAABCEAAAhCAwHwEECjnswklggAEIAABCEAAAhCAAAQgAAEIQAACEIDAbQggUN7G1FQUAhCAAAQgAAEIQAACEIAABCAAAQhAAALzEUCgnM8mlAgCEIAABCAAAQhAAAIQgAAEIAABCEAAArchgEB5G1NTUQhAAAIQgAAEIAABCEAAAhCAAAQgAAEIzEfg/wHhdE6cT2oBLwAAAABJRU5ErkJggg==;clipPath=inset(2.38% 50.67% 2.38% 16%);imageBorder=default;dashed=1;perimeterSpacing=8;strokeWidth=1;aspect=fixed;dashPattern=8 8;" parent="WIyWlLk6GJQsqaUBKTNV-1" vertex="1">
          <mxGeometry x="400" y="470" width="60" height="60" as="geometry" />
        </mxCell>
        <mxCell id="fTH-W33H2Ky56Lf1E-zr-2" value="2" style="ellipse;whiteSpace=wrap;html=1;aspect=fixed;labelBackgroundColor=none;fontSize=26;fontStyle=0;fillColor=none;" parent="WIyWlLk6GJQsqaUBKTNV-1" vertex="1">
          <mxGeometry x="-13" y="194.84" width="37.16" height="37.16" as="geometry" />
        </mxCell>
        <mxCell id="fTH-W33H2Ky56Lf1E-zr-3" value="1" style="ellipse;whiteSpace=wrap;html=1;aspect=fixed;labelBackgroundColor=none;fontSize=26;fontStyle=0;fillColor=none;" parent="WIyWlLk6GJQsqaUBKTNV-1" vertex="1">
          <mxGeometry x="466" y="194.84" width="37.16" height="37.16" as="geometry" />
        </mxCell>
        <mxCell id="fTH-W33H2Ky56Lf1E-zr-4" value="3" style="ellipse;whiteSpace=wrap;html=1;aspect=fixed;labelBackgroundColor=none;fontSize=26;fontStyle=0;fillColor=none;" parent="WIyWlLk6GJQsqaUBKTNV-1" vertex="1">
          <mxGeometry x="-15.160000000000025" y="454" width="37.16" height="37.16" as="geometry" />
        </mxCell>
      </root>
    </mxGraphModel>
  </diagram>
</mxfile>
